<?xml version="1.0" encoding="utf-8"?>
<!-- Generator: Adobe Illustrator 16.0.0, SVG Export Plug-In . SVG Version: 6.00 Build 0)  -->
<!DOCTYPE svg PUBLIC "-//W3C//DTD SVG 1.1//EN" "http://www.w3.org/Graphics/SVG/1.1/DTD/svg11.dtd">
<svg version="1.1" id="Layer_1" xmlns="http://www.w3.org/2000/svg" xmlns:xlink="http://www.w3.org/1999/xlink" x="0px" y="0px"
	 width="2409.448px" height="5669.29px" viewBox="0 0 2409.448 5669.29" enable-background="new 0 0 2409.448 5669.29"
	 xml:space="preserve">
<rect x="-8.504" y="-8.504" fill="#FBE531" width="2426.456" height="1516.437"/>
<rect x="-8.504" y="5071.393" fill="#FBE531" width="2426.456" height="606.586"/>
<g>
	<g>
		<g>
			<g opacity="0.6">
				<polygon fill="#FAF1B9" points="1507.944,-8.504 1204.663,-8.504 1356.291,143.137 				"/>
				<polygon fill="#FBDE34" points="1507.944,294.787 1507.944,-8.504 1356.291,143.137 				"/>
				<polygon fill="#FAE778" points="1204.663,294.787 1204.663,-8.492 1356.291,143.137 				"/>
				<polygon fill="#FAE778" points="1507.944,294.787 1204.663,294.787 1356.291,143.148 				"/>
				<polygon fill="#FAF5DD" points="1507.944,294.787 1204.663,294.787 1356.291,446.434 				"/>
				<polygon fill="#FAE778" points="1507.944,598.082 1507.944,294.787 1356.291,446.434 				"/>
				<polygon fill="#FAF1BC" points="1507.944,1204.652 1507.944,901.36 1356.291,1053.007 				"/>
				<polygon fill="#FBF4D0" points="1204.663,598.082 1204.663,294.787 1356.291,446.434 				"/>
				<polygon fill="#FAE778" points="1507.944,598.082 1204.663,598.082 1356.291,446.434 				"/>
				<polygon fill="#FBE14D" points="1507.944,598.082 1204.663,598.082 1356.291,749.713 				"/>
				<polygon fill="#FAF1BC" points="1507.944,901.36 1507.944,598.082 1356.291,749.713 				"/>
				<polygon fill="#FAE778" points="1204.663,901.36 1204.663,598.082 1356.291,749.713 				"/>
				<polygon fill="#FAE778" points="1507.944,901.36 1204.663,901.36 1356.291,749.713 				"/>
				<polygon fill="#FAE778" points="1507.944,901.36 1204.663,901.36 1356.291,1052.994 				"/>
				<polygon fill="#FAF1B9" points="1507.944,1204.665 1204.663,1204.652 1356.291,1053.007 				"/>
				<polygon fill="#FAF1B9" points="1507.944,1204.665 1204.663,1204.652 1356.291,1356.306 				"/>
				<polygon fill="#FAE778" points="1507.944,1507.933 1507.944,1204.652 1356.291,1356.306 				"/>
				<polygon fill="#FBDF3D" points="1204.663,1507.933 1204.663,1204.652 1356.291,1356.306 				"/>
				<polygon fill="#FAF1BC" points="1507.944,1507.933 1204.663,1507.933 1356.291,1356.306 				"/>
				<polygon fill="#FAE778" points="1204.663,1204.652 1204.663,901.36 1356.291,1053.007 				"/>
				<polygon fill="#FAE778" points="1204.663,-8.504 901.385,-8.504 1053.013,143.137 				"/>
				<polygon fill="#FBDE34" points="1204.663,294.787 1204.663,-8.504 1053.013,143.137 				"/>
				<polygon fill="#FAE778" points="901.385,294.787 901.385,-8.492 1053.013,143.137 				"/>
				<polygon fill="#FBE14D" points="1204.663,294.787 901.385,294.787 1053.013,143.148 				"/>
				<polygon fill="#FBDF3D" points="1204.663,294.787 901.385,294.787 1053.013,446.434 				"/>
				<polygon fill="#FBE14D" points="1204.663,598.082 1204.663,294.787 1053.013,446.434 				"/>
				<polygon fill="#FADD2F" points="1204.663,1204.652 1204.663,901.36 1053.013,1053.007 				"/>
				<polygon fill="#FBDE34" points="901.385,598.082 901.385,294.787 1053.013,446.434 				"/>
				<polygon fill="#FAF5DD" points="1204.663,598.082 901.385,598.082 1053.013,446.434 				"/>
				<polygon fill="#FAE778" points="1204.663,598.082 901.385,598.082 1052.988,749.713 				"/>
				<polygon fill="#FAE778" points="1204.663,901.36 1204.663,598.082 1053.013,749.713 				"/>
				<polygon fill="#FAE778" points="901.385,901.36 901.385,598.082 1053.013,749.713 				"/>
				<polygon fill="#FAF1B9" points="1204.663,901.36 901.385,901.36 1053.013,749.713 				"/>
				<polygon fill="#FAF1BC" points="1204.663,901.36 901.385,901.36 1053.013,1052.994 				"/>
				<polygon fill="#FBE14D" points="1204.663,1204.665 901.385,1204.652 1053.013,1053.007 				"/>
				<polygon fill="#FBDE34" points="1204.663,1204.665 901.385,1204.652 1053.013,1356.306 				"/>
				<polygon fill="#FAF1BC" points="1204.663,1507.933 1204.663,1204.652 1053.013,1356.306 				"/>
				<polygon fill="#FAE778" points="901.385,1507.933 901.385,1204.652 1053.013,1356.306 				"/>
				<polygon fill="#FBE14D" points="1204.663,1507.933 901.385,1507.933 1053.013,1356.306 				"/>
				<polygon fill="#FAE778" points="901.385,1204.652 901.385,901.36 1053.013,1053.007 				"/>
				<polygon fill="#FAE778" points="901.385,-8.504 598.079,-8.504 749.733,143.137 				"/>
				<polygon fill="#FBDF3D" points="901.385,294.787 901.385,-8.504 749.733,143.137 				"/>
				<polygon fill="#FBE14D" points="598.079,294.787 598.079,-8.492 749.708,143.137 				"/>
				<polygon fill="#FAF1BC" points="901.385,294.787 598.079,294.787 749.733,143.148 				"/>
				<polygon fill="#FAE778" points="901.385,294.787 598.079,294.787 749.733,446.434 				"/>
				<polygon fill="#FAE778" points="901.385,598.082 901.385,294.787 749.733,446.434 				"/>
				<polygon fill="#FAE778" points="901.385,1204.652 901.385,901.36 749.733,1053.007 				"/>
				<polygon fill="#FAE778" points="598.079,598.082 598.079,294.787 749.733,446.434 				"/>
				<polygon fill="#FBDE34" points="901.385,598.082 598.079,598.082 749.733,446.434 				"/>
				<polygon fill="#FAF1BC" points="901.36,598.082 598.079,598.082 749.708,749.713 				"/>
				<polygon fill="#FAE778" points="901.385,901.36 901.385,598.082 749.733,749.713 				"/>
				<polygon fill="#FAE778" points="598.079,901.36 598.079,598.082 749.708,749.713 				"/>
				<polygon fill="#FAE778" points="901.385,901.36 598.079,901.36 749.733,749.713 				"/>
				<polygon fill="#FBF4D0" points="901.385,901.36 598.079,901.36 749.733,1052.994 				"/>
				<polygon fill="#FAE778" points="901.385,1204.665 598.079,1204.652 749.733,1053.007 				"/>
				<polygon fill="#FAF5DD" points="901.385,1204.665 598.079,1204.652 749.733,1356.306 				"/>
				<polygon fill="#FBF4D0" points="901.385,1507.933 901.385,1204.652 749.733,1356.306 				"/>
				<polygon fill="#FAE778" points="598.079,1507.933 598.079,1204.652 749.733,1356.306 				"/>
				<polygon fill="#FBE14D" points="901.385,1507.933 598.079,1507.933 749.733,1356.306 				"/>
				<polygon fill="#FBF4D0" points="598.079,1204.652 598.079,901.36 749.733,1053.007 				"/>
				<polygon fill="#FAE778" points="598.079,-8.504 294.788,-8.504 446.429,143.137 				"/>
				<polygon fill="#FBDE34" points="598.079,294.787 598.079,-8.504 446.429,143.137 				"/>
				<polygon fill="#FAE778" points="294.788,294.787 294.788,-8.492 446.429,143.137 				"/>
				<polygon fill="#FAF1B9" points="598.079,294.787 294.788,294.787 446.429,143.148 				"/>
				<polygon fill="#FADD2F" points="598.079,294.787 294.788,294.787 446.429,446.434 				"/>
				<polygon fill="#FAE778" points="598.079,598.082 598.079,294.787 446.429,446.434 				"/>
				<polygon fill="#FAE778" points="598.079,1204.652 598.079,901.36 446.429,1053.007 				"/>
				<polygon fill="#FAF1BC" points="294.788,598.082 294.788,294.787 446.429,446.434 				"/>
				<polygon fill="#FAE778" points="598.079,598.082 294.788,598.082 446.429,446.434 				"/>
				<polygon fill="#FAE778" points="598.056,598.082 294.788,598.082 446.429,749.713 				"/>
				<polygon fill="#FADD2F" points="598.079,901.36 598.079,598.082 446.429,749.713 				"/>
				<polygon fill="#FBE045" points="294.788,901.36 294.788,598.082 446.429,749.713 				"/>
				<polygon fill="#FAF1B9" points="598.079,901.36 294.788,901.36 446.429,749.713 				"/>
				<polygon fill="#FBDF3D" points="598.079,901.36 294.788,901.36 446.429,1052.994 				"/>
				<polygon fill="#FBF4D0" points="598.079,1204.665 294.788,1204.652 446.429,1053.007 				"/>
				<polygon fill="#FAE778" points="598.079,1204.665 294.788,1204.652 446.429,1356.306 				"/>
				<polygon fill="#FAF1B9" points="598.079,1507.933 598.079,1204.652 446.429,1356.306 				"/>
				<polygon fill="#FAE778" points="294.788,1507.933 294.788,1204.652 446.429,1356.306 				"/>
				<polygon fill="#FBDE34" points="598.079,1507.933 294.801,1507.933 446.429,1356.306 				"/>
				<polygon fill="#FAE778" points="294.788,1204.652 294.788,901.36 446.429,1053.007 				"/>
				<polygon fill="#FAE778" points="294.788,-8.504 -8.504,-8.504 143.147,143.137 				"/>
				<polygon fill="#FAE778" points="294.788,294.787 294.788,-8.504 143.147,143.137 				"/>
				<polygon fill="#FBE14D" points="-8.504,294.787 -8.504,-8.492 143.147,143.137 				"/>
				<polygon fill="#FAE778" points="294.788,294.787 -8.504,294.787 143.147,143.148 				"/>
				<polygon fill="#FAF1BC" points="294.788,294.787 -8.504,294.787 143.147,446.434 				"/>
				<polygon fill="#FAE778" points="294.788,598.082 294.788,294.787 143.147,446.434 				"/>
				<polygon fill="#FAE778" points="294.788,1204.652 294.788,901.36 143.147,1053.007 				"/>
				<polygon fill="#FAE778" points="-8.504,598.082 -8.504,294.787 143.147,446.434 				"/>
				<polygon fill="#FAE778" points="294.788,598.082 -8.504,598.082 143.147,446.434 				"/>
				<polygon fill="#FBDF3D" points="294.788,598.082 -8.504,598.082 143.137,749.713 				"/>
				<polygon fill="#FAE778" points="294.788,901.36 294.788,598.082 143.147,749.713 				"/>
				<polygon fill="#EDD133" points="-8.504,901.36 -8.504,598.082 143.147,749.713 				"/>
				<polygon fill="#FBE14D" points="294.788,901.36 -8.504,901.36 143.147,749.713 				"/>
				<polygon fill="#FAE778" points="294.788,901.36 -8.504,901.36 143.147,1052.994 				"/>
				<polygon fill="#FADD2F" points="294.788,1204.665 -8.504,1204.652 143.147,1053.007 				"/>
				<polygon fill="#FAF5DD" points="294.788,1204.665 -8.504,1204.652 143.147,1356.306 				"/>
				<polygon fill="#FBDE34" points="294.788,1507.933 294.788,1204.652 143.147,1356.306 				"/>
				<polygon fill="#FAE778" points="-8.504,1507.933 -8.504,1204.652 143.147,1356.306 				"/>
				<polygon fill="#FBDE34" points="294.788,1507.933 -8.504,1507.933 143.147,1356.306 				"/>
				<polygon fill="#FBE14D" points="-8.504,1204.652 -8.504,901.36 143.147,1053.007 				"/>
			</g>
		</g>
		<g>
			<g opacity="0.6">
				<polygon fill="#FAE778" points="1811.223,-8.504 1507.944,-8.504 1659.572,143.137 				"/>
				<polygon fill="#FAE778" points="1811.223,294.787 1811.223,-8.504 1659.572,143.137 				"/>
				<polygon fill="#FBE14D" points="1507.944,294.787 1507.944,-8.492 1659.572,143.137 				"/>
				<polygon fill="#FAE778" points="1811.223,294.787 1507.944,294.787 1659.572,143.148 				"/>
				<polygon fill="#DFC432" points="1811.223,294.787 1507.944,294.787 1659.572,446.434 				"/>
				<polygon fill="#FAE778" points="1811.223,598.082 1811.223,294.787 1659.572,446.434 				"/>
				<polygon fill="#FAE778" points="1811.223,1204.652 1811.223,901.36 1659.572,1053.007 				"/>
				<polygon fill="#FAE778" points="1507.944,598.082 1507.944,294.787 1659.572,446.434 				"/>
				<polygon fill="#FAE778" points="1811.223,598.082 1507.944,598.082 1659.572,446.434 				"/>
				<polygon fill="#FBDF3D" points="1811.223,598.082 1507.944,598.082 1659.572,749.713 				"/>
				<polygon fill="#FAE778" points="1811.223,901.36 1811.223,598.082 1659.572,749.713 				"/>
				<polygon fill="#EDD133" points="1507.944,901.36 1507.944,598.082 1659.572,749.713 				"/>
				<polygon fill="#FBE14D" points="1811.223,901.36 1507.944,901.36 1659.572,749.713 				"/>
				<polygon fill="#FAE778" points="1811.223,901.36 1507.944,901.36 1659.572,1052.994 				"/>
				<polygon fill="#FADD2F" points="1811.223,1204.665 1507.944,1204.652 1659.572,1053.007 				"/>
				<polygon fill="#FAF5DD" points="1811.223,1204.665 1507.944,1204.652 1659.572,1356.306 				"/>
				<polygon fill="#FBDE34" points="1811.223,1507.933 1811.223,1204.652 1659.572,1356.306 				"/>
				<polygon fill="#FAE778" points="1507.944,1507.933 1507.944,1204.652 1659.572,1356.306 				"/>
				<polygon fill="#FBDE34" points="1811.223,1507.933 1507.944,1507.933 1659.572,1356.306 				"/>
				<polygon fill="#FBE14D" points="1507.944,1204.652 1507.944,901.36 1659.572,1053.007 				"/>
			</g>
		</g>
	</g>
	<g>
		<g>
			<g opacity="0.6">
				<polygon fill="#FAE778" points="2417.807,-8.492 2114.515,-8.492 2266.156,143.148 				"/>
				<polygon fill="#FBDE34" points="2417.807,294.799 2417.807,-8.492 2266.156,143.148 				"/>
				<polygon fill="#FAE778" points="2114.515,294.799 2114.515,-8.48 2266.156,143.148 				"/>
				<polygon fill="#FAF1B9" points="2417.807,294.799 2114.515,294.799 2266.156,143.16 				"/>
				<polygon fill="#FADD2F" points="2417.807,294.799 2114.515,294.799 2266.156,446.445 				"/>
				<polygon fill="#FAE778" points="2417.807,598.094 2417.807,294.799 2266.156,446.445 				"/>
				<polygon fill="#FAE778" points="2417.807,1204.664 2417.807,901.372 2266.156,1053.019 				"/>
				<polygon fill="#FAF1BC" points="2114.515,598.094 2114.515,294.799 2266.156,446.445 				"/>
				<polygon fill="#FAE778" points="2417.807,598.094 2114.515,598.094 2266.156,446.445 				"/>
				<polygon fill="#FAE778" points="2417.783,598.094 2114.515,598.094 2266.156,749.725 				"/>
				<polygon fill="#FADD2F" points="2417.807,901.372 2417.807,598.094 2266.156,749.725 				"/>
				<polygon fill="#FBE045" points="2114.515,901.372 2114.515,598.094 2266.156,749.725 				"/>
				<polygon fill="#FAF1B9" points="2417.807,901.372 2114.515,901.372 2266.156,749.725 				"/>
				<polygon fill="#FBDF3D" points="2417.807,901.372 2114.515,901.372 2266.156,1053.006 				"/>
				<polygon fill="#FBF4D0" points="2417.807,1204.677 2114.515,1204.664 2266.156,1053.019 				"/>
				<polygon fill="#FAE778" points="2417.807,1204.677 2114.515,1204.664 2266.156,1356.317 				"/>
				<polygon fill="#FAF1B9" points="2417.807,1507.944 2417.807,1204.664 2266.156,1356.317 				"/>
				<polygon fill="#FAE778" points="2114.515,1507.944 2114.515,1204.664 2266.156,1356.317 				"/>
				<polygon fill="#FBDE34" points="2417.807,1507.944 2114.528,1507.944 2266.156,1356.317 				"/>
				<polygon fill="#FAE778" points="2114.515,1204.664 2114.515,901.372 2266.156,1053.019 				"/>
				<polygon fill="#FAE778" points="2114.515,-8.492 1811.223,-8.492 1962.874,143.148 				"/>
				<polygon fill="#FAE778" points="2114.515,294.799 2114.515,-8.492 1962.874,143.148 				"/>
				<polygon fill="#FBE14D" points="1811.223,294.799 1811.223,-8.48 1962.874,143.148 				"/>
				<polygon fill="#FAE778" points="2114.515,294.799 1811.223,294.799 1962.874,143.16 				"/>
				<polygon fill="#FAF1BC" points="2114.515,294.799 1811.223,294.799 1962.874,446.445 				"/>
				<polygon fill="#FAE778" points="2114.515,598.094 2114.515,294.799 1962.874,446.445 				"/>
				<polygon fill="#FAE778" points="2114.515,1204.664 2114.515,901.372 1962.874,1053.019 				"/>
				<polygon fill="#FAE778" points="1811.223,598.094 1811.223,294.799 1962.874,446.445 				"/>
				<polygon fill="#FAE778" points="2114.515,598.094 1811.223,598.094 1962.874,446.445 				"/>
				<polygon fill="#FBDF3D" points="2114.515,598.094 1811.223,598.094 1962.864,749.725 				"/>
				<polygon fill="#FAE778" points="2114.515,901.372 2114.515,598.094 1962.874,749.725 				"/>
				<polygon fill="#EDD133" points="1811.223,901.372 1811.223,598.094 1962.874,749.725 				"/>
				<polygon fill="#FBE14D" points="2114.515,901.372 1811.223,901.372 1962.874,749.725 				"/>
				<polygon fill="#FAE778" points="2114.515,901.372 1811.223,901.372 1962.874,1053.006 				"/>
				<polygon fill="#FADD2F" points="2114.515,1204.677 1811.223,1204.664 1962.874,1053.019 				"/>
				<polygon fill="#FAF5DD" points="2114.515,1204.677 1811.223,1204.664 1962.874,1356.317 				"/>
				<polygon fill="#FBDE34" points="2114.515,1507.944 2114.515,1204.664 1962.874,1356.317 				"/>
				<polygon fill="#FAE778" points="1811.223,1507.944 1811.223,1204.664 1962.874,1356.317 				"/>
				<polygon fill="#FBDE34" points="2114.515,1507.944 1811.223,1507.944 1962.874,1356.317 				"/>
				<polygon fill="#FBE14D" points="1811.223,1204.664 1811.223,901.372 1962.874,1053.019 				"/>
			</g>
		</g>
	</g>
</g>
<g>
	<g>
		<g>
			<g opacity="0.6">
				<polygon fill="#FAF1B9" points="1507.944,5071.393 1204.663,5071.393 1356.291,5223.033 				"/>
				<polygon fill="#FBDE34" points="1507.944,5374.684 1507.944,5071.393 1356.291,5223.033 				"/>
				<polygon fill="#FAE778" points="1204.663,5374.684 1204.663,5071.404 1356.291,5223.033 				"/>
				<polygon fill="#FAE778" points="1507.944,5374.684 1204.663,5374.684 1356.291,5223.045 				"/>
				<polygon fill="#FAF5DD" points="1507.944,5374.684 1204.663,5374.684 1356.291,5526.33 				"/>
				<polygon fill="#FAE778" points="1507.944,5677.979 1507.944,5374.684 1356.291,5526.33 				"/>
				<polygon fill="#FBF4D0" points="1204.663,5677.979 1204.663,5374.684 1356.291,5526.33 				"/>
				<polygon fill="#FAE778" points="1507.944,5677.979 1204.663,5677.979 1356.291,5526.33 				"/>
				<polygon fill="#FBDE34" points="1204.663,5071.393 901.385,5071.393 1053.013,5223.033 				"/>
				<polygon fill="#FBDE34" points="1204.663,5374.684 1204.663,5071.393 1053.013,5223.033 				"/>
				<polygon fill="#FAE778" points="901.385,5374.684 901.385,5071.404 1053.013,5223.033 				"/>
				<polygon fill="#FBE14D" points="1204.663,5374.684 901.385,5374.684 1053.013,5223.045 				"/>
				<polygon fill="#FBDF3D" points="1204.663,5374.684 901.385,5374.684 1053.013,5526.33 				"/>
				<polygon fill="#FBE14D" points="1204.663,5677.979 1204.663,5374.684 1053.013,5526.33 				"/>
				<polygon fill="#FBDE34" points="901.385,5677.979 901.385,5374.684 1053.013,5526.33 				"/>
				<polygon fill="#FAF5DD" points="1204.663,5677.979 901.385,5677.979 1053.013,5526.33 				"/>
				<polygon fill="#FAE778" points="901.385,5071.393 598.079,5071.393 749.733,5223.033 				"/>
				<polygon fill="#FBDF3D" points="901.385,5374.684 901.385,5071.393 749.733,5223.033 				"/>
				<polygon fill="#FBE14D" points="598.079,5374.684 598.079,5071.404 749.708,5223.033 				"/>
				<polygon fill="#FAF1BC" points="901.385,5374.684 598.079,5374.684 749.733,5223.045 				"/>
				<polygon fill="#FAE778" points="901.385,5374.684 598.079,5374.684 749.733,5526.33 				"/>
				<polygon fill="#FAE778" points="901.385,5677.979 901.385,5374.684 749.733,5526.33 				"/>
				<polygon fill="#FAE778" points="598.079,5677.979 598.079,5374.684 749.733,5526.33 				"/>
				<polygon fill="#FBDE34" points="901.385,5677.979 598.079,5677.979 749.733,5526.33 				"/>
				<polygon fill="#FAE778" points="598.079,5071.393 294.788,5071.393 446.429,5223.033 				"/>
				<polygon fill="#FBDE34" points="598.079,5374.684 598.079,5071.393 446.429,5223.033 				"/>
				<polygon fill="#FAE778" points="294.788,5374.684 294.788,5071.404 446.429,5223.033 				"/>
				<polygon fill="#FAF1B9" points="598.079,5374.684 294.788,5374.684 446.429,5223.045 				"/>
				<polygon fill="#FADD2F" points="598.079,5374.684 294.788,5374.684 446.429,5526.33 				"/>
				<polygon fill="#FAE778" points="598.079,5677.979 598.079,5374.684 446.429,5526.33 				"/>
				<polygon fill="#FAF1BC" points="294.788,5677.979 294.788,5374.684 446.429,5526.33 				"/>
				<polygon fill="#FAE778" points="598.079,5677.979 294.788,5677.979 446.429,5526.33 				"/>
				<polygon fill="#FAE778" points="294.788,5071.393 -8.504,5071.393 143.147,5223.033 				"/>
				<polygon fill="#FAE778" points="294.788,5374.684 294.788,5071.393 143.147,5223.033 				"/>
				<polygon fill="#FBE14D" points="-8.504,5374.684 -8.504,5071.404 143.147,5223.033 				"/>
				<polygon fill="#FAE778" points="294.788,5374.684 -8.504,5374.684 143.147,5223.045 				"/>
				<polygon fill="#FAF1BC" points="294.788,5374.684 -8.504,5374.684 143.147,5526.33 				"/>
				<polygon fill="#FAE778" points="294.788,5677.979 294.788,5374.684 143.147,5526.33 				"/>
				<polygon fill="#FAE778" points="-8.504,5677.979 -8.504,5374.684 143.147,5526.33 				"/>
				<polygon fill="#FAE778" points="294.788,5677.979 -8.504,5677.979 143.147,5526.33 				"/>
			</g>
		</g>
		<g>
			<g opacity="0.6">
				<polygon fill="#FAE778" points="1811.223,5071.393 1507.944,5071.393 1659.572,5223.033 				"/>
				<polygon fill="#FAE778" points="1811.223,5374.684 1811.223,5071.393 1659.572,5223.033 				"/>
				<polygon fill="#FBE14D" points="1507.944,5374.684 1507.944,5071.404 1659.572,5223.033 				"/>
				<polygon fill="#FAE778" points="1811.223,5374.684 1507.944,5374.684 1659.572,5223.045 				"/>
				<polygon fill="#DFC432" points="1811.223,5374.684 1507.944,5374.684 1659.572,5526.33 				"/>
				<polygon fill="#FAE778" points="1811.223,5677.979 1811.223,5374.684 1659.572,5526.33 				"/>
				<polygon fill="#FAE778" points="1507.944,5677.979 1507.944,5374.684 1659.572,5526.33 				"/>
				<polygon fill="#FAE778" points="1811.223,5677.979 1507.944,5677.979 1659.572,5526.33 				"/>
			</g>
		</g>
	</g>
	<g>
		<g>
			<g opacity="0.6">
				<polygon fill="#FAE778" points="2417.807,5071.404 2114.515,5071.404 2266.156,5223.045 				"/>
				<polygon fill="#FBDE34" points="2417.807,5374.695 2417.807,5071.404 2266.156,5223.045 				"/>
				<polygon fill="#FAE778" points="2114.515,5374.695 2114.515,5071.416 2266.156,5223.045 				"/>
				<polygon fill="#FAF1B9" points="2417.807,5374.695 2114.515,5374.695 2266.156,5223.057 				"/>
				<polygon fill="#FADD2F" points="2417.807,5374.695 2114.515,5374.695 2266.156,5526.342 				"/>
				<polygon fill="#FAE778" points="2417.807,5677.99 2417.807,5374.695 2266.156,5526.342 				"/>
				<polygon fill="#FAF1BC" points="2114.515,5677.99 2114.515,5374.695 2266.156,5526.342 				"/>
				<polygon fill="#FAE778" points="2417.807,5677.99 2114.515,5677.99 2266.156,5526.342 				"/>
				<polygon fill="#FAE778" points="2114.515,5071.404 1811.223,5071.404 1962.874,5223.045 				"/>
				<polygon fill="#FAE778" points="2114.515,5374.695 2114.515,5071.404 1962.874,5223.045 				"/>
				<polygon fill="#FBE14D" points="1811.223,5374.695 1811.223,5071.416 1962.874,5223.045 				"/>
				<polygon fill="#FAE778" points="2114.515,5374.695 1811.223,5374.695 1962.874,5223.057 				"/>
				<polygon fill="#FAF1BC" points="2114.515,5374.695 1811.223,5374.695 1962.874,5526.342 				"/>
				<polygon fill="#FAE778" points="2114.515,5677.99 2114.515,5374.695 1962.874,5526.342 				"/>
				<polygon fill="#FAE778" points="1811.223,5677.99 1811.223,5374.695 1962.874,5526.342 				"/>
				<polygon fill="#FAE778" points="2114.515,5677.99 1811.223,5677.99 1962.874,5526.342 				"/>
			</g>
		</g>
	</g>
</g>
<g>
	<text transform="matrix(1 0 0 1 111.6704 4841.7598)" fill="#333333" font-family="'SourceSansPro-Bold'" font-size="151.3942">http://nodeschool.io/amsterdam</text>
</g>
<g>
	<g>
		<g>
			<g>
				<g>
					<g opacity="0.6">
						<polygon fill="#FAF1B9" points="1508.017,3912.068 1204.736,3912.068 1356.364,4063.709 						"/>
						<polygon fill="#FBDE34" points="1508.017,4215.359 1508.017,3912.068 1356.364,4063.709 						"/>
						<polygon fill="#FAE778" points="1204.736,4215.359 1204.736,3912.08 1356.364,4063.709 						"/>
						<polygon fill="#FAE778" points="1508.017,4215.359 1204.736,4215.359 1356.364,4063.721 						"/>
						<polygon fill="#FAF5DD" points="1508.017,4215.359 1204.736,4215.359 1356.364,4367.006 						"/>
						<polygon fill="#FAE778" points="1508.017,4518.654 1508.017,4215.359 1356.364,4367.006 						"/>
						<polygon fill="#FBF4D0" points="1204.736,4518.654 1204.736,4215.359 1356.364,4367.006 						"/>
						<polygon fill="#FAE778" points="1508.017,4518.654 1204.736,4518.654 1356.364,4367.006 						"/>
						<polygon fill="#DFC432" points="1204.736,3912.068 901.458,3912.068 1053.085,4063.709 						"/>
						<polygon fill="#FBDE34" points="1204.736,4215.359 1204.736,3912.068 1053.085,4063.709 						"/>
						<polygon fill="#FAE778" points="901.458,4215.359 901.458,3912.08 1053.085,4063.709 						"/>
						<polygon fill="#FBE14D" points="1204.736,4215.359 901.458,4215.359 1053.085,4063.721 						"/>
						<polygon fill="#FBDF3D" points="1204.736,4215.359 901.458,4215.359 1053.085,4367.006 						"/>
						<polygon fill="#FBE14D" points="1204.736,4518.654 1204.736,4215.359 1053.085,4367.006 						"/>
						<polygon fill="#FBDE34" points="901.458,4518.654 901.458,4215.359 1053.085,4367.006 						"/>
						<polygon fill="#FAF5DD" points="1204.736,4518.654 901.458,4518.654 1053.085,4367.006 						"/>
						<polygon fill="#FAE778" points="901.458,3912.068 598.152,3912.068 749.806,4063.709 						"/>
						<polygon fill="#FBDF3D" points="901.458,4215.359 901.458,3912.068 749.806,4063.709 						"/>
						<polygon fill="#FBE14D" points="598.152,4215.359 598.152,3912.08 749.781,4063.709 						"/>
						<polygon fill="#FAF1BC" points="901.458,4215.359 598.152,4215.359 749.806,4063.721 						"/>
						<polygon fill="#FAE778" points="901.458,4215.359 598.152,4215.359 749.806,4367.006 						"/>
						<polygon fill="#FAE778" points="901.458,4518.654 901.458,4215.359 749.806,4367.006 						"/>
						<polygon fill="#FAE778" points="598.152,4518.654 598.152,4215.359 749.806,4367.006 						"/>
						<polygon fill="#FBDE34" points="901.458,4518.654 598.152,4518.654 749.806,4367.006 						"/>
						<polygon fill="#FAE778" points="598.152,3912.068 294.861,3912.068 446.501,4063.709 						"/>
						<polygon fill="#FBDE34" points="598.152,4215.359 598.152,3912.068 446.501,4063.709 						"/>
						<polygon fill="#FAE778" points="294.861,4215.359 294.861,3912.08 446.501,4063.709 						"/>
						<polygon fill="#FAF1B9" points="598.152,4215.359 294.861,4215.359 446.501,4063.721 						"/>
						<polygon fill="#FADD2F" points="598.152,4215.359 294.861,4215.359 446.501,4367.006 						"/>
						<polygon fill="#FAE778" points="598.152,4518.654 598.152,4215.359 446.501,4367.006 						"/>
						<polygon fill="#FAF1BC" points="294.861,4518.654 294.861,4215.359 446.501,4367.006 						"/>
						<polygon fill="#FAE778" points="598.152,4518.654 294.861,4518.654 446.501,4367.006 						"/>
						<polygon fill="#FAE778" points="294.861,3912.068 -8.431,3912.068 143.22,4063.709 						"/>
						<polygon fill="#FAE778" points="294.861,4215.359 294.861,3912.068 143.22,4063.709 						"/>
						<polygon fill="#FBE14D" points="-8.431,4215.359 -8.431,3912.08 143.22,4063.709 						"/>
						<polygon fill="#FAE778" points="294.861,4215.359 -8.431,4215.359 143.22,4063.721 						"/>
						<polygon fill="#FAF1BC" points="294.861,4215.359 -8.431,4215.359 143.22,4367.006 						"/>
						<polygon fill="#FAE778" points="294.861,4518.654 294.861,4215.359 143.22,4367.006 						"/>
						<polygon fill="#FAE778" points="-8.431,4518.654 -8.431,4215.359 143.22,4367.006 						"/>
						<polygon fill="#FAE778" points="294.861,4518.654 -8.431,4518.654 143.22,4367.006 						"/>
					</g>
				</g>
				<g>
					<g opacity="0.6">
						<polygon fill="#FAE778" points="1811.296,3912.068 1508.017,3912.068 1659.646,4063.709 						"/>
						<polygon fill="#FAE778" points="1811.296,4215.359 1811.296,3912.068 1659.646,4063.709 						"/>
						<polygon fill="#FBE14D" points="1508.017,4215.359 1508.017,3912.08 1659.646,4063.709 						"/>
						<polygon fill="#FAE778" points="1811.296,4215.359 1508.017,4215.359 1659.646,4063.721 						"/>
						<polygon fill="#FBDE34" points="1811.296,4215.359 1508.017,4215.359 1659.646,4367.006 						"/>
						<polygon fill="#FAF1BC" points="1811.296,4518.654 1811.296,4215.359 1659.646,4367.006 						"/>
						<polygon fill="#FAF1B9" points="1508.017,4518.654 1508.017,4215.359 1659.646,4367.006 						"/>
						<polygon fill="#FAE778" points="1811.296,4518.654 1508.017,4518.654 1659.646,4367.006 						"/>
					</g>
				</g>
			</g>
			<g>
				<g>
					<g opacity="0.6">
						<polygon fill="#FAE778" points="2417.88,3912.08 2114.587,3912.08 2266.229,4063.721 						"/>
						<polygon fill="#FBDE34" points="2417.88,4215.371 2417.88,3912.08 2266.229,4063.721 						"/>
						<polygon fill="#FAE778" points="2114.587,4215.371 2114.587,3912.092 2266.229,4063.721 						"/>
						<polygon fill="#FAF1B9" points="2417.88,4215.371 2114.587,4215.371 2266.229,4063.732 						"/>
						<polygon fill="#FADD2F" points="2417.88,4215.371 2114.587,4215.371 2266.229,4367.018 						"/>
						<polygon fill="#FAE778" points="2417.88,4518.666 2417.88,4215.371 2266.229,4367.018 						"/>
						<polygon fill="#FAF1BC" points="2114.587,4518.666 2114.587,4215.371 2266.229,4367.018 						"/>
						<polygon fill="#FAE778" points="2417.88,4518.666 2114.587,4518.666 2266.229,4367.018 						"/>
						<polygon fill="#FAE778" points="2114.587,3912.08 1811.296,3912.08 1962.946,4063.721 						"/>
						<polygon fill="#FAE778" points="2114.587,4215.371 2114.587,3912.08 1962.946,4063.721 						"/>
						<polygon fill="#FBE14D" points="1811.296,4215.371 1811.296,3912.092 1962.946,4063.721 						"/>
						<polygon fill="#FAE778" points="2114.587,4215.371 1811.296,4215.371 1962.946,4063.732 						"/>
						<polygon fill="#FAF1BC" points="2114.587,4215.371 1811.296,4215.371 1962.946,4367.018 						"/>
						<polygon fill="#FAE778" points="2114.587,4518.666 2114.587,4215.371 1962.946,4367.018 						"/>
						<polygon fill="#FAE778" points="1811.296,4518.666 1811.296,4215.371 1962.946,4367.018 						"/>
						<polygon fill="#FAE778" points="2114.587,4518.666 1811.296,4518.666 1962.946,4367.018 						"/>
					</g>
				</g>
			</g>
		</g>
		<g>
			<g>
				<g>
					<g opacity="0.6">
						<polygon fill="#FAF1B9" points="1508.017,2395.644 1204.736,2395.644 1356.364,2547.285 						"/>
						<polygon fill="#FBDE34" points="1508.017,2698.935 1508.017,2395.644 1356.364,2547.285 						"/>
						<polygon fill="#FAE778" points="1204.736,2698.935 1204.736,2395.656 1356.364,2547.285 						"/>
						<polygon fill="#FAE778" points="1508.017,2698.935 1204.736,2698.935 1356.364,2547.296 						"/>
						<polygon fill="#FAF5DD" points="1508.017,2698.935 1204.736,2698.935 1356.364,2850.582 						"/>
						<polygon fill="#FAE778" points="1508.017,3002.23 1508.017,2698.935 1356.364,2850.582 						"/>
						<polygon fill="#FAF1BC" points="1508.017,3608.801 1508.017,3305.508 1356.364,3457.154 						"/>
						<polygon fill="#FBF4D0" points="1204.736,3002.23 1204.736,2698.935 1356.364,2850.582 						"/>
						<polygon fill="#FAE778" points="1508.017,3002.23 1204.736,3002.23 1356.364,2850.582 						"/>
						<polygon fill="#FBE14D" points="1508.017,3002.23 1204.736,3002.23 1356.364,3153.861 						"/>
						<polygon fill="#FAF1BC" points="1508.017,3305.508 1508.017,3002.23 1356.364,3153.861 						"/>
						<polygon fill="#FAE778" points="1204.736,3305.508 1204.736,3002.23 1356.364,3153.861 						"/>
						<polygon fill="#FAE778" points="1508.017,3305.508 1204.736,3305.508 1356.364,3153.861 						"/>
						<polygon fill="#FAE778" points="1508.017,3305.508 1204.736,3305.508 1356.364,3457.143 						"/>
						<polygon fill="#FAF1B9" points="1508.017,3608.812 1204.736,3608.801 1356.364,3457.154 						"/>
						<polygon fill="#FAF1B9" points="1508.017,3608.812 1204.736,3608.801 1356.364,3760.453 						"/>
						<polygon fill="#FAE778" points="1508.017,3912.08 1508.017,3608.801 1356.364,3760.453 						"/>
						<polygon fill="#FBDF3D" points="1204.736,3912.08 1204.736,3608.801 1356.364,3760.453 						"/>
						<polygon fill="#FAF1BC" points="1508.017,3912.08 1204.736,3912.08 1356.364,3760.453 						"/>
						<polygon fill="#FAE778" points="1204.736,3608.801 1204.736,3305.508 1356.364,3457.154 						"/>
						<polygon fill="#FADD2F" points="1204.736,2395.644 901.458,2395.644 1053.085,2547.285 						"/>
						<polygon fill="#FBDE34" points="1204.736,2698.935 1204.736,2395.644 1053.085,2547.285 						"/>
						<polygon fill="#FAE778" points="901.458,2698.935 901.458,2395.656 1053.085,2547.285 						"/>
						<polygon fill="#FBE14D" points="1204.736,2698.935 901.458,2698.935 1053.085,2547.296 						"/>
						<polygon fill="#FBDF3D" points="1204.736,2698.935 901.458,2698.935 1053.085,2850.582 						"/>
						<polygon fill="#FBE14D" points="1204.736,3002.23 1204.736,2698.935 1053.085,2850.582 						"/>
						<polygon fill="#FADD2F" points="1204.736,3608.801 1204.736,3305.508 1053.085,3457.154 						"/>
						<polygon fill="#FBDE34" points="901.458,3002.23 901.458,2698.935 1053.085,2850.582 						"/>
						<polygon fill="#FAF5DD" points="1204.736,3002.23 901.458,3002.23 1053.085,2850.582 						"/>
						<polygon fill="#FAE778" points="1204.736,3002.23 901.458,3002.23 1053.061,3153.861 						"/>
						<polygon fill="#FAE778" points="1204.736,3305.508 1204.736,3002.23 1053.085,3153.861 						"/>
						<polygon fill="#FAE778" points="901.458,3305.508 901.458,3002.23 1053.085,3153.861 						"/>
						<polygon fill="#FAF1B9" points="1204.736,3305.508 901.458,3305.508 1053.085,3153.861 						"/>
						<polygon fill="#FAF1BC" points="1204.736,3305.508 901.458,3305.508 1053.085,3457.143 						"/>
						<polygon fill="#FBE14D" points="1204.736,3608.812 901.458,3608.801 1053.085,3457.154 						"/>
						<polygon fill="#FBDE34" points="1204.736,3608.812 901.458,3608.801 1053.085,3760.453 						"/>
						<polygon fill="#FAF1BC" points="1204.736,3912.08 1204.736,3608.801 1053.085,3760.453 						"/>
						<polygon fill="#FAE778" points="901.458,3912.08 901.458,3608.801 1053.085,3760.453 						"/>
						<polygon fill="#FBE14D" points="1204.736,3912.08 901.458,3912.08 1053.085,3760.453 						"/>
						<polygon fill="#FAE778" points="901.458,3608.801 901.458,3305.508 1053.085,3457.154 						"/>
						<polygon fill="#FAE778" points="901.458,2395.644 598.152,2395.644 749.806,2547.285 						"/>
						<polygon fill="#FBDF3D" points="901.458,2698.935 901.458,2395.644 749.806,2547.285 						"/>
						<polygon fill="#FBE14D" points="598.152,2698.935 598.152,2395.656 749.781,2547.285 						"/>
						<polygon fill="#FAF1BC" points="901.458,2698.935 598.152,2698.935 749.806,2547.296 						"/>
						<polygon fill="#FAE778" points="901.458,2698.935 598.152,2698.935 749.806,2850.582 						"/>
						<polygon fill="#FAE778" points="901.458,3002.23 901.458,2698.935 749.806,2850.582 						"/>
						<polygon fill="#FAE778" points="901.458,3608.801 901.458,3305.508 749.806,3457.154 						"/>
						<polygon fill="#FAE778" points="598.152,3002.23 598.152,2698.935 749.806,2850.582 						"/>
						<polygon fill="#FBDE34" points="901.458,3002.23 598.152,3002.23 749.806,2850.582 						"/>
						<polygon fill="#FAF1BC" points="901.433,3002.23 598.152,3002.23 749.781,3153.861 						"/>
						<polygon fill="#FAE778" points="901.458,3305.508 901.458,3002.23 749.806,3153.861 						"/>
						<polygon fill="#FAE778" points="598.152,3305.508 598.152,3002.23 749.781,3153.861 						"/>
						<polygon fill="#FAE778" points="901.458,3305.508 598.152,3305.508 749.806,3153.861 						"/>
						<polygon fill="#FBF4D0" points="901.458,3305.508 598.152,3305.508 749.806,3457.143 						"/>
						<polygon fill="#FAE778" points="901.458,3608.812 598.152,3608.801 749.806,3457.154 						"/>
						<polygon fill="#FAF5DD" points="901.458,3608.812 598.152,3608.801 749.806,3760.453 						"/>
						<polygon fill="#FBF4D0" points="901.458,3912.08 901.458,3608.801 749.806,3760.453 						"/>
						<polygon fill="#FAE778" points="598.152,3912.08 598.152,3608.801 749.806,3760.453 						"/>
						<polygon fill="#FBE14D" points="901.458,3912.08 598.152,3912.08 749.806,3760.453 						"/>
						<polygon fill="#FBF4D0" points="598.152,3608.801 598.152,3305.508 749.806,3457.154 						"/>
						<polygon fill="#FAE778" points="598.152,2395.644 294.861,2395.644 446.501,2547.285 						"/>
						<polygon fill="#FBDE34" points="598.152,2698.935 598.152,2395.644 446.501,2547.285 						"/>
						<polygon fill="#FAE778" points="294.861,2698.935 294.861,2395.656 446.501,2547.285 						"/>
						<polygon fill="#FAF1B9" points="598.152,2698.935 294.861,2698.935 446.501,2547.296 						"/>
						<polygon fill="#FADD2F" points="598.152,2698.935 294.861,2698.935 446.501,2850.582 						"/>
						<polygon fill="#FAE778" points="598.152,3002.23 598.152,2698.935 446.501,2850.582 						"/>
						<polygon fill="#FAE778" points="598.152,3608.801 598.152,3305.508 446.501,3457.154 						"/>
						<polygon fill="#FAF1BC" points="294.861,3002.23 294.861,2698.935 446.501,2850.582 						"/>
						<polygon fill="#FAE778" points="598.152,3002.23 294.861,3002.23 446.501,2850.582 						"/>
						<polygon fill="#FAE778" points="598.128,3002.23 294.861,3002.23 446.501,3153.861 						"/>
						<polygon fill="#FADD2F" points="598.152,3305.508 598.152,3002.23 446.501,3153.861 						"/>
						<polygon fill="#FBE045" points="294.861,3305.508 294.861,3002.23 446.501,3153.861 						"/>
						<polygon fill="#FAF1B9" points="598.152,3305.508 294.861,3305.508 446.501,3153.861 						"/>
						<polygon fill="#FBDF3D" points="598.152,3305.508 294.861,3305.508 446.501,3457.143 						"/>
						<polygon fill="#FBF4D0" points="598.152,3608.812 294.861,3608.801 446.501,3457.154 						"/>
						<polygon fill="#FAE778" points="598.152,3608.812 294.861,3608.801 446.501,3760.453 						"/>
						<polygon fill="#FAF1B9" points="598.152,3912.08 598.152,3608.801 446.501,3760.453 						"/>
						<polygon fill="#FAE778" points="294.861,3912.08 294.861,3608.801 446.501,3760.453 						"/>
						<polygon fill="#FBDE34" points="598.152,3912.08 294.874,3912.08 446.501,3760.453 						"/>
						<polygon fill="#FAE778" points="294.861,3608.801 294.861,3305.508 446.501,3457.154 						"/>
						<polygon fill="#FAE778" points="294.861,2395.644 -8.431,2395.644 143.22,2547.285 						"/>
						<polygon fill="#FAE778" points="294.861,2698.935 294.861,2395.644 143.22,2547.285 						"/>
						<polygon fill="#FBE14D" points="-8.431,2698.935 -8.431,2395.656 143.22,2547.285 						"/>
						<polygon fill="#FAE778" points="294.861,2698.935 -8.431,2698.935 143.22,2547.296 						"/>
						<polygon fill="#FAF1BC" points="294.861,2698.935 -8.431,2698.935 143.22,2850.582 						"/>
						<polygon fill="#FAE778" points="294.861,3002.23 294.861,2698.935 143.22,2850.582 						"/>
						<polygon fill="#FAE778" points="294.861,3608.801 294.861,3305.508 143.22,3457.154 						"/>
						<polygon fill="#FAE778" points="-8.431,3002.23 -8.431,2698.935 143.22,2850.582 						"/>
						<polygon fill="#FAE778" points="294.861,3002.23 -8.431,3002.23 143.22,2850.582 						"/>
						<polygon fill="#FBDF3D" points="294.861,3002.23 -8.431,3002.23 143.209,3153.861 						"/>
						<polygon fill="#FAE778" points="294.861,3305.508 294.861,3002.23 143.22,3153.861 						"/>
						<polygon fill="#EDD133" points="-8.431,3305.508 -8.431,3002.23 143.22,3153.861 						"/>
						<polygon fill="#FBE14D" points="294.861,3305.508 -8.431,3305.508 143.22,3153.861 						"/>
						<polygon fill="#FAE778" points="294.861,3305.508 -8.431,3305.508 143.22,3457.143 						"/>
						<polygon fill="#FADD2F" points="294.861,3608.812 -8.431,3608.801 143.22,3457.154 						"/>
						<polygon fill="#FAF5DD" points="294.861,3608.812 -8.431,3608.801 143.22,3760.453 						"/>
						<polygon fill="#FBDE34" points="294.861,3912.08 294.861,3608.801 143.22,3760.453 						"/>
						<polygon fill="#FAE778" points="-8.431,3912.08 -8.431,3608.801 143.22,3760.453 						"/>
						<polygon fill="#FBDE34" points="294.861,3912.08 -8.431,3912.08 143.22,3760.453 						"/>
						<polygon fill="#FBE14D" points="-8.431,3608.801 -8.431,3305.508 143.22,3457.154 						"/>
					</g>
				</g>
				<g>
					<g opacity="0.6">
						<polygon fill="#FAE778" points="1811.296,2395.644 1508.017,2395.644 1659.646,2547.285 						"/>
						<polygon fill="#FAE778" points="1811.296,2698.935 1811.296,2395.644 1659.646,2547.285 						"/>
						<polygon fill="#FBE14D" points="1508.017,2698.935 1508.017,2395.656 1659.646,2547.285 						"/>
						<polygon fill="#FAE778" points="1811.296,2698.935 1508.017,2698.935 1659.646,2547.296 						"/>
						<polygon fill="#DFC432" points="1811.296,2698.935 1508.017,2698.935 1659.646,2850.582 						"/>
						<polygon fill="#FAE778" points="1811.296,3002.23 1811.296,2698.935 1659.646,2850.582 						"/>
						<polygon fill="#FAE778" points="1811.296,3608.801 1811.296,3305.508 1659.646,3457.154 						"/>
						<polygon fill="#FAE778" points="1508.017,3002.23 1508.017,2698.935 1659.646,2850.582 						"/>
						<polygon fill="#FAE778" points="1811.296,3002.23 1508.017,3002.23 1659.646,2850.582 						"/>
						<polygon fill="#FBDF3D" points="1811.296,3002.23 1508.017,3002.23 1659.646,3153.861 						"/>
						<polygon fill="#FAE778" points="1811.296,3305.508 1811.296,3002.23 1659.646,3153.861 						"/>
						<polygon fill="#EDD133" points="1508.017,3305.508 1508.017,3002.23 1659.646,3153.861 						"/>
						<polygon fill="#FBE14D" points="1811.296,3305.508 1508.017,3305.508 1659.646,3153.861 						"/>
						<polygon fill="#FAE778" points="1811.296,3305.508 1508.017,3305.508 1659.646,3457.143 						"/>
						<polygon fill="#FADD2F" points="1811.296,3608.812 1508.017,3608.801 1659.646,3457.154 						"/>
						<polygon fill="#FAF5DD" points="1811.296,3608.812 1508.017,3608.801 1659.646,3760.453 						"/>
						<polygon fill="#FBDE34" points="1811.296,3912.08 1811.296,3608.801 1659.646,3760.453 						"/>
						<polygon fill="#FAE778" points="1508.017,3912.08 1508.017,3608.801 1659.646,3760.453 						"/>
						<polygon fill="#FBDE34" points="1811.296,3912.08 1508.017,3912.08 1659.646,3760.453 						"/>
						<polygon fill="#FBE14D" points="1508.017,3608.801 1508.017,3305.508 1659.646,3457.154 						"/>
					</g>
				</g>
			</g>
			<g>
				<g>
					<g opacity="0.6">
						<polygon fill="#FAE778" points="2417.88,2395.656 2114.587,2395.656 2266.229,2547.296 						"/>
						<polygon fill="#FBDE34" points="2417.88,2698.947 2417.88,2395.656 2266.229,2547.296 						"/>
						<polygon fill="#FAE778" points="2114.587,2698.947 2114.587,2395.667 2266.229,2547.296 						"/>
						<polygon fill="#FAF1B9" points="2417.88,2698.947 2114.587,2698.947 2266.229,2547.308 						"/>
						<polygon fill="#FADD2F" points="2417.88,2698.947 2114.587,2698.947 2266.229,2850.594 						"/>
						<polygon fill="#FAE778" points="2417.88,3002.242 2417.88,2698.947 2266.229,2850.594 						"/>
						<polygon fill="#FAE778" points="2417.88,3608.812 2417.88,3305.52 2266.229,3457.166 						"/>
						<polygon fill="#FAF1BC" points="2114.587,3002.242 2114.587,2698.947 2266.229,2850.594 						"/>
						<polygon fill="#FAE778" points="2417.88,3002.242 2114.587,3002.242 2266.229,2850.594 						"/>
						<polygon fill="#FAE778" points="2417.856,3002.242 2114.587,3002.242 2266.229,3153.873 						"/>
						<polygon fill="#FADD2F" points="2417.88,3305.52 2417.88,3002.242 2266.229,3153.873 						"/>
						<polygon fill="#FBE045" points="2114.587,3305.52 2114.587,3002.242 2266.229,3153.873 						"/>
						<polygon fill="#FAF1B9" points="2417.88,3305.52 2114.587,3305.52 2266.229,3153.873 						"/>
						<polygon fill="#FBDF3D" points="2417.88,3305.52 2114.587,3305.52 2266.229,3457.154 						"/>
						<polygon fill="#FBF4D0" points="2417.88,3608.824 2114.587,3608.812 2266.229,3457.166 						"/>
						<polygon fill="#FAE778" points="2417.88,3608.824 2114.587,3608.812 2266.229,3760.465 						"/>
						<polygon fill="#FAF1B9" points="2417.88,3912.092 2417.88,3608.812 2266.229,3760.465 						"/>
						<polygon fill="#FAE778" points="2114.587,3912.092 2114.587,3608.812 2266.229,3760.465 						"/>
						<polygon fill="#FBDE34" points="2417.88,3912.092 2114.601,3912.092 2266.229,3760.465 						"/>
						<polygon fill="#FAE778" points="2114.587,3608.812 2114.587,3305.52 2266.229,3457.166 						"/>
						<polygon fill="#FAE778" points="2114.587,2395.656 1811.296,2395.656 1962.946,2547.296 						"/>
						<polygon fill="#FAE778" points="2114.587,2698.947 2114.587,2395.656 1962.946,2547.296 						"/>
						<polygon fill="#FBE14D" points="1811.296,2698.947 1811.296,2395.667 1962.946,2547.296 						"/>
						<polygon fill="#FAE778" points="2114.587,2698.947 1811.296,2698.947 1962.946,2547.308 						"/>
						<polygon fill="#FAF1BC" points="2114.587,2698.947 1811.296,2698.947 1962.946,2850.594 						"/>
						<polygon fill="#FAE778" points="2114.587,3002.242 2114.587,2698.947 1962.946,2850.594 						"/>
						<polygon fill="#FAE778" points="2114.587,3608.812 2114.587,3305.52 1962.946,3457.166 						"/>
						<polygon fill="#FAE778" points="1811.296,3002.242 1811.296,2698.947 1962.946,2850.594 						"/>
						<polygon fill="#FAE778" points="2114.587,3002.242 1811.296,3002.242 1962.946,2850.594 						"/>
						<polygon fill="#FBDF3D" points="2114.587,3002.242 1811.296,3002.242 1962.937,3153.873 						"/>
						<polygon fill="#FAE778" points="2114.587,3305.52 2114.587,3002.242 1962.946,3153.873 						"/>
						<polygon fill="#EDD133" points="1811.296,3305.52 1811.296,3002.242 1962.946,3153.873 						"/>
						<polygon fill="#FBE14D" points="2114.587,3305.52 1811.296,3305.52 1962.946,3153.873 						"/>
						<polygon fill="#FAE778" points="2114.587,3305.52 1811.296,3305.52 1962.946,3457.154 						"/>
						<polygon fill="#FADD2F" points="2114.587,3608.824 1811.296,3608.812 1962.946,3457.166 						"/>
						<polygon fill="#FAF5DD" points="2114.587,3608.824 1811.296,3608.812 1962.946,3760.465 						"/>
						<polygon fill="#FBDE34" points="2114.587,3912.092 2114.587,3608.812 1962.946,3760.465 						"/>
						<polygon fill="#FAE778" points="1811.296,3912.092 1811.296,3608.812 1962.946,3760.465 						"/>
						<polygon fill="#FBDE34" points="2114.587,3912.092 1811.296,3912.092 1962.946,3760.465 						"/>
						<polygon fill="#FBE14D" points="1811.296,3608.812 1811.296,3305.52 1962.946,3457.166 						"/>
					</g>
				</g>
			</g>
		</g>
	</g>
</g>
<text transform="matrix(1 0 0 1 245.6436 1077.147)" fill="#333333" font-family="'SourceSansPro-Bold'" font-size="310.5432">NODESCHOOL</text>
<g>
	<rect x="143.142" y="1182.246" fill="none" width="2123.091" height="410.712"/>
	<text transform="matrix(1 0 0 1 421.2148 1259.1406)"><tspan x="0" y="0" fill="#333333" font-family="'SourceSansPro-Regular'" font-size="108">Open source workshops that teach </tspan><tspan x="344.732" y="129.6" fill="#333333" font-family="'SourceSansPro-Regular'" font-size="108">web software skills. </tspan></text>
</g>
<g>
	<rect x="143.22" y="1711.88" fill="none" width="2122.937" height="579.042"/>
	<text transform="matrix(1 0 0 1 199.6582 1788.7754)"><tspan x="0" y="0" fill="#333333" font-family="'SourceSansPro-Regular'" font-size="108">NodeSchool is an open source project run by </tspan><tspan x="91.205" y="129.6" fill="#333333" font-family="'SourceSansPro-Regular'" font-size="108">volunteers with two goals: to create high </tspan><tspan x="2.807" y="259.2" fill="#333333" font-family="'SourceSansPro-Regular'" font-size="108">quality programming curriculum and to host </tspan><tspan x="375.616" y="388.8" fill="#333333" font-family="'SourceSansPro-Regular'" font-size="108">community learning events.</tspan></text>
</g>
<path fill="#101432" d="M1957.263,720.667h-210.621c-2.935,0-5.349-2.412-5.349-5.347V389.637c0-2.932,2.414-5.343,5.349-5.343
	h210.621c2.938,0,5.346,2.411,5.346,5.343v325.789C1962.503,718.36,1960.2,720.667,1957.263,720.667z M1751.879,710.081h200.041
	V394.982h-200.041V710.081z"/>
<path fill="#101432" d="M1932.954,394.982c-2.935,0-5.346-2.411-5.346-5.346v-37.198h-151.315v37.198
	c0,2.935-2.408,5.346-5.342,5.346c-2.937,0-5.344-2.411-5.344-5.346V347.2c0-2.936,2.407-5.346,5.344-5.346h162.003
	c2.933,0,5.344,2.411,5.344,5.346v42.437C1938.192,392.571,1935.887,394.982,1932.954,394.982z"/>
<path fill="#101432" d="M1877.833,516.746h-56.793c-1.889,0-3.669-1.047-4.611-2.62l-28.396-49.145
	c-0.946-1.678-0.946-3.669,0-5.344l28.396-49.146c0.942-1.678,2.723-2.619,4.611-2.619h56.793c1.889,0,3.668,1.047,4.615,2.619
	l28.396,49.146c0.943,1.675,0.943,3.666,0,5.344l-28.396,49.145C1881.501,515.699,1879.722,516.746,1877.833,516.746z
	 M1824.182,506.164h50.614l25.36-43.908l-25.36-43.907h-50.614l-25.36,43.907L1824.182,506.164z"/>
<path fill="#101432" d="M1849.438,516.746c-2.936,0-5.344-2.408-5.344-5.344v-98.396c0-2.936,2.408-5.344,5.344-5.344
	c2.934,0,5.343,2.409,5.343,5.344v98.396C1854.78,514.337,1852.371,516.746,1849.438,516.746z"/>
<path fill="#101432" d="M1906.232,467.601h-113.592c-2.934,0-5.342-2.41-5.342-5.344c0-2.936,2.408-5.344,5.342-5.344h113.592
	c2.935,0,5.346,2.408,5.346,5.344C1911.578,465.191,1909.165,467.601,1906.232,467.601z"/>
<path fill="#101432" d="M1893.345,445.175h-87.709c-2.937,0-5.346-2.408-5.346-5.343s2.413-5.344,5.346-5.344h87.709
	c2.932,0,5.343,2.409,5.343,5.344C1898.584,442.767,1896.276,445.175,1893.345,445.175z"/>
<path fill="#101432" d="M1893.345,488.244h-87.709c-2.937,0-5.346-2.412-5.346-5.344c0-2.935,2.413-5.343,5.346-5.343h87.709
	c2.932,0,5.343,2.409,5.343,5.343C1898.688,485.832,1896.276,488.244,1893.345,488.244z"/>
<path fill="#101432" d="M1933.161,658.106h-159.905c-2.935,0-5.345-2.409-5.345-5.344v-74.4c0-2.935,2.41-5.343,5.345-5.343h159.905
	c2.936,0,5.346,2.409,5.346,5.343v74.4C1938.404,655.803,1936.097,658.106,1933.161,658.106z M1778.494,647.524h149.324v-63.713
	h-149.324V647.524z"/>
<path fill="#101432" d="M1933.161,621.013h-159.905c-2.935,0-5.345-2.411-5.345-5.347c0-2.933,2.41-5.344,5.345-5.344h159.905
	c2.936,0,5.346,2.411,5.346,5.344C1938.404,618.602,1936.097,621.013,1933.161,621.013z"/>
<path fill="#101432" d="M1891.77,658.106c-2.934,0-5.342-2.409-5.342-5.344v-74.4c0-2.935,2.408-5.343,5.342-5.343
	c2.937,0,5.347,2.409,5.347,5.343v74.4C1897.116,655.803,1894.706,658.106,1891.77,658.106z"/>
<path fill="#101432" d="M1814.542,658.106c-2.936,0-5.343-2.409-5.343-5.344v-74.4c0-2.935,2.407-5.343,5.343-5.343
	c2.935,0,5.343,2.409,5.343,5.343v74.4C1819.78,655.803,1817.477,658.106,1814.542,658.106z"/>
<path fill="#101432" d="M1853.207,658.106c-2.932,0-5.343-2.409-5.343-5.344v-74.4c0-2.935,2.411-5.343,5.343-5.343
	c2.936,0,5.348,2.409,5.348,5.343v74.4C1858.447,655.803,1856.143,658.106,1853.207,658.106z"/>
<path fill="#101432" d="M1746.642,720.667h-210.628c-2.934,0-5.345-2.412-5.345-5.347V389.637c0-2.932,2.411-5.343,5.345-5.343
	h210.628c2.933,0,5.343,2.411,5.343,5.343v325.789C1751.879,718.36,1749.574,720.667,1746.642,720.667z M1541.253,710.081h200.04
	V394.982h-200.04V710.081z"/>
<path fill="#101432" d="M1722.223,394.982c-2.932,0-5.344-2.411-5.344-5.346v-37.198h-151.315v37.198
	c0,2.935-2.409,5.346-5.343,5.346s-5.342-2.411-5.342-5.346V347.2c0-2.936,2.408-5.346,5.342-5.346h162.002
	c2.935,0,5.344,2.411,5.344,5.346v42.437C1727.566,392.571,1725.157,394.982,1722.223,394.982z"/>
<path fill="#101432" d="M1667.209,516.746h-56.797c-1.885,0-3.665-1.047-4.607-2.62l-28.397-49.145
	c-0.945-1.678-0.945-3.669,0-5.344l28.397-49.146c0.942-1.678,2.723-2.619,4.607-2.619h56.797c1.887,0,3.668,1.047,4.611,2.619
	l28.399,49.146c0.94,1.675,0.94,3.666,0,5.344l-28.399,49.145C1670.877,515.699,1669.096,516.746,1667.209,516.746z
	 M1613.452,506.164h50.616l25.355-43.908l-25.355-43.907h-50.616l-25.358,43.907L1613.452,506.164z"/>
<path fill="#101432" d="M1638.813,516.746c-2.937,0-5.347-2.408-5.347-5.344v-98.396c0-2.936,2.41-5.344,5.347-5.344
	c2.931,0,5.343,2.409,5.343,5.344v98.396C1644.156,514.337,1641.744,516.746,1638.813,516.746z"/>
<path fill="#101432" d="M1695.604,467.601h-113.588c-2.934,0-5.342-2.41-5.342-5.344c0-2.936,2.408-5.344,5.342-5.344h113.588
	c2.937,0,5.346,2.408,5.346,5.344C1700.95,465.191,1698.541,467.601,1695.604,467.601z"/>
<path fill="#101432" d="M1682.719,445.175h-87.707c-2.937,0-5.346-2.408-5.346-5.343s2.409-5.344,5.346-5.344h87.707
	c2.934,0,5.343,2.409,5.343,5.344C1687.96,442.767,1685.652,445.175,1682.719,445.175z"/>
<path fill="#101432" d="M1682.719,488.244h-87.707c-2.937,0-5.346-2.412-5.346-5.344c0-2.935,2.409-5.343,5.346-5.343h87.707
	c2.934,0,5.343,2.409,5.343,5.343C1688.062,485.832,1685.652,488.244,1682.719,488.244z"/>
<path fill="#101432" d="M1722.433,658.106h-159.909c-2.932,0-5.342-2.409-5.342-5.344v-74.4c0-2.935,2.41-5.343,5.342-5.343h159.909
	c2.935,0,5.345,2.409,5.345,5.343v74.4C1727.777,655.803,1725.367,658.106,1722.433,658.106z M1567.87,647.524h149.323v-63.713
	H1567.87V647.524z"/>
<path fill="#101432" d="M1722.433,621.013h-159.909c-2.932,0-5.342-2.411-5.342-5.347c0-2.933,2.41-5.344,5.342-5.344h159.909
	c2.935,0,5.345,2.411,5.345,5.344C1727.777,618.602,1725.367,621.013,1722.433,621.013z"/>
<path fill="#101432" d="M1681.146,658.106c-2.934,0-5.345-2.409-5.345-5.344v-74.4c0-2.935,2.411-5.343,5.345-5.343
	s5.346,2.409,5.346,5.343v74.4C1686.491,655.803,1684.079,658.106,1681.146,658.106z"/>
<path fill="#101432" d="M1603.917,658.106c-2.934,0-5.342-2.409-5.342-5.344v-74.4c0-2.935,2.408-5.343,5.342-5.343
	s5.344,2.409,5.344,5.343v74.4C1609.156,655.803,1606.851,658.106,1603.917,658.106z"/>
<path fill="#101432" d="M1642.479,658.106c-2.937,0-5.345-2.409-5.345-5.344v-74.4c0-2.935,2.408-5.343,5.345-5.343
	c2.934,0,5.342,2.409,5.342,5.343v74.4C1647.821,655.803,1645.413,658.106,1642.479,658.106z"/>
<path fill="#101432" d="M1488.754,720.667c-2.932,0-5.346-2.412-5.346-5.347V244.506H925.934v470.92
	c0,2.935-2.412,5.343-5.344,5.343c-2.935,0-5.348-2.409-5.348-5.343V239.162c0-2.936,2.413-5.344,5.348-5.344h568.269
	c2.936,0,5.344,2.409,5.344,5.344v476.264C1494.1,718.36,1491.689,720.667,1488.754,720.667L1488.754,720.667z"/>
<path fill="#101432" d="M1453.439,373.71H964.81c-2.935,0-5.344-2.411-5.344-5.346v-58.367c0-2.934,2.409-5.344,5.344-5.344h488.525
	c2.936,0,5.344,2.41,5.344,5.344v58.367C1458.679,371.3,1456.375,373.71,1453.439,373.71z M970.154,363.126h477.943v-47.784H970.154
	V363.126L970.154,363.126z"/>
<path fill="#101432" d="M1419.803,604.768H998.447c-2.935,0-5.346-2.409-5.346-5.343V394.982H982.52
	c-2.936,0-5.345-2.411-5.345-5.346v-21.272c0-2.933,2.409-5.344,5.345-5.344c2.935,0,5.343,2.412,5.343,5.344v15.929h10.585
	c2.933,0,5.345,2.411,5.345,5.343v204.444h410.666V389.637c0-2.932,2.413-5.343,5.345-5.343h10.584v-15.929
	c0-2.933,2.408-5.344,5.346-5.344c2.935,0,5.343,2.412,5.343,5.344v21.272c0,2.935-2.408,5.346-5.343,5.346h-10.583v204.442
	C1425.044,602.359,1422.738,604.768,1419.803,604.768z"/>
<path fill="#101432" d="M1354.308,394.982c-2.931,0-5.342-2.411-5.342-5.346v-21.272c0-2.933,2.411-5.344,5.342-5.344
	c2.938,0,5.349,2.412,5.349,5.344v21.272C1359.552,392.571,1357.245,394.982,1354.308,394.982z"/>
<path fill="#101432" d="M1370.238,394.982h-15.931c-2.931,0-5.342-2.411-5.342-5.346c0-2.932,2.411-5.343,5.342-5.343h15.931
	c2.935,0,5.345,2.411,5.345,5.343C1375.478,392.571,1373.173,394.982,1370.238,394.982z"/>
<path fill="#101432" d="M1370.238,604.768c-2.936,0-5.344-2.409-5.344-5.343V389.637c0-2.932,2.408-5.343,5.344-5.343
	c2.935,0,5.345,2.411,5.345,5.343v209.788C1375.478,602.359,1373.173,604.768,1370.238,604.768z"/>
<path fill="#101432" d="M1065.721,394.982c-2.935,0-5.344-2.411-5.344-5.346v-21.272c0-2.933,2.409-5.344,5.344-5.344
	s5.345,2.412,5.345,5.344v21.272C1071.065,392.571,1068.655,394.982,1065.721,394.982z"/>
<path fill="#101432" d="M1065.721,394.982h-15.929c-2.933,0-5.344-2.411-5.344-5.346c0-2.932,2.411-5.343,5.344-5.343h15.929
	c2.935,0,5.345,2.411,5.345,5.343C1071.065,392.571,1068.655,394.982,1065.721,394.982z"/>
<path fill="#101432" d="M1049.792,604.768c-2.933,0-5.344-2.409-5.344-5.343V389.637c0-2.932,2.411-5.343,5.344-5.343
	c2.935,0,5.344,2.411,5.344,5.343v209.788C1055.136,602.359,1052.727,604.768,1049.792,604.768z"/>
<path fill="#101432" d="M1435.732,637.462H982.52c-2.936,0-5.345-2.409-5.345-5.344v-32.799c0-2.933,2.409-5.344,5.345-5.344
	h453.213c2.935,0,5.343,2.411,5.343,5.344v32.799C1440.97,635.158,1438.667,637.462,1435.732,637.462z M987.862,626.879h442.524
	v-22.111H987.862V626.879z"/>
<path fill="#101432" d="M1453.439,670.261H964.81c-2.935,0-5.344-2.408-5.344-5.344v-32.799c0-2.932,2.409-5.343,5.344-5.343
	h488.525c2.936,0,5.344,2.411,5.344,5.343v32.799C1458.679,667.853,1456.375,670.261,1453.439,670.261z M970.154,659.573h477.943
	v-22.111H970.154V659.573L970.154,659.573z"/>
<path fill="#101432" d="M1471.148,702.955H938.822c-2.936,0-5.344-2.409-5.344-5.343v-32.8c0-2.932,2.408-5.343,5.344-5.343h532.222
	c2.935,0,5.348,2.411,5.348,5.343v32.8C1476.392,700.651,1474.084,702.955,1471.148,702.955z M944.166,692.372h521.64v-22.111
	h-521.64V692.372L944.166,692.372z"/>
<path fill="#101432" d="M1488.754,735.753H920.59c-2.935,0-5.348-2.409-5.348-5.343v-32.799c0-2.932,2.413-5.344,5.348-5.344
	h568.269c2.936,0,5.344,2.412,5.344,5.344v32.799C1494.1,733.345,1491.689,735.753,1488.754,735.753L1488.754,735.753z
	 M925.934,725.066h557.58v-22.111h-557.58V725.066z"/>
<path fill="#101432" d="M1453.439,670.261c-2.934,0-5.342-2.408-5.342-5.344v-32.799c0-2.932,2.408-5.343,5.342-5.343
	c2.936,0,5.345,2.411,5.345,5.343v32.799C1458.679,667.853,1456.375,670.261,1453.439,670.261z"/>
<path fill="#101432" d="M1535.907,720.667h-47.153c-2.932,0-5.346-2.412-5.346-5.347V368.469c0-2.932,2.414-5.343,5.346-5.343
	h71.467c2.934,0,5.343,2.411,5.343,5.343v21.273c0,2.934-2.409,5.342-5.343,5.342s-5.342-2.408-5.342-5.342v-15.927h-60.884v336.371
	h41.807c2.936,0,5.35,2.409,5.35,5.344C1541.253,718.36,1538.841,720.667,1535.907,720.667z"/>
<path fill="#101432" d="M662.809,720.667H452.184c-2.935,0-5.344-2.412-5.344-5.347V389.637c0-2.932,2.409-5.343,5.344-5.343
	h210.625c2.935,0,5.343,2.411,5.343,5.343v325.789C668.151,718.36,665.743,720.667,662.809,720.667z M457.423,710.081h200.041
	V394.982H457.423V710.081z"/>
<path fill="#101432" d="M638.498,394.982c-2.936,0-5.344-2.411-5.344-5.346v-37.198H481.837v37.198c0,2.935-2.407,5.346-5.343,5.346
	c-2.933,0-5.344-2.411-5.344-5.346V347.2c0-2.936,2.411-5.346,5.344-5.346h162.004c2.935,0,5.344,2.411,5.344,5.346v42.437
	C643.736,392.571,641.433,394.982,638.498,394.982z"/>
<path fill="#101432" d="M588.304,516.746H531.51c-1.889,0-3.669-1.047-4.613-2.62L498.5,464.981c-0.943-1.678-0.943-3.669,0-5.344
	l28.396-49.146c0.944-1.678,2.725-2.619,4.613-2.619h56.794c1.888,0,3.668,1.047,4.611,2.619l28.397,49.146
	c0.944,1.675,0.944,3.666,0,5.344l-28.397,49.145C591.972,515.699,590.191,516.746,588.304,516.746z M534.547,506.164h50.614
	l25.358-43.908l-25.358-43.907h-50.614l-25.359,43.907L534.547,506.164z"/>
<path fill="#101432" d="M559.905,516.746c-2.935,0-5.343-2.408-5.343-5.344v-98.396c0-2.936,2.408-5.344,5.343-5.344
	c2.936,0,5.345,2.409,5.345,5.344v98.396C565.25,514.337,562.841,516.746,559.905,516.746z"/>
<path fill="#101432" d="M616.702,467.601H503.11c-2.933,0-5.344-2.41-5.344-5.344c0-2.936,2.411-5.344,5.344-5.344h113.592
	c2.935,0,5.344,2.408,5.344,5.344C622.046,465.191,619.637,467.601,616.702,467.601z"/>
<path fill="#101432" d="M603.813,445.175h-87.709c-2.935,0-5.345-2.408-5.345-5.343s2.41-5.344,5.345-5.344h87.709
	c2.933,0,5.344,2.409,5.344,5.344C609.052,442.767,606.746,445.175,603.813,445.175z"/>
<path fill="#101432" d="M603.813,488.244h-87.709c-2.935,0-5.345-2.412-5.345-5.344c0-2.935,2.41-5.343,5.345-5.343h87.709
	c2.933,0,5.344,2.409,5.344,5.343C609.157,485.832,606.746,488.244,603.813,488.244z"/>
<path fill="#101432" d="M636.191,658.106H476.286c-2.935,0-5.347-2.409-5.347-5.344v-74.4c0-2.935,2.412-5.343,5.347-5.343h159.905
	c2.935,0,5.344,2.409,5.344,5.343v74.4C641.433,655.803,639.126,658.106,636.191,658.106z M481.524,647.524h149.324v-63.713H481.524
	V647.524z"/>
<path fill="#101432" d="M636.191,621.013H476.286c-2.935,0-5.347-2.411-5.347-5.347c0-2.933,2.412-5.344,5.347-5.344h159.905
	c2.935,0,5.344,2.411,5.344,5.344C641.433,618.602,639.126,621.013,636.191,621.013z"/>
<path fill="#101432" d="M517.571,658.106c-2.935,0-5.344-2.409-5.344-5.344v-74.4c0-2.935,2.409-5.343,5.344-5.343
	c2.936,0,5.344,2.409,5.344,5.343v74.4C522.915,655.803,520.507,658.106,517.571,658.106z"/>
<path fill="#101432" d="M594.906,658.106c-2.935,0-5.344-2.409-5.344-5.344v-74.4c0-2.935,2.409-5.343,5.344-5.343
	c2.933,0,5.344,2.409,5.344,5.343v74.4C600.146,655.803,597.839,658.106,594.906,658.106z"/>
<path fill="#101432" d="M556.237,658.106c-2.933,0-5.343-2.409-5.343-5.344v-74.4c0-2.935,2.41-5.343,5.343-5.343
	c2.935,0,5.347,2.409,5.347,5.343v74.4C561.479,655.803,559.172,658.106,556.237,658.106z"/>
<path fill="#101432" d="M873.436,720.667H662.809c-2.933,0-5.345-2.412-5.345-5.347V389.637c0-2.932,2.412-5.343,5.345-5.343
	h210.627c2.932,0,5.342,2.411,5.342,5.343v325.789C878.777,718.36,876.367,720.667,873.436,720.667z M668.151,710.081h200.042
	V394.982H668.151V710.081z"/>
<path fill="#101432" d="M849.121,394.982c-2.932,0-5.343-2.411-5.343-5.346v-37.198H692.465v37.198c0,2.935-2.413,5.346-5.346,5.346
	c-2.935,0-5.345-2.411-5.345-5.346V347.2c0-2.936,2.41-5.346,5.345-5.346h162.002c2.936,0,5.345,2.411,5.345,5.346v42.437
	C854.363,392.571,852.057,394.982,849.121,394.982z"/>
<path fill="#101432" d="M798.929,516.746h-56.795c-1.886,0-3.669-1.047-4.61-2.62l-28.399-49.145c-0.941-1.678-0.941-3.669,0-5.344
	l28.399-49.146c0.941-1.678,2.725-2.619,4.61-2.619h56.795c1.887,0,3.667,1.047,4.611,2.619l28.396,49.146
	c0.944,1.675,0.944,3.666,0,5.344l-28.396,49.145C802.596,515.699,800.815,516.746,798.929,516.746z M745.275,506.164h50.614
	l25.359-43.908l-25.359-43.907h-50.614l-25.355,43.907L745.275,506.164z"/>
<path fill="#101432" d="M770.529,516.746c-2.932,0-5.342-2.408-5.342-5.344v-98.396c0-2.936,2.41-5.344,5.342-5.344
	c2.936,0,5.348,2.409,5.348,5.344v98.396C775.877,514.337,773.465,516.746,770.529,516.746z"/>
<path fill="#101432" d="M827.326,467.601h-113.59c-2.934,0-5.346-2.41-5.346-5.344c0-2.936,2.412-5.344,5.346-5.344h113.59
	c2.935,0,5.344,2.408,5.344,5.344C832.67,465.191,830.261,467.601,827.326,467.601z"/>
<path fill="#101432" d="M814.438,445.175h-87.706c-2.936,0-5.347-2.408-5.347-5.343s2.411-5.344,5.347-5.344h87.706
	c2.935,0,5.345,2.409,5.345,5.344C819.676,442.767,817.372,445.175,814.438,445.175L814.438,445.175z"/>
<path fill="#101432" d="M814.438,488.244h-87.706c-2.936,0-5.347-2.412-5.347-5.344c0-2.935,2.411-5.343,5.347-5.343h87.706
	c2.935,0,5.345,2.409,5.345,5.343C819.782,485.832,817.372,488.244,814.438,488.244L814.438,488.244z"/>
<path fill="#101432" d="M846.818,658.106H686.91c-2.935,0-5.344-2.409-5.344-5.344v-74.4c0-2.935,2.409-5.343,5.344-5.343h159.908
	c2.932,0,5.344,2.409,5.344,5.343v74.4C852.162,655.803,849.75,658.106,846.818,658.106z M692.253,647.524h149.324v-63.713H692.253
	V647.524z"/>
<path fill="#101432" d="M846.818,621.013H686.91c-2.935,0-5.344-2.411-5.344-5.347c0-2.933,2.409-5.344,5.344-5.344h159.908
	c2.932,0,5.344,2.411,5.344,5.344C852.162,618.602,849.75,621.013,846.818,621.013z"/>
<path fill="#101432" d="M728.196,658.106c-2.933,0-5.345-2.409-5.345-5.344v-74.4c0-2.935,2.412-5.343,5.345-5.343
	c2.935,0,5.345,2.409,5.345,5.343v74.4C733.541,655.803,731.131,658.106,728.196,658.106z"/>
<path fill="#101432" d="M805.53,658.106c-2.935,0-5.344-2.409-5.344-5.344v-74.4c0-2.935,2.409-5.343,5.344-5.343
	s5.344,2.409,5.344,5.343v74.4C810.874,655.803,808.465,658.106,805.53,658.106z"/>
<path fill="#101432" d="M766.864,658.106c-2.935,0-5.344-2.409-5.344-5.344v-74.4c0-2.935,2.409-5.343,5.344-5.343
	s5.344,2.409,5.344,5.343v74.4C772.208,655.803,769.799,658.106,766.864,658.106z"/>
<path fill="#101432" d="M920.59,720.667h-47.154c-2.937,0-5.345-2.412-5.345-5.347c0-2.932,2.408-5.343,5.345-5.343h41.807V373.605
	h-60.879v15.927c0,2.934-2.412,5.346-5.347,5.346c-2.932,0-5.343-2.412-5.343-5.346v-21.27c0-2.935,2.411-5.347,5.343-5.347h71.468
	c2.932,0,5.345,2.412,5.345,5.347v347.164C925.934,718.36,923.521,720.667,920.59,720.667L920.59,720.667z"/>
<path fill="#101432" d="M1267.859,603.304h-115.478c-1.887,0-3.67-1.049-4.61-2.622l-57.635-99.967
	c-0.941-1.678-0.941-3.669,0-5.346l57.739-99.967c0.942-1.677,2.725-2.619,4.609-2.619h115.374c1.886,0,3.67,1.046,4.611,2.619
	l57.738,99.967c0.944,1.677,0.944,3.668,0,5.346l-57.738,99.967C1271.423,602.359,1269.745,603.304,1267.859,603.304
	L1267.859,603.304z M1155.523,592.718h109.296l54.595-94.625l-54.595-94.624h-109.296l-54.595,94.624L1155.523,592.718
	L1155.523,592.718z"/>
<path fill="#101432" d="M1165.48,603.304c-2.936,0-5.344-2.412-5.344-5.347V398.126c0-2.935,2.408-5.344,5.344-5.344
	s5.343,2.409,5.343,5.344v199.936C1170.719,600.997,1168.416,603.304,1165.48,603.304z"/>
<path fill="#101432" d="M1253.922,603.304c-2.934,0-5.347-2.412-5.347-5.347V398.126c0-2.935,2.413-5.344,5.347-5.344
	s5.348,2.409,5.348,5.344v199.936C1259.27,600.997,1256.855,603.304,1253.922,603.304z"/>
<path fill="#101432" d="M1165.48,503.439h-70.734c-2.933,0-5.344-2.411-5.344-5.347c0-2.933,2.411-5.344,5.344-5.344h70.734
	c2.936,0,5.343,2.412,5.343,5.344C1170.719,501.028,1168.416,503.439,1165.48,503.439z"/>
<path fill="#101432" d="M1325.495,503.439h-71.573c-2.934,0-5.347-2.411-5.347-5.347c0-2.933,2.413-5.344,5.347-5.344h71.573
	c2.932,0,5.344,2.412,5.344,5.344C1330.839,501.028,1328.427,503.439,1325.495,503.439z"/>
<path fill="#101432" d="M1165.48,457.854h-44.431c-2.935,0-5.345-2.409-5.345-5.344c0-2.932,2.41-5.343,5.345-5.343h44.431
	c2.936,0,5.343,2.412,5.343,5.343C1170.823,455.445,1168.416,457.854,1165.48,457.854z"/>
<path fill="#101432" d="M1299.193,457.854h-42.858c-2.935,0-5.347-2.409-5.347-5.344c0-2.932,2.412-5.343,5.347-5.343h42.858
	c2.934,0,5.342,2.412,5.342,5.343C1304.535,455.445,1302.127,457.854,1299.193,457.854z"/>
<path fill="#101432" d="M1165.48,545.353h-44.431c-2.935,0-5.345-2.408-5.345-5.343c0-2.933,2.41-5.345,5.345-5.345h44.431
	c2.936,0,5.343,2.412,5.343,5.345C1170.719,542.944,1168.416,545.353,1165.48,545.353z"/>
<path fill="#101432" d="M1299.193,545.353h-45.271c-2.934,0-5.347-2.408-5.347-5.343c0-2.933,2.413-5.345,5.347-5.345h45.271
	c2.934,0,5.342,2.412,5.342,5.345C1304.535,542.944,1302.127,545.353,1299.193,545.353z"/>
<path fill="#101432" d="M1211.168,519.471c-6.499,0-11.843-5.345-11.843-11.84c0-6.498,5.344-11.842,11.843-11.842
	c6.496,0,11.841,5.344,11.841,11.842C1223.009,514.126,1217.664,519.471,1211.168,519.471z M1211.168,506.477
	c-0.629,0-1.153,0.525-1.153,1.154c0,0.628,0.524,1.152,1.153,1.152c0.63,0,1.151-0.523,1.151-1.152
	C1212.319,507.002,1211.798,506.477,1211.168,506.477z"/>
<path fill="#101432" d="M1054.301,263.367c0-1.781,1.467-3.248,3.246-3.248h0.629c1.572,0,2.515,0.733,3.354,1.885l12.575,16.557
	v-15.403c0-1.783,1.468-3.25,3.248-3.25c1.781,0,3.248,1.467,3.248,3.25v23.681c0,1.781-1.467,3.248-3.248,3.248h-0.211
	c-1.571,0-2.514-0.734-3.353-1.885l-13.099-17.186v15.929c0,1.78-1.468,3.248-3.248,3.248s-3.248-1.468-3.248-3.248v-23.579
	H1054.301z M1086.471,275.209c0-8.489,6.705-15.403,15.82-15.403c9.223,0,15.719,6.812,15.719,15.298v0.105
	c0,8.488-6.706,15.402-15.821,15.402C1093.071,290.403,1086.471,283.592,1086.471,275.209z M1111.304,275.209
	c0-5.134-3.772-9.431-9.013-9.431c-5.238,0-8.907,4.191-8.907,9.22v0.105c0,5.135,3.773,9.326,9.013,9.326
	C1107.637,284.429,1111.304,280.239,1111.304,275.209z M1123.879,263.472c0-1.78,1.468-3.248,3.249-3.248h8.277
	c9.325,0,15.823,6.394,15.823,14.774v0.105c0,8.383-6.498,14.879-15.823,14.879h-8.277c-1.781,0-3.249-1.467-3.249-3.249V263.472z
	 M1135.511,284.01c5.344,0,8.907-3.562,8.907-8.907v-0.105c0-5.238-3.563-9.012-8.907-9.012h-5.031v17.919h5.031V284.01z
	 M1157.097,286.63v-23.158c0-1.78,1.467-3.248,3.247-3.248h16.452c1.573,0,2.936,1.362,2.936,2.935c0,1.57-1.362,2.932-2.936,2.932
	h-13.202v6.078h11.422c1.572,0,2.936,1.363,2.936,2.935c0,1.573-1.363,2.935-2.936,2.935h-11.319v6.288h13.416
	c1.569,0,2.933,1.362,2.933,2.933c0,1.573-1.363,2.935-2.933,2.935h-16.662C1158.563,289.983,1157.097,288.516,1157.097,286.63z
	 M1184.971,286.84c-0.734-0.523-1.257-1.467-1.257-2.411c0-1.676,1.361-3.038,3.039-3.038c0.836,0,1.465,0.312,1.885,0.628
	c2.201,1.677,4.716,2.725,7.65,2.725c2.725,0,4.295-1.047,4.295-2.83v-0.106c0-1.675-1.048-2.513-5.972-3.771
	c-5.974-1.573-9.853-3.145-9.853-9.118v-0.105c0-5.344,4.298-9.01,10.374-9.01c3.564,0,6.707,0.941,9.432,2.619
	c0.733,0.418,1.468,1.362,1.468,2.619c0,1.676-1.363,3.038-3.037,3.038c-0.629,0-1.155-0.208-1.679-0.418
	c-2.201-1.257-4.192-1.991-6.287-1.991c-2.514,0-3.771,1.152-3.771,2.619v0.105c0,1.991,1.258,2.619,6.393,3.876
	c6.078,1.573,9.43,3.774,9.43,8.908v0.105c0,5.867-4.506,9.222-10.897,9.222C1192.305,290.403,1188.322,289.147,1184.971,286.84z
	 M1211.48,275.209c0-8.489,6.394-15.403,15.512-15.403c4.504,0,7.438,1.151,9.951,3.037c0.629,0.524,1.26,1.468,1.26,2.62
	c0,1.783-1.467,3.145-3.248,3.145c-0.942,0-1.467-0.315-1.991-0.628c-1.782-1.362-3.771-2.096-6.079-2.096
	c-5.028,0-8.592,4.192-8.592,9.22v0.105c0,5.133,3.563,9.325,8.592,9.325c2.725,0,4.611-0.837,6.498-2.304
	c0.525-0.421,1.153-0.733,1.992-0.733c1.674,0,3.037,1.361,3.037,3.037c0,1.049-0.521,1.783-1.15,2.306
	c-2.726,2.307-5.871,3.771-10.587,3.771C1217.979,290.403,1211.48,283.697,1211.48,275.209L1211.48,275.209z M1244.177,263.262
	c0-1.78,1.468-3.249,3.249-3.249c1.779,0,3.249,1.468,3.249,3.249v8.699h12.048v-8.699c0-1.78,1.468-3.249,3.252-3.249
	c1.779,0,3.246,1.468,3.246,3.249v23.684c0,1.78-1.467,3.248-3.246,3.248c-1.784,0-3.252-1.468-3.252-3.248v-8.908h-12.048v8.908
	c0,1.78-1.47,3.248-3.249,3.248c-1.781,0-3.249-1.468-3.249-3.248V263.262z M1275.09,275.209c0-8.489,6.708-15.403,15.822-15.403
	c9.223,0,15.719,6.812,15.719,15.298v0.105c0,8.488-6.705,15.402-15.823,15.402C1281.694,290.403,1275.09,283.592,1275.09,275.209z
	 M1299.926,275.209c0-5.134-3.772-9.431-9.014-9.431c-5.238,0-8.905,4.191-8.905,9.22v0.105c0,5.135,3.772,9.326,9.011,9.326
	C1296.257,284.429,1299.926,280.239,1299.926,275.209z M1311.241,275.209c0-8.489,6.708-15.403,15.823-15.403
	c9.224,0,15.721,6.812,15.721,15.298v0.105c0,8.488-6.709,15.402-15.824,15.402C1317.844,290.403,1311.241,283.592,1311.241,275.209
	z M1335.971,275.209c0-5.134-3.77-9.431-9.01-9.431c-5.239,0-8.907,4.191-8.907,9.22v0.105c0,5.135,3.773,9.326,9.011,9.326
	C1332.305,284.429,1335.971,280.239,1335.971,275.209z M1348.653,263.262c0-1.78,1.465-3.249,3.246-3.249
	c1.782,0,3.25,1.468,3.25,3.249v20.749h12.049c1.679,0,2.935,1.362,2.935,2.936c0,1.57-1.362,2.932-2.935,2.932h-15.403
	c-1.779,0-3.245-1.465-3.245-3.248v-23.368H1348.653z"/>
<path fill="#101432" d="M1419.174,344.475H995.513c-2.934,0-5.344-2.412-5.344-5.347c0-2.933,2.41-5.343,5.344-5.343h423.661
	c2.937,0,5.347,2.411,5.347,5.343C1424.521,342.063,1422.11,344.475,1419.174,344.475z"/>
<path fill="#101432" d="M686.91,373.71h-48.412c-2.936,0-5.344-2.411-5.344-5.346c0-2.933,2.408-5.344,5.344-5.344h48.412
	c2.935,0,5.343,2.412,5.343,5.344C692.253,371.3,689.845,373.71,686.91,373.71z"/>
<path fill="#101432" d="M1770.845,373.71h-48.412c-2.935,0-5.343-2.411-5.343-5.346c0-2.933,2.408-5.344,5.343-5.344h48.412
	c2.936,0,5.343,2.412,5.343,5.344C1776.188,371.3,1773.78,373.71,1770.845,373.71z"/>
<g>
	<rect x="419.524" y="5258.579" fill="none" width="2123.091" height="410.711"/>
	<text transform="matrix(1 0 0 1 717.8994 5335.4736)"><tspan x="0" y="0" fill="#333333" font-family="'SourceSansPro-Regular'" font-size="108">NodeSchool Amsterdam is hosted</tspan><tspan x="286.465" y="129.601" fill="#333333" font-family="'SourceSansPro-Regular'" font-size="108">by {{ sponsor name}}.</tspan></text>
</g>
<g>
	<path fill="#FBDE34" d="M1204.73,4401.592c-2.996,0-5.946-0.789-8.538-2.299L399.68,3939.444c-5.25-3.043-8.526-8.712-8.526-14.775
		v-919.737c0-6.087,3.276-11.732,8.526-14.753l796.513-459.894c2.592-1.487,5.542-2.276,8.538-2.276
		c2.984,0,5.949,0.789,8.527,2.276l796.512,459.87c5.252,3.044,8.525,8.689,8.525,14.776v919.737c0,6.063-3.273,11.732-8.525,14.752
		l-796.512,459.872C1210.653,4400.803,1207.714,4401.592,1204.73,4401.592z"/>
	<g>
		<path fill="#FBDE34" stroke="#343433" stroke-width="47.5759" stroke-miterlimit="10" d="M1204.73,4311.783
			c-2.717,0-5.366-0.721-7.712-2.066l-720.167-415.78c-4.739-2.739-7.712-7.85-7.712-13.334v-831.581
			c0-5.504,2.973-10.613,7.712-13.334l720.167-415.8c2.346-1.35,4.995-2.071,7.712-2.071c2.695,0,5.367,0.721,7.712,2.071
			l720.156,415.777c4.738,2.743,7.689,7.853,7.689,13.356v831.581c0,5.484-2.951,10.595-7.689,13.334l-720.156,415.78
			C1210.097,4311.062,1207.425,4311.783,1204.73,4311.783z"/>
		<path fill="#343433" d="M1497.608,4003.863c-1.973-3.437-6.344-4.6-9.756-2.623l-254.908,147.186l108.414-138.315
			c2.439-3.112,1.883-7.594-1.229-10.013c-3.09-2.437-7.574-1.901-10.014,1.188l-118.393,151.092v-147.678
			c0-3.925-3.207-7.133-7.156-7.133c-3.926,0-7.132,3.208-7.132,7.133v147.678l-118.406-151.092c-2.44-3.089-6.9-3.624-10.012-1.188
			c-3.112,2.419-3.648,6.9-1.232,10.013l108.417,138.315L916.58,3998.52c-3.416-1.948-7.782-0.79-9.733,2.623
			c-1.974,3.419-0.812,7.762,2.601,9.734l291.566,168.331c0.071,0.046,0.14,0.069,0.21,0.092c0.255,0.138,0.511,0.255,0.79,0.347
			c0.069,0.046,0.139,0.096,0.232,0.142c0.069,0.022,0.163,0,0.231,0.046c0.116,0.023,0.256,0.068,0.372,0.114
			c0.558,0.141,1.138,0.21,1.697,0.21l0.023,0.022l0,0l0,0l0.023-0.022c0.582,0,1.139-0.069,1.695-0.21
			c0.139-0.022,0.232-0.091,0.372-0.114c0.161-0.046,0.304-0.113,0.466-0.188c0.277-0.092,0.533-0.209,0.812-0.347
			c0.07-0.022,0.139-0.046,0.209-0.092l286.861-165.612C1498.421,4011.621,1499.581,4007.277,1497.608,4003.863z"/>
		<path fill="#343433" d="M911.353,2925.646c1.976,3.426,6.342,4.588,9.758,2.613l254.931-147.175l-108.44,138.312
			c-2.417,3.104-1.882,7.597,1.232,10.026c3.089,2.414,7.573,1.881,10.012-1.209l118.406-151.081v147.655
			c0,3.948,3.206,7.141,7.13,7.141c3.95,0,7.155-3.192,7.155-7.141v-147.655l118.418,151.081c2.414,3.09,6.898,3.635,10.012,1.209
			c3.092-2.43,3.648-6.922,1.209-10.026l-108.418-138.312l259.625,149.894c3.414,1.961,7.781,0.802,9.756-2.612
			c1.975-3.417,0.791-7.772-2.625-9.749l-291.555-168.328c-0.068-0.034-0.139-0.057-0.207-0.091
			c-0.256-0.141-0.512-0.244-0.789-0.348c-0.07-0.038-0.143-0.095-0.232-0.129c-0.071-0.023-0.165-0.011-0.234-0.034
			c-0.139-0.046-0.254-0.091-0.395-0.13c-0.558-0.137-1.115-0.217-1.672-0.217l-0.047-0.012l0,0l0,0v0.012
			c-0.58,0-1.162,0.08-1.718,0.217c-0.117,0.026-0.233,0.084-0.349,0.118c-0.163,0.046-0.302,0.114-0.464,0.175
			c-0.28,0.104-0.536,0.207-0.814,0.348c-0.069,0.034-0.139,0.057-0.208,0.091l-286.851,165.624
			C910.563,2917.873,909.401,2922.232,911.353,2925.646z"/>
		<path fill="#343433" d="M1532.964,3990.411c0,4.95-3.994,8.943-8.918,8.943c-4.951,0-8.945-3.993-8.945-8.943
			c0-4.925,3.994-8.943,8.945-8.943C1528.97,3981.468,1532.964,3985.486,1532.964,3990.411z"/>
		<path fill="#343433" d="M893.674,3988.6c0,4.95-3.995,8.943-8.943,8.943c-4.924,0-8.944-3.993-8.944-8.943
			c0-4.924,4.021-8.945,8.944-8.945C889.679,3979.654,893.674,3983.676,893.674,3988.6z"/>
		<path fill="#231F20" d="M1039.375,3995.709l-10.593-35.497c-0.719-2.461-0.185-4.783,1.789-6.458l0.419-0.347
			c1.974-1.696,4.273-1.812,6.596-0.721l33.405,16.054c0.676,0.301,1.209,0.647,1.604,1.112c1.65,1.932,1.463,4.741-0.441,6.39
			c-1.696,1.441-3.647,1.418-5.575,0.466l-6.598-3.276l-14.402,12.312l2.3,7.319c0.58,1.925,0.069,3.809-1.417,5.088
			c-1.882,1.601-4.6,1.346-6.203-0.535C1039.841,3997.105,1039.562,3996.43,1039.375,3995.709z M1051.875,3969.365l-13.753-6.944
			l4.693,14.68L1051.875,3969.365z"/>
		<path fill="#231F20" d="M1182.777,3922.811c0-2.623,2.092-4.712,4.739-4.712h1.046c2.02,0,3.438,1.043,4.297,2.458l11.454,18.633
			l11.499-18.701c0.975-1.601,2.324-2.39,4.229-2.39h1.045c2.648,0,4.727,2.089,4.727,4.712v34.221c0,2.624-2.078,4.714-4.727,4.714
			c-2.578,0-4.67-2.136-4.67-4.714v-21.467l-8.293,12.778c-0.998,1.487-2.23,2.414-3.949,2.414c-1.72,0-2.95-0.927-3.926-2.414
			l-8.178-12.612v21.415c0,2.578-2.09,4.6-4.668,4.6c-2.603,0-4.624-2.021-4.624-4.6V3922.811z"/>
		<path fill="#231F20" d="M1349.073,3969.717c-0.373-1.21-0.117-2.743,0.789-3.906c1.533-1.926,4.252-2.204,6.18-0.695
			c0.975,0.768,1.395,1.626,1.604,2.37c1.09,3.879,2.973,7.246,6.271,9.824c3.043,2.419,5.83,2.624,7.385,0.652l0.072-0.095
			c1.488-1.881,1.092-3.761-3.439-9.661c-5.434-7.087-8.34-12.431-3.066-19.166l0.072-0.094c4.83-6.135,12.961-6.318,19.861-0.883
			c4.111,3.231,6.852,7.109,8.385,11.454c0.42,1.113,0.465,2.789-0.674,4.227c-1.533,1.93-4.25,2.208-6.201,0.697
			c-0.721-0.579-1.139-1.231-1.465-2.021c-1.322-3.392-2.996-6.042-5.318-7.854c-2.834-2.251-5.367-2.113-6.666-0.489l-0.072,0.118
			c-1.742,2.206-0.859,4.09,3.787,10.176c5.459,7.202,7.41,12.706,2.764,18.606l-0.068,0.094
			c-5.299,6.713-13.381,6.459-20.676,0.695C1354.136,3980.285,1350.724,3975.384,1349.073,3969.717z"/>
		<path fill="#343433" d="M964.667,3009.287c2.788,0,5.017-2.242,5.017-5.02v-24.715l20.326,26.645
			c1.372,1.766,2.834,2.961,5.273,2.961h0.326c2.834,0,5.088-2.239,5.088-5.073v-36.751c0-2.767-2.254-5.008-5.018-5.008
			c-2.765,0-5.019,2.241-5.019,5.008v23.821l-19.583-25.729c-1.394-1.789-2.834-2.971-5.272-2.971h-1.068
			c-2.835,0-5.087,2.242-5.087,5.087v36.726C959.65,3007.045,961.902,3009.287,964.667,3009.287z"/>
		<path fill="#343433" d="M1034.242,3009.68c14.239,0,24.578-10.744,24.578-23.88v-0.114c0-13.139-10.222-23.753-24.462-23.753
			c-14.24,0-24.6,10.743-24.6,23.867v0.142C1009.758,2999.065,1019.979,3009.68,1034.242,3009.68z M1020.374,2985.686
			c0-7.922,5.668-14.394,13.869-14.394c8.154,0,13.984,6.599,13.984,14.508v0.142c0,7.922-5.69,14.379-13.868,14.379
			c-8.177,0-13.984-6.599-13.984-14.521V2985.686z"/>
		<path fill="#343433" d="M1072.99,3008.902h12.916c14.521,0,24.532-10.104,24.532-23.103v-0.114
			c0-13.01-10.011-22.963-24.532-22.963h-12.916c-2.833,0-5.088,2.253-5.088,5.076v36.015
			C1067.902,3006.652,1070.157,3008.902,1072.99,3008.902z M1078.055,2971.898h7.851c8.294,0,13.916,5.725,13.916,13.901v0.142
			c0,8.177-5.622,13.783-13.916,13.783h-7.851V2971.898z"/>
		<path fill="#343433" d="M1124.585,3008.902h25.925c2.51,0,4.554-1.983,4.554-4.493c0-2.511-2.044-4.554-4.554-4.554h-20.906v-9.7
			h17.606c2.51,0,4.555-1.963,4.555-4.47c0-2.509-2.044-4.553-4.555-4.553h-17.606v-9.375h20.582c2.508,0,4.553-1.977,4.553-4.482
			c0-2.498-2.044-4.553-4.553-4.553h-25.601c-2.834,0-5.063,2.253-5.063,5.076v36.015
			C1119.521,3006.652,1121.75,3008.902,1124.585,3008.902z"/>
		<path fill="#343433" d="M1162.799,3004.013c5.158,3.695,11.289,5.542,17.354,5.542c9.965,0,16.957-5.146,16.957-14.321v-0.131
			c0-8.048-5.273-11.404-14.657-13.856c-7.968-2.033-9.943-3.032-9.943-6.049v-0.142c0-2.253,2.044-4.019,5.923-4.019
			c3.183,0,6.343,1.117,9.711,3.088c0.791,0.479,1.581,0.733,2.58,0.733c2.624,0,4.739-2.056,4.739-4.691
			c0-1.976-1.116-3.356-2.232-4.02c-4.157-2.625-9.035-4.089-14.657-4.089c-9.432,0-16.147,5.541-16.147,13.917v0.138
			c0,9.164,5.995,11.743,15.287,14.1c7.735,2,9.291,3.312,9.291,5.878v0.142c0,2.703-2.485,4.355-6.642,4.355
			c-4.485,0-8.316-1.59-11.825-4.158c-0.651-0.465-1.579-0.93-2.879-0.93c-2.649,0-4.764,2.043-4.764,4.69
			C1160.894,3001.77,1161.685,3003.222,1162.799,3004.013z"/>
		<path fill="#343433" d="M1227.624,3009.68c7.365,0,12.242-2.17,16.4-5.792c0.93-0.802,1.719-2.046,1.719-3.637
			c0-2.57-2.184-4.683-4.738-4.683c-1.209,0-2.254,0.465-3.043,1.128c-2.904,2.302-5.738,3.624-10.012,3.624
			c-7.934,0-13.393-6.599-13.393-14.521v-0.114c0-7.922,5.598-14.394,13.393-14.394c3.623,0,6.572,1.187,9.43,3.312
			c0.721,0.452,1.648,0.986,3.021,0.986c2.764,0,5.018-2.182,5.018-4.946c0-1.788-0.93-3.241-1.975-4.02
			c-3.834-2.846-8.527-4.691-15.449-4.691c-14.182,0-24.077,10.743-24.077,23.867v0.142
			C1203.918,2999.191,1214.022,3009.68,1227.624,3009.68z"/>
		<path fill="#343433" d="M1259.751,3009.287c2.859,0,5.088-2.242,5.088-5.076v-13.846h18.748v13.846
			c0,2.834,2.229,5.076,5.062,5.076s5.064-2.242,5.064-5.076v-36.809c0-2.835-2.23-5.076-5.064-5.076s-5.062,2.241-5.062,5.076
			v13.588h-18.748v-13.588c0-2.835-2.229-5.076-5.088-5.076c-2.834,0-5.062,2.241-5.062,5.076v36.809
			C1254.688,3007.045,1256.917,3009.287,1259.751,3009.287z"/>
		<path fill="#343433" d="M1327.259,3009.68c14.24,0,24.602-10.744,24.602-23.88v-0.114c0-13.139-10.221-23.753-24.463-23.753
			c-14.238,0-24.6,10.743-24.6,23.867v0.142C1302.798,2999.065,1313.021,3009.68,1327.259,3009.68z M1313.415,2985.686
			c0-7.922,5.668-14.394,13.844-14.394c8.201,0,14.01,6.599,14.01,14.508v0.142c0,7.922-5.693,14.379-13.871,14.379
			c-8.176,0-13.982-6.599-13.982-14.521V2985.686z"/>
		<path fill="#343433" d="M1383.36,3009.68c14.264,0,24.6-10.744,24.6-23.88v-0.114c0-13.139-10.221-23.753-24.459-23.753
			c-14.264,0-24.604,10.743-24.604,23.867v0.142C1358.897,2999.065,1369.097,3009.68,1383.36,3009.68z M1369.515,2985.686
			c0-7.922,5.67-14.394,13.846-14.394c8.178,0,13.984,6.599,13.984,14.508v0.142c0,7.922-5.666,14.379-13.844,14.379
			s-13.986-6.599-13.986-14.521V2985.686z"/>
		<path fill="#343433" d="M1422.11,3008.902h23.879c2.58,0,4.625-2.056,4.625-4.635c0-2.566-2.045-4.6-4.625-4.6h-18.793v-32.266
			c0-2.835-2.23-5.076-5.086-5.076c-2.834,0-5.088,2.241-5.088,5.076v36.411C1417.022,3006.652,1419.276,3008.902,1422.11,3008.902z
			"/>
		
			<polyline fill="none" stroke="#343433" stroke-width="15.3686" stroke-linecap="round" stroke-linejoin="round" stroke-miterlimit="10" points="
			1001.581,3092.94 1030.154,3092.94 1062.467,3185.117 1001.65,3185.117 1080.423,3185.117 1080.423,3195.56 1072.851,3195.56 
			1072.851,3851.192 		"/>
		
			<polyline fill="none" stroke="#343433" stroke-width="15.3686" stroke-linecap="round" stroke-linejoin="round" stroke-miterlimit="10" points="
			915.301,3092.94 886.729,3092.94 854.415,3185.117 915.233,3185.117 840.082,3185.117 840.082,3851.192 632.194,3851.192 		"/>
		<g>
			<g>
				
					<rect x="866.587" y="3336.045" fill="none" stroke="#343433" stroke-width="15.3686" stroke-linecap="round" stroke-linejoin="round" stroke-miterlimit="10" width="45.183" height="94.004"/>
				
					<line fill="none" stroke="#343433" stroke-width="15.3686" stroke-linecap="round" stroke-linejoin="round" stroke-miterlimit="10" x1="872.93" y1="3365.018" x2="905.429" y2="3365.018"/>
				
					<line fill="none" stroke="#343433" stroke-width="3.8422" stroke-miterlimit="10" x1="866.494" y1="3425.381" x2="911.77" y2="3425.381"/>
			</g>
			<g>
				
					<rect x="1006.458" y="3336.045" fill="none" stroke="#343433" stroke-width="15.3686" stroke-linecap="round" stroke-linejoin="round" stroke-miterlimit="10" width="45.16" height="94.004"/>
				
					<line fill="none" stroke="#343433" stroke-width="15.3686" stroke-linecap="round" stroke-linejoin="round" stroke-miterlimit="10" x1="1012.776" y1="3365.018" x2="1045.276" y2="3365.018"/>
				
					<line fill="none" stroke="#343433" stroke-width="3.8422" stroke-miterlimit="10" x1="1006.365" y1="3425.381" x2="1051.618" y2="3425.381"/>
			</g>
			<g>
				
					<rect x="936.535" y="3336.045" fill="none" stroke="#343433" stroke-width="15.3686" stroke-linecap="round" stroke-linejoin="round" stroke-miterlimit="10" width="45.16" height="94.004"/>
				
					<line fill="none" stroke="#343433" stroke-width="15.3686" stroke-linecap="round" stroke-linejoin="round" stroke-miterlimit="10" x1="942.854" y1="3365.018" x2="975.354" y2="3365.018"/>
				
					<line fill="none" stroke="#343433" stroke-width="3.8422" stroke-miterlimit="10" x1="936.418" y1="3425.381" x2="981.695" y2="3425.381"/>
			</g>
		</g>
		<g>
			<g>
				
					<rect x="866.587" y="3478.67" fill="none" stroke="#343433" stroke-width="15.3686" stroke-linecap="round" stroke-linejoin="round" stroke-miterlimit="10" width="45.183" height="93.989"/>
				
					<line fill="none" stroke="#343433" stroke-width="15.3686" stroke-linecap="round" stroke-linejoin="round" stroke-miterlimit="10" x1="872.93" y1="3507.638" x2="905.429" y2="3507.638"/>
				
					<line fill="none" stroke="#343433" stroke-width="3.8422" stroke-miterlimit="10" x1="866.494" y1="3568.014" x2="911.77" y2="3568.014"/>
			</g>
			<g>
				
					<rect x="1006.458" y="3478.67" fill="none" stroke="#343433" stroke-width="15.3686" stroke-linecap="round" stroke-linejoin="round" stroke-miterlimit="10" width="45.16" height="93.989"/>
				
					<line fill="none" stroke="#343433" stroke-width="15.3686" stroke-linecap="round" stroke-linejoin="round" stroke-miterlimit="10" x1="1012.776" y1="3507.638" x2="1045.276" y2="3507.638"/>
				
					<line fill="none" stroke="#343433" stroke-width="3.8422" stroke-miterlimit="10" x1="1006.365" y1="3568.014" x2="1051.618" y2="3568.014"/>
			</g>
			<g>
				
					<rect x="936.535" y="3478.67" fill="none" stroke="#343433" stroke-width="15.3686" stroke-linecap="round" stroke-linejoin="round" stroke-miterlimit="10" width="45.16" height="93.989"/>
				
					<line fill="none" stroke="#343433" stroke-width="15.3686" stroke-linecap="round" stroke-linejoin="round" stroke-miterlimit="10" x1="942.854" y1="3507.638" x2="975.354" y2="3507.638"/>
				
					<line fill="none" stroke="#343433" stroke-width="3.8422" stroke-miterlimit="10" x1="936.418" y1="3568.014" x2="981.695" y2="3568.014"/>
			</g>
		</g>
		<g>
			
				<polyline fill="none" stroke="#343433" stroke-width="15.3686" stroke-linecap="round" stroke-linejoin="round" stroke-miterlimit="10" points="
				942.574,3720.753 942.574,3641.654 986.086,3641.654 986.086,3751.396 			"/>
			
				<line fill="none" stroke="#343433" stroke-width="15.3686" stroke-linecap="round" stroke-linejoin="round" stroke-miterlimit="10" x1="947.917" y1="3685.607" x2="980.743" y2="3685.607"/>
		</g>
		<g>
			
				<polygon fill="none" stroke="#343433" stroke-width="15.3686" stroke-linecap="round" stroke-linejoin="round" stroke-miterlimit="10" points="
				1053.686,3773.115 1018.33,3773.115 1010.153,3767.471 1010.153,3641.654 1053.686,3641.654 			"/>
			
				<line fill="none" stroke="#343433" stroke-width="15.3686" stroke-linecap="round" stroke-linejoin="round" stroke-miterlimit="10" x1="1015.519" y1="3685.607" x2="1048.319" y2="3685.607"/>
		</g>
		
			<line fill="none" stroke="#343433" stroke-width="15.3686" stroke-linecap="round" stroke-linejoin="round" stroke-miterlimit="10" x1="918.647" y1="3720.753" x2="918.647" y2="3679.962"/>
		
			<line fill="none" stroke="#343433" stroke-width="15.3686" stroke-linecap="round" stroke-linejoin="round" stroke-miterlimit="10" x1="867.122" y1="3744.893" x2="867.122" y2="3773.115"/>
		
			<path fill="none" stroke="#343433" stroke-width="15.3686" stroke-linecap="round" stroke-linejoin="round" stroke-miterlimit="10" d="
			M918.647,3679.962v-18.724c0,0-3.252-21.231-26.065-21.231c-22.811,0-25.46,21.231-25.46,21.231v18.724v40.791"/>
		
			<line fill="none" stroke="#343433" stroke-width="15.3686" stroke-linecap="round" stroke-linejoin="round" stroke-miterlimit="10" x1="873.464" y1="3685.607" x2="912.306" y2="3685.607"/>
		
			<line fill="none" stroke="#343433" stroke-width="15.3686" stroke-linecap="round" stroke-linejoin="round" stroke-miterlimit="10" x1="840.082" y1="3613.244" x2="1072.851" y2="3613.244"/>
		
			<path fill="none" stroke="#343433" stroke-width="15.3686" stroke-linecap="round" stroke-linejoin="round" stroke-miterlimit="10" d="
			M1021.721,3805.104l5.715,4.391l-0.094,0.162c5.273,4.066,12.848,3.091,16.911-2.207c4.066-5.271,3.066-12.868-2.206-16.935
			l-99.008-69.762H867.03c-6.667,0-12.058,5.411-12.058,12.078c0,6.671,5.391,12.062,12.058,12.062v-0.188h34.543"/>
		
			<path fill="none" stroke="#343433" stroke-width="15.3686" stroke-linecap="round" stroke-linejoin="round" stroke-miterlimit="10" d="
			M867.122,3773.115h77.729v11.034h15.099v11.012h15.123v11.033h15.102v11.012h15.123v11.033h15.1v11.015h15.122v11.938
			 M867.122,3768.146v83.047h168.397"/>
		
			<path fill="none" stroke="#343433" stroke-width="15.3686" stroke-linecap="round" stroke-linejoin="round" stroke-miterlimit="10" d="
			M1265.604,3851.192v-90.343c0-13.17-18.305-23.88-40.92-23.88c-22.603,0-40.931,10.71-40.931,23.88v90.343H1265.604z"/>
		
			<path fill="none" stroke="#343433" stroke-width="15.3686" stroke-linecap="round" stroke-linejoin="round" stroke-miterlimit="10" d="
			M1286.745,3851.192v-672.22h7.225v-35.124h-3.926v-7.757h83.559c0-21.233,25.043-37.819,45.719-38.159h11.5
			c20.674,0.34,45.74,16.926,45.74,38.159h83.561v7.757h-3.928v35.124h7.227v672.22h215.439"/>
		
			<line fill="none" stroke="#343433" stroke-width="15.3686" stroke-linecap="round" stroke-linejoin="round" stroke-miterlimit="10" x1="1427.661" y1="3743.474" x2="1427.661" y2="3851.192"/>
		
			<polygon fill="none" stroke="#343433" stroke-width="15.3686" stroke-linecap="round" stroke-linejoin="round" stroke-miterlimit="10" points="
			1131.392,3625.997 1112.065,3625.997 1112.065,3631.502 1117.315,3634.754 1117.315,3715.92 1241.19,3715.92 1241.19,3634.754 
			1246.464,3631.502 1246.464,3625.997 		"/>
		
			<line fill="none" stroke="#343433" stroke-width="15.3686" stroke-linecap="round" stroke-linejoin="round" stroke-miterlimit="10" x1="1202.036" y1="3625.997" x2="1202.036" y2="3708.814"/>
		
			<line fill="none" stroke="#343433" stroke-width="15.3686" stroke-linecap="round" stroke-linejoin="round" stroke-miterlimit="10" x1="1158.315" y1="3625.997" x2="1158.315" y2="3708.814"/>
		
			<line fill="none" stroke="#343433" stroke-width="15.3686" stroke-linecap="round" stroke-linejoin="round" stroke-miterlimit="10" x1="1234.36" y1="3659.729" x2="1123.54" y2="3659.729"/>
		
			<polygon fill="none" stroke="#343433" stroke-width="15.3686" stroke-linecap="round" stroke-linejoin="round" stroke-miterlimit="10" points="
			1115.643,3388.686 1096.313,3388.686 1096.313,3394.205 1101.588,3397.432 1101.588,3478.602 1158.758,3478.602 
			1158.758,3397.432 1164.008,3394.205 1164.008,3388.686 		"/>
		
			<line fill="none" stroke="#343433" stroke-width="15.3686" stroke-linecap="round" stroke-linejoin="round" stroke-miterlimit="10" x1="1158.758" y1="3422.417" x2="1101.588" y2="3422.417"/>
		
			<polygon fill="none" stroke="#343433" stroke-width="15.3686" stroke-linecap="round" stroke-linejoin="round" stroke-miterlimit="10" points="
			1227.438,3388.686 1199.409,3388.686 1199.409,3394.205 1204.685,3397.432 1204.685,3478.602 1259.798,3478.602 
			1259.798,3397.432 1265.048,3394.205 1265.048,3388.686 		"/>
		
			<line fill="none" stroke="#343433" stroke-width="15.3686" stroke-linecap="round" stroke-linejoin="round" stroke-miterlimit="10" x1="1259.798" y1="3422.417" x2="1204.685" y2="3422.417"/>
		
			<polygon fill="none" stroke="#343433" stroke-width="15.3686" stroke-linecap="round" stroke-linejoin="round" stroke-miterlimit="10" points="
			1115.643,3506.383 1096.313,3506.383 1096.313,3511.891 1101.588,3515.117 1101.588,3596.287 1158.758,3596.287 
			1158.758,3515.117 1164.008,3511.891 1164.008,3506.383 		"/>
		
			<line fill="none" stroke="#343433" stroke-width="15.3686" stroke-linecap="round" stroke-linejoin="round" stroke-miterlimit="10" x1="1158.758" y1="3540.09" x2="1101.588" y2="3540.09"/>
		
			<polygon fill="none" stroke="#343433" stroke-width="15.3686" stroke-linecap="round" stroke-linejoin="round" stroke-miterlimit="10" points="
			1227.438,3506.383 1199.409,3506.383 1199.409,3511.891 1204.685,3515.117 1204.685,3596.287 1259.798,3596.287 
			1259.798,3515.117 1265.048,3511.891 1265.048,3506.383 		"/>
		
			<line fill="none" stroke="#343433" stroke-width="15.3686" stroke-linecap="round" stroke-linejoin="round" stroke-miterlimit="10" x1="1259.798" y1="3540.09" x2="1204.685" y2="3540.09"/>
		
			<polygon fill="none" stroke="#343433" stroke-width="15.3686" stroke-linecap="round" stroke-linejoin="round" stroke-miterlimit="10" points="
			1112.761,3742.871 1093.434,3742.871 1093.434,3748.374 1098.707,3751.604 1098.707,3851.192 1155.876,3851.192 
			1155.876,3751.604 1161.127,3748.374 1161.127,3742.871 		"/>
		
			<line fill="none" stroke="#343433" stroke-width="15.3686" stroke-linecap="round" stroke-linejoin="round" stroke-miterlimit="10" x1="1265.604" y1="3773.394" x2="1184.798" y2="3773.394"/>
		
			<line fill="none" stroke="#343433" stroke-width="15.3686" stroke-linecap="round" stroke-linejoin="round" stroke-miterlimit="10" x1="1224.685" y1="3851.192" x2="1224.685" y2="3773.394"/>
		
			<line fill="none" stroke="#343433" stroke-width="15.3686" stroke-linecap="round" stroke-linejoin="round" stroke-miterlimit="10" x1="1155.876" y1="3773.394" x2="1105.327" y2="3773.394"/>
		<g>
			<g>
				<g>
					
						<path fill="none" stroke="#343433" stroke-width="15.3686" stroke-linecap="round" stroke-linejoin="round" stroke-miterlimit="10" d="
						M1357.296,3851.192v-104.328c0.303-1.205-14.541-3.391-20.512-3.391c-5.994,0-20.838,2.186-20.514,3.391v104.328H1357.296z"/>
				</g>
			</g>
			<g>
				<g>
					
						<path fill="none" stroke="#343433" stroke-width="15.3686" stroke-linecap="round" stroke-linejoin="round" stroke-miterlimit="10" d="
						M1538.472,3851.192v-104.328c0.324-1.205-14.521-3.391-20.514-3.391c-5.971,0-20.816,2.186-20.512,3.391v104.328H1538.472z"/>
				</g>
			</g>
			<g>
				<g>
					
						<path fill="none" stroke="#343433" stroke-width="15.3686" stroke-linecap="round" stroke-linejoin="round" stroke-miterlimit="10" d="
						M1471.382,3851.192v-104.328c0.672-1.205-30.967-3.391-43.721-3.391c-12.73,0-44.393,2.186-43.721,3.391v104.328H1471.382z"/>
				</g>
			</g>
		</g>
		<g>
			<g>
				<g>
					<g>
						
							<path fill="none" stroke="#343433" stroke-width="15.3686" stroke-linecap="round" stroke-linejoin="round" stroke-miterlimit="10" d="
							M1541.444,3435.984v-9.166l-8.689-3.658v-155.714c0.674-2.067-31.152-5.725-43.975-5.725s-44.65,3.657-43.953,5.725v155.714
							l-8.711,3.658v9.166H1541.444z"/>
					</g>
				</g>
				<g>
					<g>
						
							<path fill="none" stroke="#343433" stroke-width="15.3686" stroke-linecap="round" stroke-linejoin="round" stroke-miterlimit="10" d="
							M1414.05,3435.984v-9.166l-8.713-3.658v-155.714c0.695-2.067-31.129-5.725-43.953-5.725c-12.822,0-44.646,3.657-43.975,5.725
							v155.714l-8.688,3.658v9.166H1414.05z"/>
					</g>
				</g>
			</g>
			
				<line fill="none" stroke="#343433" stroke-width="15.3686" stroke-linecap="round" stroke-linejoin="round" stroke-miterlimit="10" x1="1444.827" y1="3301.003" x2="1532.755" y2="3301.003"/>
			
				<line fill="none" stroke="#343433" stroke-width="15.3686" stroke-linecap="round" stroke-linejoin="round" stroke-miterlimit="10" x1="1317.409" y1="3301.003" x2="1405.337" y2="3301.003"/>
		</g>
		<g>
			<g>
				<g>
					<g>
						
							<path fill="none" stroke="#343433" stroke-width="15.3686" stroke-linecap="round" stroke-linejoin="round" stroke-miterlimit="10" d="
							M1541.444,3659.729v-9.155l-8.689-3.669v-155.713c0.674-2.068-31.152-5.74-43.975-5.74s-44.65,3.672-43.953,5.74v155.713
							l-8.711,3.669v9.155H1541.444z"/>
					</g>
				</g>
				<g>
					<g>
						
							<path fill="none" stroke="#343433" stroke-width="15.3686" stroke-linecap="round" stroke-linejoin="round" stroke-miterlimit="10" d="
							M1414.05,3659.729v-9.155l-8.713-3.669v-155.713c0.695-2.068-31.129-5.74-43.953-5.74c-12.822,0-44.646,3.672-43.975,5.74
							v155.713l-8.688,3.669v9.155H1414.05z"/>
					</g>
				</g>
			</g>
			
				<line fill="none" stroke="#343433" stroke-width="15.3686" stroke-linecap="round" stroke-linejoin="round" stroke-miterlimit="10" x1="1444.827" y1="3524.758" x2="1532.755" y2="3524.758"/>
			
				<line fill="none" stroke="#343433" stroke-width="15.3686" stroke-linecap="round" stroke-linejoin="round" stroke-miterlimit="10" x1="1317.409" y1="3524.758" x2="1405.337" y2="3524.758"/>
		</g>
		
			<line fill="none" stroke="#231F20" stroke-width="15.3686" stroke-linecap="round" stroke-linejoin="round" stroke-miterlimit="10" x1="1292.159" y1="3717.061" x2="1563.421" y2="3717.061"/>
		
			<polyline fill="none" stroke="#343433" stroke-width="15.3686" stroke-linecap="round" stroke-linejoin="round" stroke-miterlimit="10" points="
			1002.58,3087.84 959.161,3069.011 958.65,3069.011 915.233,3087.84 		"/>
		
			<polyline fill="none" stroke="#343433" stroke-width="15.3686" stroke-linecap="round" stroke-linejoin="round" stroke-miterlimit="10" points="
			1001.581,3087.84 1001.581,3190.357 915.301,3190.357 915.301,3087.84 		"/>
		<g>
			<g>
				
					<rect x="866.587" y="3211.022" fill="none" stroke="#343433" stroke-width="15.3686" stroke-linecap="round" stroke-linejoin="round" stroke-miterlimit="10" width="45.183" height="93.988"/>
				
					<line fill="none" stroke="#343433" stroke-width="15.3686" stroke-linecap="round" stroke-linejoin="round" stroke-miterlimit="10" x1="872.93" y1="3239.978" x2="905.429" y2="3239.978"/>
				
					<line fill="none" stroke="#343433" stroke-width="3.8422" stroke-miterlimit="10" x1="866.494" y1="3300.354" x2="911.77" y2="3300.354"/>
			</g>
			<g>
				
					<rect x="1006.458" y="3211.022" fill="none" stroke="#343433" stroke-width="15.3686" stroke-linecap="round" stroke-linejoin="round" stroke-miterlimit="10" width="45.16" height="93.988"/>
				
					<line fill="none" stroke="#343433" stroke-width="15.3686" stroke-linecap="round" stroke-linejoin="round" stroke-miterlimit="10" x1="1012.776" y1="3239.978" x2="1045.276" y2="3239.978"/>
				
					<line fill="none" stroke="#343433" stroke-width="3.8422" stroke-miterlimit="10" x1="1006.365" y1="3300.354" x2="1051.618" y2="3300.354"/>
			</g>
			<g>
				
					<rect x="936.535" y="3211.022" fill="none" stroke="#343433" stroke-width="15.3686" stroke-linecap="round" stroke-linejoin="round" stroke-miterlimit="10" width="45.16" height="93.988"/>
				
					<line fill="none" stroke="#343433" stroke-width="15.3686" stroke-linecap="round" stroke-linejoin="round" stroke-miterlimit="10" x1="942.854" y1="3239.978" x2="975.354" y2="3239.978"/>
				
					<line fill="none" stroke="#343433" stroke-width="3.8422" stroke-miterlimit="10" x1="936.418" y1="3300.354" x2="981.695" y2="3300.354"/>
			</g>
		</g>
		
			<path fill="none" stroke="#343433" stroke-width="15.3686" stroke-linecap="round" stroke-linejoin="round" stroke-miterlimit="10" d="
			M1286.56,3279.234h-15.217l-52.373-111.228v-29.78h4.391v-11.186h1.58c-20.628-25.412-43.464-22.986-43.464-22.986h-3.555
			c0,0-22.812-2.426-43.44,22.986h1.556v11.186h4.39v29.78l-52.059,111.228h-15.518"/>
		
			<polygon fill="none" stroke="#343433" stroke-width="15.3686" stroke-linecap="round" stroke-linejoin="round" stroke-miterlimit="10" points="
			1131.392,3271.022 1112.065,3271.022 1112.065,3276.543 1117.315,3279.769 1117.315,3360.938 1241.19,3360.938 1241.19,3279.769 
			1246.464,3276.543 1246.464,3271.022 		"/>
		
			<rect x="1280.286" y="3188.613" fill="none" stroke="#343433" stroke-width="15.3686" stroke-linecap="round" stroke-linejoin="round" stroke-miterlimit="10" width="289.592" height="23.416"/>
		
			<line fill="none" stroke="#343433" stroke-width="15.3686" stroke-linecap="round" stroke-linejoin="round" stroke-miterlimit="10" x1="1202.036" y1="3271.022" x2="1202.036" y2="3353.83"/>
		
			<line fill="none" stroke="#343433" stroke-width="15.3686" stroke-linecap="round" stroke-linejoin="round" stroke-miterlimit="10" x1="1158.315" y1="3271.022" x2="1158.315" y2="3353.83"/>
		
			<line fill="none" stroke="#343433" stroke-width="15.3686" stroke-linecap="round" stroke-linejoin="round" stroke-miterlimit="10" x1="1234.36" y1="3304.744" x2="1123.54" y2="3304.744"/>
		
			<polygon fill="none" stroke="#343433" stroke-width="15.3686" stroke-linecap="round" stroke-linejoin="round" stroke-miterlimit="10" points="
			1168.979,3187.813 1162.452,3187.813 1162.452,3193.316 1167.725,3196.548 1167.725,3243.229 1192.626,3243.229 
			1192.626,3196.548 1197.901,3193.316 1197.901,3187.813 		"/>
		
			<line fill="none" stroke="#231F20" stroke-width="15.3686" stroke-linecap="round" stroke-linejoin="round" stroke-miterlimit="10" x1="1001.581" y1="3108.586" x2="915.301" y2="3108.586"/>
	</g>
</g>
<circle fill="#838588" cx="391.215" cy="5357.203" r="242.951"/>
</svg>
