<?xml version="1.0" encoding="utf-8"?>
<!-- Generator: Adobe Illustrator 16.0.0, SVG Export Plug-In . SVG Version: 6.00 Build 0)  -->
<!DOCTYPE svg PUBLIC "-//W3C//DTD SVG 1.1//EN" "http://www.w3.org/Graphics/SVG/1.1/DTD/svg11.dtd">
<svg version="1.1" id="Layer_1" xmlns="http://www.w3.org/2000/svg" xmlns:xlink="http://www.w3.org/1999/xlink" x="0px" y="0px"
	 width="297.64px" height="841.89px" viewBox="0 0 297.64 841.89" enable-background="new 0 0 297.64 841.89" xml:space="preserve">
<rect x="-30.647" y="-44.991" fill="#FFFFFF" width="692" height="918"/>
<g>
	<g>
		<g>
			<g>
				<g>
					<g>
						<g opacity="0.6">
							<polygon fill="#FAF1B9" points="185.923,74.293 148.755,74.293 167.338,92.879 							"/>
							<polygon fill="#FBDE34" points="185.923,111.464 185.923,74.293 167.338,92.879 							"/>
							<polygon fill="#FAE778" points="148.755,111.464 148.755,74.294 167.338,92.879 							"/>
							<polygon fill="#FAE778" points="185.923,111.464 148.755,111.464 167.338,92.881 							"/>
							<polygon fill="#FAF5DD" points="185.923,111.464 148.755,111.464 167.338,130.051 							"/>
							<polygon fill="#FAE778" points="185.923,148.638 185.923,111.464 167.338,130.051 							"/>
							<polygon fill="#FBF4D0" points="148.755,148.638 148.755,111.464 167.338,130.051 							"/>
							<polygon fill="#FAE778" points="185.923,148.638 148.755,148.638 167.338,130.051 							"/>
							<polygon fill="#DFC432" points="148.755,74.293 111.584,74.293 130.167,92.879 							"/>
							<polygon fill="#FBDE34" points="148.755,111.464 148.755,74.293 130.167,92.879 							"/>
							<polygon fill="#FAE778" points="111.584,111.464 111.584,74.294 130.167,92.879 							"/>
							<polygon fill="#FBE14D" points="148.755,111.464 111.584,111.464 130.167,92.881 							"/>
							<polygon fill="#FBDF3D" points="148.755,111.464 111.584,111.464 130.167,130.051 							"/>
							<polygon fill="#FBE14D" points="148.755,148.638 148.755,111.464 130.167,130.051 							"/>
							<polygon fill="#FBDE34" points="111.584,148.638 111.584,111.464 130.167,130.051 							"/>
							<polygon fill="#FAF5DD" points="148.755,148.638 111.584,148.638 130.167,130.051 							"/>
							<polygon fill="#FAE778" points="111.584,74.293 74.409,74.293 92.996,92.879 							"/>
							<polygon fill="#FBDF3D" points="111.584,111.464 111.584,74.293 92.996,92.879 							"/>
							<polygon fill="#FBE14D" points="74.409,111.464 74.409,74.294 92.993,92.879 							"/>
							<polygon fill="#FAF1BC" points="111.584,111.464 74.409,111.464 92.996,92.881 							"/>
							<polygon fill="#FAE778" points="111.584,111.464 74.409,111.464 92.996,130.051 							"/>
							<polygon fill="#FAE778" points="111.584,148.638 111.584,111.464 92.996,130.051 							"/>
							<polygon fill="#FAE778" points="74.409,148.638 74.409,111.464 92.996,130.051 							"/>
							<polygon fill="#FBDE34" points="111.584,148.638 74.409,148.638 92.996,130.051 							"/>
							<polygon fill="#FAE778" points="74.409,74.293 37.236,74.293 55.822,92.879 							"/>
							<polygon fill="#FBDE34" points="74.409,111.464 74.409,74.293 55.822,92.879 							"/>
							<polygon fill="#FAE778" points="37.236,111.464 37.236,74.294 55.822,92.879 							"/>
							<polygon fill="#FAF1B9" points="74.409,111.464 37.236,111.464 55.822,92.881 							"/>
							<polygon fill="#FADD2F" points="74.409,111.464 37.236,111.464 55.822,130.051 							"/>
							<polygon fill="#FAE778" points="74.409,148.638 74.409,111.464 55.822,130.051 							"/>
							<polygon fill="#FAF1BC" points="37.236,148.638 37.236,111.464 55.822,130.051 							"/>
							<polygon fill="#FAE778" points="74.409,148.638 37.236,148.638 55.822,130.051 							"/>
							<polygon fill="#FAE778" points="37.236,74.293 0.065,74.293 18.651,92.879 							"/>
							<polygon fill="#FAE778" points="37.236,111.464 37.236,74.293 18.651,92.879 							"/>
							<polygon fill="#FBE14D" points="0.065,111.464 0.065,74.294 18.651,92.879 							"/>
							<polygon fill="#FAE778" points="37.236,111.464 0.065,111.464 18.651,92.881 							"/>
							<polygon fill="#FAF1BC" points="37.236,111.464 0.065,111.464 18.651,130.051 							"/>
							<polygon fill="#FAE778" points="37.236,148.638 37.236,111.464 18.651,130.051 							"/>
							<polygon fill="#FAE778" points="0.065,148.638 0.065,111.464 18.651,130.051 							"/>
							<polygon fill="#FAE778" points="37.236,148.638 0.065,148.638 18.651,130.051 							"/>
						</g>
					</g>
					<g>
						<g opacity="0.6">
							<polygon fill="#FAE778" points="223.095,74.293 185.923,74.293 204.509,92.879 							"/>
							<polygon fill="#FAE778" points="223.095,111.464 223.095,74.293 204.509,92.879 							"/>
							<polygon fill="#FBE14D" points="185.923,111.464 185.923,74.294 204.509,92.879 							"/>
							<polygon fill="#FAE778" points="223.095,111.464 185.923,111.464 204.509,92.881 							"/>
							<polygon fill="#FBDE34" points="223.095,111.464 185.923,111.464 204.509,130.051 							"/>
							<polygon fill="#FAF1BC" points="223.095,148.638 223.095,111.464 204.509,130.051 							"/>
							<polygon fill="#FAF1B9" points="185.923,148.638 185.923,111.464 204.509,130.051 							"/>
							<polygon fill="#FAE778" points="223.095,148.638 185.923,148.638 204.509,130.051 							"/>
						</g>
					</g>
				</g>
				<g>
					<g>
						<g opacity="0.6">
							<polygon fill="#FAE778" points="297.44,74.294 260.268,74.294 278.852,92.881 							"/>
							<polygon fill="#FBDE34" points="297.44,111.466 297.44,74.294 278.852,92.881 							"/>
							<polygon fill="#FAE778" points="260.268,111.466 260.268,74.296 278.852,92.881 							"/>
							<polygon fill="#FAF1B9" points="297.44,111.466 260.268,111.466 278.852,92.881 							"/>
							<polygon fill="#FADD2F" points="297.44,111.466 260.268,111.466 278.852,130.052 							"/>
							<polygon fill="#FAE778" points="297.44,148.639 297.44,111.466 278.852,130.052 							"/>
							<polygon fill="#FAF1BC" points="260.268,148.639 260.268,111.466 278.852,130.052 							"/>
							<polygon fill="#FAE778" points="297.44,148.639 260.268,148.639 278.852,130.052 							"/>
							<polygon fill="#FAE778" points="260.268,74.294 223.095,74.294 241.682,92.881 							"/>
							<polygon fill="#FAE778" points="260.268,111.466 260.268,74.294 241.682,92.881 							"/>
							<polygon fill="#FBE14D" points="223.095,111.466 223.095,74.296 241.682,92.881 							"/>
							<polygon fill="#FAE778" points="260.268,111.466 223.095,111.466 241.682,92.881 							"/>
							<polygon fill="#FAF1BC" points="260.268,111.466 223.095,111.466 241.682,130.052 							"/>
							<polygon fill="#FAE778" points="260.268,148.639 260.268,111.466 241.682,130.052 							"/>
							<polygon fill="#FAE778" points="223.095,148.639 223.095,111.466 241.682,130.052 							"/>
							<polygon fill="#FAE778" points="260.268,148.639 223.095,148.639 241.682,130.052 							"/>
						</g>
					</g>
				</g>
			</g>
			<g>
				<g>
					<g>
						<g opacity="0.6">
							<polygon fill="#FAF1BC" points="185.923,37.124 185.923,-0.049 167.338,18.537 							"/>
							<polygon fill="#FAE778" points="185.923,-0.049 148.755,-0.049 167.338,18.536 							"/>
							<polygon fill="#FAF1B9" points="185.923,37.125 148.755,37.124 167.338,18.537 							"/>
							<polygon fill="#FAF1B9" points="185.923,37.125 148.755,37.124 167.338,55.711 							"/>
							<polygon fill="#FAE778" points="185.923,74.294 185.923,37.124 167.338,55.711 							"/>
							<polygon fill="#FBDF3D" points="148.755,74.294 148.755,37.124 167.338,55.711 							"/>
							<polygon fill="#FAF1BC" points="185.923,74.294 148.755,74.294 167.338,55.711 							"/>
							<polygon fill="#FAE778" points="148.755,37.124 148.755,-0.049 167.338,18.537 							"/>
							<polygon fill="#FADD2F" points="148.755,37.124 148.755,-0.049 130.167,18.537 							"/>
							<polygon fill="#FAF1BC" points="148.755,-0.049 111.584,-0.049 130.167,18.536 							"/>
							<polygon fill="#FBE14D" points="148.755,37.125 111.584,37.124 130.167,18.537 							"/>
							<polygon fill="#FBDE34" points="148.755,37.125 111.584,37.124 130.167,55.711 							"/>
							<polygon fill="#FAF1BC" points="148.755,74.294 148.755,37.124 130.167,55.711 							"/>
							<polygon fill="#FAE778" points="111.584,74.294 111.584,37.124 130.167,55.711 							"/>
							<polygon fill="#FBE14D" points="148.755,74.294 111.584,74.294 130.167,55.711 							"/>
							<polygon fill="#FAE778" points="111.584,37.124 111.584,-0.049 130.167,18.537 							"/>
							<polygon fill="#FAE778" points="111.584,37.124 111.584,-0.049 92.996,18.537 							"/>
							<polygon fill="#FBF4D0" points="111.584,-0.049 74.409,-0.049 92.996,18.536 							"/>
							<polygon fill="#FAE778" points="111.584,37.125 74.409,37.124 92.996,18.537 							"/>
							<polygon fill="#FAF5DD" points="111.584,37.125 74.409,37.124 92.996,55.711 							"/>
							<polygon fill="#FBF4D0" points="111.584,74.294 111.584,37.124 92.996,55.711 							"/>
							<polygon fill="#FAE778" points="74.409,74.294 74.409,37.124 92.996,55.711 							"/>
							<polygon fill="#FBE14D" points="111.584,74.294 74.409,74.294 92.996,55.711 							"/>
							<polygon fill="#FBF4D0" points="74.409,37.124 74.409,-0.049 92.996,18.537 							"/>
							<polygon fill="#FAE778" points="74.409,37.124 74.409,-0.049 55.822,18.537 							"/>
							<polygon fill="#FBDF3D" points="74.409,-0.049 37.236,-0.049 55.822,18.536 							"/>
							<polygon fill="#FBF4D0" points="74.409,37.125 37.236,37.124 55.822,18.537 							"/>
							<polygon fill="#FAE778" points="74.409,37.125 37.236,37.124 55.822,55.711 							"/>
							<polygon fill="#FAF1B9" points="74.409,74.294 74.409,37.124 55.822,55.711 							"/>
							<polygon fill="#FAE778" points="37.236,74.294 37.236,37.124 55.822,55.711 							"/>
							<polygon fill="#FBDE34" points="74.409,74.294 37.238,74.294 55.822,55.711 							"/>
							<polygon fill="#FAE778" points="37.236,37.124 37.236,-0.049 55.822,18.537 							"/>
							<polygon fill="#FAE778" points="37.236,37.124 37.236,-0.049 18.651,18.537 							"/>
							<polygon fill="#FAE778" points="37.236,-0.049 0.065,-0.049 18.651,18.536 							"/>
							<polygon fill="#FADD2F" points="37.236,37.125 0.065,37.124 18.651,18.537 							"/>
							<polygon fill="#FAF5DD" points="37.236,37.125 0.065,37.124 18.651,55.711 							"/>
							<polygon fill="#FBDE34" points="37.236,74.294 37.236,37.124 18.651,55.711 							"/>
							<polygon fill="#FAE778" points="0.065,74.294 0.065,37.124 18.651,55.711 							"/>
							<polygon fill="#FBDE34" points="37.236,74.294 0.065,74.294 18.651,55.711 							"/>
							<polygon fill="#FBE14D" points="0.065,37.124 0.065,-0.049 18.651,18.537 							"/>
						</g>
					</g>
					<g>
						<g opacity="0.6">
							<polygon fill="#FAE778" points="223.095,37.124 223.095,-0.049 204.509,18.537 							"/>
							<polygon fill="#FAE778" points="223.095,-0.049 185.923,-0.049 204.509,18.536 							"/>
							<polygon fill="#FADD2F" points="223.095,37.125 185.923,37.124 204.509,18.537 							"/>
							<polygon fill="#FAF5DD" points="223.095,37.125 185.923,37.124 204.509,55.711 							"/>
							<polygon fill="#FBDE34" points="223.095,74.294 223.095,37.124 204.509,55.711 							"/>
							<polygon fill="#FAE778" points="185.923,74.294 185.923,37.124 204.509,55.711 							"/>
							<polygon fill="#FBDE34" points="223.095,74.294 185.923,74.294 204.509,55.711 							"/>
							<polygon fill="#FBE14D" points="185.923,37.124 185.923,-0.049 204.509,18.537 							"/>
						</g>
					</g>
				</g>
				<g>
					<g>
						<g opacity="0.6">
							<polygon fill="#FAE778" points="297.44,37.125 297.44,-0.047 278.852,18.539 							"/>
							<polygon fill="#FBDF3D" points="297.44,-0.047 260.268,-0.047 278.852,18.537 							"/>
							<polygon fill="#FBF4D0" points="297.44,37.126 260.268,37.125 278.852,18.539 							"/>
							<polygon fill="#FAE778" points="297.44,37.126 260.268,37.125 278.852,55.712 							"/>
							<polygon fill="#FAF1B9" points="297.44,74.296 297.44,37.125 278.852,55.712 							"/>
							<polygon fill="#FAE778" points="260.268,74.296 260.268,37.125 278.852,55.712 							"/>
							<polygon fill="#FBDE34" points="297.44,74.296 260.269,74.296 278.852,55.712 							"/>
							<polygon fill="#FAE778" points="260.268,37.125 260.268,-0.047 278.852,18.539 							"/>
							<polygon fill="#FAE778" points="260.268,37.125 260.268,-0.047 241.682,18.539 							"/>
							<polygon fill="#FAE778" points="260.268,-0.047 223.095,-0.047 241.682,18.537 							"/>
							<polygon fill="#FADD2F" points="260.268,37.126 223.095,37.125 241.682,18.539 							"/>
							<polygon fill="#FAF5DD" points="260.268,37.126 223.095,37.125 241.682,55.712 							"/>
							<polygon fill="#FBDE34" points="260.268,74.296 260.268,37.125 241.682,55.712 							"/>
							<polygon fill="#FAE778" points="223.095,74.296 223.095,37.125 241.682,55.712 							"/>
							<polygon fill="#FBDE34" points="260.268,74.296 223.095,74.296 241.682,55.712 							"/>
							<polygon fill="#FBE14D" points="223.095,37.125 223.095,-0.047 241.682,18.539 							"/>
						</g>
					</g>
				</g>
			</g>
		</g>
	</g>
	<g>
		<g opacity="0.6">
			<polygon fill="#FAE778" points="316.022,74.296 297.438,74.296 316.022,92.883 			"/>
			<polygon fill="#FBE14D" points="297.438,111.467 297.438,74.298 316.022,92.883 			"/>
			<polygon fill="#FAE778" points="316.022,111.467 297.438,111.467 316.022,92.885 			"/>
			<polygon fill="#FAF1BC" points="316.022,111.467 297.438,111.467 316.022,130.055 			"/>
			<polygon fill="#FAE778" points="297.438,148.642 297.438,111.467 316.022,130.055 			"/>
			<polygon fill="#FAE778" points="316.022,148.642 297.438,148.642 316.022,130.055 			"/>
		</g>
	</g>
	<g opacity="0.6">
		<polygon fill="#FAE778" points="316.022,-0.045 297.438,-0.045 316.022,18.539 		"/>
		<polygon fill="#FADD2F" points="316.022,37.129 297.438,37.127 316.022,18.541 		"/>
		<polygon fill="#FAF5DD" points="316.022,37.129 297.438,37.127 316.022,55.714 		"/>
		<polygon fill="#FAE778" points="297.438,74.298 297.438,37.127 316.022,55.714 		"/>
		<polygon fill="#FBDE34" points="316.022,74.298 297.438,74.298 316.022,55.714 		"/>
		<polygon fill="#FBE14D" points="297.438,37.127 297.438,-0.045 316.022,18.541 		"/>
	</g>
	<g>
		<g>
			<g opacity="0.6">
				<polygon fill="#FAE778" points="0.065,74.295 -18.521,74.295 -18.522,92.882 				"/>
				<polygon fill="#FBDE34" points="0.065,111.466 0.065,74.295 -18.522,92.882 				"/>
				<polygon fill="#FAF1B9" points="0.065,111.466 -18.521,111.466 -18.522,92.882 				"/>
				<polygon fill="#FADD2F" points="0.065,111.466 -18.521,111.466 -18.522,130.052 				"/>
				<polygon fill="#FAE778" points="0.065,148.639 0.065,111.466 -18.522,130.052 				"/>
				<polygon fill="#FAE778" points="0.065,148.639 -18.521,148.639 -18.522,130.052 				"/>
			</g>
		</g>
		<g>
			<g opacity="0.6">
				<polygon fill="#FAE778" points="0.065,37.126 0.065,-0.047 -18.522,18.539 				"/>
				<polygon fill="#FBDF3D" points="0.065,-0.047 -18.521,-0.047 -18.522,18.537 				"/>
				<polygon fill="#FBF4D0" points="0.065,37.126 -18.521,37.126 -18.522,18.539 				"/>
				<polygon fill="#FAE778" points="0.065,37.126 -18.521,37.126 -18.522,55.713 				"/>
				<polygon fill="#FAF1B9" points="0.065,74.297 0.065,37.126 -18.522,55.713 				"/>
				<polygon fill="#FBDE34" points="0.065,74.297 -18.52,74.297 -18.522,55.713 				"/>
			</g>
		</g>
	</g>
</g>
<g>
	<g>
		<g>
			<g>
				<g>
					<g>
						<g opacity="0.6">
							<polygon fill="#FAF1B9" points="111.577,841.584 148.745,841.584 130.162,823 							"/>
							<polygon fill="#FBDE34" points="111.577,804.415 111.577,841.584 130.162,823 							"/>
							<polygon fill="#FAE778" points="148.745,804.415 148.745,841.584 130.162,823 							"/>
							<polygon fill="#FAE778" points="111.577,804.415 148.745,804.415 130.162,822.999 							"/>
							<polygon fill="#FAF5DD" points="111.577,804.415 148.745,804.415 130.162,785.827 							"/>
							<polygon fill="#FAE778" points="111.577,767.241 111.577,804.415 130.162,785.827 							"/>
							<polygon fill="#FBF4D0" points="148.745,767.241 148.745,804.415 130.162,785.827 							"/>
							<polygon fill="#FAE778" points="111.577,767.241 148.745,767.241 130.162,785.827 							"/>
							<polygon fill="#DFC432" points="148.745,841.584 185.916,841.584 167.333,823 							"/>
							<polygon fill="#FBDE34" points="148.745,804.415 148.745,841.584 167.333,823 							"/>
							<polygon fill="#FAE778" points="185.916,804.415 185.916,841.584 167.333,823 							"/>
							<polygon fill="#FBE14D" points="148.745,804.415 185.916,804.415 167.333,822.999 							"/>
							<polygon fill="#FBDF3D" points="148.745,804.415 185.916,804.415 167.333,785.827 							"/>
							<polygon fill="#FBE14D" points="148.745,767.241 148.745,804.415 167.333,785.827 							"/>
							<polygon fill="#FBDE34" points="185.916,767.241 185.916,804.415 167.333,785.827 							"/>
							<polygon fill="#FAF5DD" points="148.745,767.241 185.916,767.241 167.333,785.827 							"/>
							<polygon fill="#FAE778" points="185.916,841.584 223.091,841.584 204.504,823 							"/>
							<polygon fill="#FBDF3D" points="185.916,804.415 185.916,841.584 204.504,823 							"/>
							<polygon fill="#FBE14D" points="223.091,804.415 223.091,841.584 204.507,823 							"/>
							<polygon fill="#FAF1BC" points="185.916,804.415 223.091,804.415 204.504,822.999 							"/>
							<polygon fill="#FAE778" points="185.916,804.415 223.091,804.415 204.504,785.827 							"/>
							<polygon fill="#FAE778" points="185.916,767.241 185.916,804.415 204.504,785.827 							"/>
							<polygon fill="#FAE778" points="223.091,767.241 223.091,804.415 204.504,785.827 							"/>
							<polygon fill="#FBDE34" points="185.916,767.241 223.091,767.241 204.504,785.827 							"/>
							<polygon fill="#FAE778" points="223.091,841.584 260.264,841.584 241.678,823 							"/>
							<polygon fill="#FBDE34" points="223.091,804.415 223.091,841.584 241.678,823 							"/>
							<polygon fill="#FAE778" points="260.264,804.415 260.264,841.584 241.678,823 							"/>
							<polygon fill="#FAF1B9" points="223.091,804.415 260.264,804.415 241.678,822.999 							"/>
							<polygon fill="#FADD2F" points="223.091,804.415 260.264,804.415 241.678,785.827 							"/>
							<polygon fill="#FAE778" points="223.091,767.241 223.091,804.415 241.678,785.827 							"/>
							<polygon fill="#FAF1BC" points="260.264,767.241 260.264,804.415 241.678,785.827 							"/>
							<polygon fill="#FAE778" points="223.091,767.241 260.264,767.241 241.678,785.827 							"/>
							<polygon fill="#FAE778" points="260.264,841.584 297.435,841.584 278.849,823 							"/>
							<polygon fill="#FAE778" points="260.264,804.415 260.264,841.584 278.849,823 							"/>
							<polygon fill="#FBE14D" points="297.435,804.415 297.435,841.584 278.849,823 							"/>
							<polygon fill="#FAE778" points="260.264,804.415 297.435,804.415 278.849,822.999 							"/>
							<polygon fill="#FAF1BC" points="260.264,804.415 297.435,804.415 278.849,785.827 							"/>
							<polygon fill="#FAE778" points="260.264,767.241 260.264,804.415 278.849,785.827 							"/>
							<polygon fill="#FAE778" points="297.435,767.241 297.435,804.415 278.849,785.827 							"/>
							<polygon fill="#FAE778" points="260.264,767.241 297.435,767.241 278.849,785.827 							"/>
						</g>
					</g>
					<g>
						<g opacity="0.6">
							<polygon fill="#FAE778" points="74.405,841.584 111.577,841.584 92.991,823 							"/>
							<polygon fill="#FAE778" points="74.405,804.415 74.405,841.584 92.991,823 							"/>
							<polygon fill="#FBE14D" points="111.577,804.415 111.577,841.584 92.991,823 							"/>
							<polygon fill="#FAE778" points="74.405,804.415 111.577,804.415 92.991,822.999 							"/>
							<polygon fill="#FBDE34" points="74.405,804.415 111.577,804.415 92.991,785.827 							"/>
							<polygon fill="#FAF1BC" points="74.405,767.241 74.405,804.415 92.991,785.827 							"/>
							<polygon fill="#FAF1B9" points="111.577,767.241 111.577,804.415 92.991,785.827 							"/>
							<polygon fill="#FAE778" points="74.405,767.241 111.577,767.241 92.991,785.827 							"/>
						</g>
					</g>
				</g>
				<g>
					<g>
						<g opacity="0.6">
							<polygon fill="#FAE778" points="0.06,841.584 37.232,841.584 18.648,822.999 							"/>
							<polygon fill="#FBDE34" points="0.06,804.413 0.06,841.584 18.648,822.999 							"/>
							<polygon fill="#FAE778" points="37.232,804.413 37.232,841.583 18.648,822.999 							"/>
							<polygon fill="#FAF1B9" points="0.06,804.413 37.232,804.413 18.648,822.999 							"/>
							<polygon fill="#FADD2F" points="0.06,804.413 37.232,804.413 18.648,785.827 							"/>
							<polygon fill="#FAE778" points="0.06,767.241 0.06,804.413 18.648,785.827 							"/>
							<polygon fill="#FAF1BC" points="37.232,767.241 37.232,804.413 18.648,785.827 							"/>
							<polygon fill="#FAE778" points="0.06,767.241 37.232,767.241 18.648,785.827 							"/>
							<polygon fill="#FAE778" points="37.232,841.584 74.405,841.584 55.818,822.999 							"/>
							<polygon fill="#FAE778" points="37.232,804.413 37.232,841.584 55.818,822.999 							"/>
							<polygon fill="#FBE14D" points="74.405,804.413 74.405,841.583 55.818,822.999 							"/>
							<polygon fill="#FAE778" points="37.232,804.413 74.405,804.413 55.818,822.999 							"/>
							<polygon fill="#FAF1BC" points="37.232,804.413 74.405,804.413 55.818,785.827 							"/>
							<polygon fill="#FAE778" points="37.232,767.241 37.232,804.413 55.818,785.827 							"/>
							<polygon fill="#FAE778" points="74.405,767.241 74.405,804.413 55.818,785.827 							"/>
							<polygon fill="#FAE778" points="37.232,767.241 74.405,767.241 55.818,785.827 							"/>
						</g>
					</g>
				</g>
			</g>
			<g>
				<g>
					<g>
						<g opacity="0.6">
							<polygon fill="#FAE778" points="111.577,841.584 111.577,860.19 130.162,860.168 							"/>
							<polygon fill="#FBDF3D" points="148.745,841.584 148.745,860.19 130.162,860.168 							"/>
							<polygon fill="#FAF1BC" points="111.577,841.584 148.745,841.584 130.162,860.168 							"/>
							<polygon fill="#FAF1BC" points="148.745,841.584 148.745,860.19 167.333,860.168 							"/>
							<polygon fill="#FAE778" points="185.916,841.584 185.916,860.19 167.333,860.168 							"/>
							<polygon fill="#FBE14D" points="148.745,841.584 185.916,841.584 167.333,860.168 							"/>
							<polygon fill="#FBF4D0" points="185.916,841.584 185.916,860.19 204.504,860.168 							"/>
							<polygon fill="#FAE778" points="223.091,841.584 223.091,860.19 204.504,860.168 							"/>
							<polygon fill="#FBE14D" points="185.916,841.584 223.091,841.584 204.504,860.168 							"/>
							<polygon fill="#FAF1B9" points="223.091,841.584 223.091,860.19 241.678,860.168 							"/>
							<polygon fill="#FAE778" points="260.264,841.584 260.264,860.19 241.678,860.168 							"/>
							<polygon fill="#FBDE34" points="223.091,841.584 260.262,841.584 241.678,860.168 							"/>
							<polygon fill="#FBDE34" points="260.264,841.584 260.264,860.19 278.849,860.168 							"/>
							<polygon fill="#FAE778" points="297.435,841.584 297.435,860.19 278.849,860.168 							"/>
							<polygon fill="#FBDE34" points="260.264,841.584 297.435,841.584 278.849,860.168 							"/>
						</g>
					</g>
					<g>
						<g opacity="0.6">
							<polygon fill="#FBDE34" points="74.405,841.584 74.405,860.19 92.991,860.168 							"/>
							<polygon fill="#FAE778" points="111.577,841.584 111.577,860.19 92.991,860.168 							"/>
							<polygon fill="#FBDE34" points="74.405,841.584 111.577,841.584 92.991,860.168 							"/>
						</g>
					</g>
				</g>
				<g>
					<g>
						<g opacity="0.6">
							<polygon fill="#FAF1B9" points="0.06,841.583 0.06,860.188 18.648,860.167 							"/>
							<polygon fill="#FAE778" points="37.232,841.583 37.232,860.188 18.648,860.167 							"/>
							<polygon fill="#FBDE34" points="0.06,841.583 37.231,841.583 18.648,860.167 							"/>
							<polygon fill="#FBDE34" points="37.232,841.583 37.232,860.188 55.818,860.167 							"/>
							<polygon fill="#FAE778" points="74.405,841.583 74.405,860.188 55.818,860.167 							"/>
							<polygon fill="#FBDE34" points="37.232,841.583 74.405,841.583 55.818,860.167 							"/>
						</g>
					</g>
				</g>
			</g>
		</g>
	</g>
	<g>
		<g opacity="0.6">
			<polygon fill="#FAE778" points="-18.522,841.583 0.062,841.583 -18.522,822.997 			"/>
			<polygon fill="#FBE14D" points="0.062,804.413 0.062,841.581 -18.522,822.997 			"/>
			<polygon fill="#FAE778" points="-18.522,804.413 0.062,804.413 -18.522,822.995 			"/>
			<polygon fill="#FAF1BC" points="-18.522,804.413 0.062,804.413 -18.522,785.823 			"/>
			<polygon fill="#FAE778" points="0.062,767.237 0.062,804.413 -18.522,785.823 			"/>
			<polygon fill="#FAE778" points="-18.522,767.237 0.062,767.237 -18.522,785.823 			"/>
		</g>
	</g>
	<g opacity="0.6">
		<polygon fill="#FAE778" points="0.062,841.581 0.062,860.186 -18.522,860.165 		"/>
		<polygon fill="#FBDE34" points="-18.522,841.581 0.062,841.581 -18.522,860.165 		"/>
	</g>
	<g>
		<g>
			<g opacity="0.6">
				<polygon fill="#FAE778" points="297.435,841.583 316.021,841.583 316.022,822.997 				"/>
				<polygon fill="#FBDE34" points="297.435,804.413 297.435,841.583 316.022,822.997 				"/>
				<polygon fill="#FAF1B9" points="297.435,804.413 316.021,804.413 316.022,822.997 				"/>
				<polygon fill="#FADD2F" points="297.435,804.413 316.021,804.413 316.022,785.827 				"/>
				<polygon fill="#FAE778" points="297.435,767.241 297.435,804.413 316.022,785.827 				"/>
				<polygon fill="#FAE778" points="297.435,767.241 316.021,767.241 316.022,785.827 				"/>
			</g>
		</g>
		<g>
			<g opacity="0.6">
				<polygon fill="#FAF1B9" points="297.435,841.581 297.435,860.188 316.022,860.167 				"/>
				<polygon fill="#FBDE34" points="297.435,841.581 316.02,841.581 316.022,860.167 				"/>
			</g>
		</g>
	</g>
</g>
<g>
	<rect x="21.802" y="53.346" fill="none" width="254.036" height="107.034"/>
	<text transform="matrix(1 0 0 1 38.082 63.314)"><tspan x="0" y="0" fill="#333333" font-family="'SourceSansPro-Regular'" font-size="14">Workshopper is the name used for the </tspan><tspan x="-5.047" y="16.8" fill="#333333" font-family="'SourceSansPro-Regular'" font-size="14">open source lesson modules associated </tspan><tspan x="-8.449" y="33.6" fill="#333333" font-family="'SourceSansPro-Regular'" font-size="14">with NodeSchool. All are self guided (you </tspan><tspan x="-16.059" y="50.4" fill="#333333" font-family="'SourceSansPro-Regular'" font-size="14">don&apos;t need to attend a workshop to do one) </tspan><tspan x="45.303" y="67.2" fill="#333333" font-family="'SourceSansPro-Regular'" font-size="14">and most work offline.</tspan></text>
</g>
<g>
	<text transform="matrix(1 0 0 1 69.0713 38.936)" fill="#333333" font-family="'SourceSansPro-Bold'" font-size="25">Workshoppers</text>
</g>
<g>
	<rect x="21.802" y="542.354" fill="none" width="254.036" height="238.916"/>
	<text transform="matrix(1 0 0 1 21.8018 552.3228)"><tspan x="0" y="0" fill="#333333" font-family="'SourceSansPro-Regular'" font-size="14">Workshoppers come in two flavours: Core                 </tspan><tspan x="0" y="16.8" fill="#333333" font-family="'SourceSansPro-Regular'" font-size="14">and Electives.  </tspan><tspan x="0" y="50.399" fill="#333333" font-family="'SourceSansPro-Regular'" font-size="14">Core workshoppers focus on essential skills </tspan><tspan x="0" y="67.199" fill="#333333" font-family="'SourceSansPro-Regular'" font-size="14">for working with Node.js like basic </tspan><tspan x="0" y="84" fill="#333333" font-family="'SourceSansPro-Regular'" font-size="14">JavaScript skills, Git and GitHub, npm and </tspan><tspan x="0" y="100.8" fill="#333333" font-family="'SourceSansPro-Regular'" font-size="14">Markdown. </tspan><tspan x="0" y="134.399" fill="#333333" font-family="'SourceSansPro-Regular'" font-size="14">Electives are workshoppers on popular </tspan><tspan x="0" y="151.199" fill="#333333" font-family="'SourceSansPro-Regular'" font-size="14">libraries or styles of writing Node.js. There </tspan><tspan x="0" y="168" fill="#333333" font-family="'SourceSansPro-Regular'" font-size="14">are about 40 electives available, and its </tspan><tspan x="0" y="184.8" fill="#333333" font-family="'SourceSansPro-Regular'" font-size="14">number is growing.</tspan><tspan x="0" y="201.6" fill="#333333" font-family="'SourceSansPro-Regular'" font-size="14">  </tspan></text>
</g>
<g>
	<rect x="21.802" y="199.563" fill="none" width="254.036" height="107.033"/>
	<text transform="matrix(1 0 0 1 21.8018 209.5308)"><tspan x="0" y="0" fill="#333333" font-family="'SourceSansPro-Regular'" font-size="14">You’ll need Node.js on your computer to </tspan><tspan x="0" y="16.8" fill="#333333" font-family="'SourceSansPro-Regular'" font-size="14">get started with each of these. Then use </tspan><tspan x="0" y="33.6" fill="#333333" font-family="'SourceSansPro-Regular'" font-size="14">npm (it comes with Node) to install each </tspan><tspan x="0" y="50.4" fill="#333333" font-family="'SourceSansPro-Regular'" font-size="14">module. Once installed, simply type the </tspan><tspan x="0" y="67.2" fill="#333333" font-family="'SourceSansPro-Regular'" font-size="14">workshopper’s name to launch.</tspan></text>
</g>
<g>
	<text transform="matrix(1 0 0 1 20.6787 182.1528)" fill="#333333" font-family="'SourceSansPro-Bold'" font-size="19">Get Going</text>
</g>
<g>
	<g>
		<g>
			<g>
				<g>
					<g>
						<g>
							<g opacity="0.6">
								<polygon fill="#FAF1B9" points="187.069,482.452 149.896,482.452 168.481,501.04 								"/>
								<polygon fill="#FBDE34" points="187.069,519.627 187.069,482.452 168.481,501.04 								"/>
								<polygon fill="#FAE778" points="149.896,519.627 149.896,482.454 168.481,501.04 								"/>
								<polygon fill="#FAE778" points="187.069,519.627 149.896,519.627 168.481,501.042 								"/>
								<polygon fill="#DFC432" points="149.896,482.452 112.72,482.452 131.306,501.04 								"/>
								<polygon fill="#FBDE34" points="149.896,519.627 149.896,482.452 131.306,501.04 								"/>
								<polygon fill="#FAE778" points="112.72,519.627 112.72,482.454 131.306,501.04 								"/>
								<polygon fill="#FBE14D" points="149.896,519.627 112.72,519.627 131.306,501.042 								"/>
								<polygon fill="#FAE778" points="112.72,482.452 75.541,482.452 94.131,501.04 								"/>
								<polygon fill="#FBDF3D" points="112.72,519.627 112.72,482.452 94.131,501.04 								"/>
								<polygon fill="#FBE14D" points="75.541,519.627 75.541,482.454 94.128,501.04 								"/>
								<polygon fill="#FAF1BC" points="112.72,519.627 75.541,519.627 94.131,501.042 								"/>
								<polygon fill="#FAE778" points="75.541,482.452 38.363,482.452 56.951,501.04 								"/>
								<polygon fill="#FBDE34" points="75.541,519.627 75.541,482.452 56.951,501.04 								"/>
								<polygon fill="#FAE778" points="38.363,519.627 38.363,482.454 56.951,501.04 								"/>
								<polygon fill="#FAF1B9" points="75.541,519.627 38.363,519.627 56.951,501.042 								"/>
								<polygon fill="#FAE778" points="38.363,482.452 1.188,482.452 19.776,501.04 								"/>
								<polygon fill="#FAE778" points="38.363,519.627 38.363,482.452 19.776,501.04 								"/>
								<polygon fill="#FBE14D" points="1.188,519.627 1.188,482.454 19.776,501.04 								"/>
								<polygon fill="#FAE778" points="38.363,519.627 1.188,519.627 19.776,501.042 								"/>
							</g>
						</g>
						<g>
							<g opacity="0.6">
								<polygon fill="#FAE778" points="224.245,482.452 187.069,482.452 205.656,501.04 								"/>
								<polygon fill="#FAE778" points="224.245,519.627 224.245,482.452 205.656,501.04 								"/>
								<polygon fill="#FBE14D" points="187.069,519.627 187.069,482.454 205.656,501.04 								"/>
								<polygon fill="#FAE778" points="224.245,519.627 187.069,519.627 205.656,501.042 								"/>
							</g>
						</g>
					</g>
					<g>
						<g>
							<g opacity="0.6">
								<polygon fill="#FAE778" points="298.6,482.454 261.423,482.454 280.009,501.042 								"/>
								<polygon fill="#FBDE34" points="298.6,519.629 298.6,482.454 280.009,501.042 								"/>
								<polygon fill="#FAE778" points="261.423,519.629 261.423,482.456 280.009,501.042 								"/>
								<polygon fill="#FAF1B9" points="298.6,519.629 261.423,519.629 280.009,501.042 								"/>
								<polygon fill="#FAE778" points="261.423,482.454 224.245,482.454 242.835,501.042 								"/>
								<polygon fill="#FAE778" points="261.423,519.629 261.423,482.454 242.835,501.042 								"/>
								<polygon fill="#FBE14D" points="224.245,519.629 224.245,482.456 242.835,501.042 								"/>
								<polygon fill="#FAE778" points="261.423,519.629 224.245,519.629 242.835,501.042 								"/>
							</g>
						</g>
					</g>
				</g>
				<g>
					<g>
						<g>
							<g opacity="0.6">
								<polygon fill="#FAF1B9" points="187.069,296.571 149.896,296.571 168.481,315.159 								"/>
								<polygon fill="#FBDE34" points="187.069,333.749 187.069,296.571 168.481,315.159 								"/>
								<polygon fill="#FAE778" points="149.896,333.749 149.896,296.572 168.481,315.159 								"/>
								<polygon fill="#FAE778" points="187.069,333.749 149.896,333.749 168.481,315.161 								"/>
								<polygon fill="#FAF5DD" points="187.069,333.749 149.896,333.749 168.481,352.337 								"/>
								<polygon fill="#FAE778" points="187.069,370.925 187.069,333.749 168.481,352.337 								"/>
								<polygon fill="#FAF1BC" points="187.069,445.278 187.069,408.101 168.481,426.688 								"/>
								<polygon fill="#FBF4D0" points="149.896,370.925 149.896,333.749 168.481,352.337 								"/>
								<polygon fill="#FAE778" points="187.069,370.925 149.896,370.925 168.481,352.337 								"/>
								<polygon fill="#FBE14D" points="187.069,370.925 149.896,370.925 168.481,389.513 								"/>
								<polygon fill="#FAF1BC" points="187.069,408.101 187.069,370.925 168.481,389.513 								"/>
								<polygon fill="#FAE778" points="149.896,408.101 149.896,370.925 168.481,389.513 								"/>
								<polygon fill="#FAE778" points="187.069,408.101 149.896,408.101 168.481,389.513 								"/>
								<polygon fill="#FAE778" points="187.069,408.101 149.896,408.101 168.481,426.688 								"/>
								<polygon fill="#FAF1B9" points="187.069,445.28 149.896,445.278 168.481,426.688 								"/>
								<polygon fill="#FAF1B9" points="187.069,445.28 149.896,445.278 168.481,463.868 								"/>
								<polygon fill="#FAE778" points="187.069,482.454 187.069,445.278 168.481,463.868 								"/>
								<polygon fill="#FBDF3D" points="149.896,482.454 149.896,445.278 168.481,463.868 								"/>
								<polygon fill="#FAF1BC" points="187.069,482.454 149.896,482.454 168.481,463.868 								"/>
								<polygon fill="#FAE778" points="149.896,445.278 149.896,408.101 168.481,426.688 								"/>
								<polygon fill="#FADD2F" points="149.896,296.571 112.72,296.571 131.306,315.159 								"/>
								<polygon fill="#FBDE34" points="149.896,333.749 149.896,296.571 131.306,315.159 								"/>
								<polygon fill="#FAE778" points="112.72,333.749 112.72,296.572 131.306,315.159 								"/>
								<polygon fill="#FBE14D" points="149.896,333.749 112.72,333.749 131.306,315.161 								"/>
								<polygon fill="#FBDF3D" points="149.896,333.749 112.72,333.749 131.306,352.337 								"/>
								<polygon fill="#FBE14D" points="149.896,370.925 149.896,333.749 131.306,352.337 								"/>
								<polygon fill="#FADD2F" points="149.896,445.278 149.896,408.101 131.306,426.688 								"/>
								<polygon fill="#FBDE34" points="112.72,370.925 112.72,333.749 131.306,352.337 								"/>
								<polygon fill="#FAF5DD" points="149.896,370.925 112.72,370.925 131.306,352.337 								"/>
								<polygon fill="#FAE778" points="149.896,370.925 112.72,370.925 131.303,389.513 								"/>
								<polygon fill="#FAE778" points="149.896,408.101 149.896,370.925 131.306,389.513 								"/>
								<polygon fill="#FAE778" points="112.72,408.101 112.72,370.925 131.306,389.513 								"/>
								<polygon fill="#FAF1B9" points="149.896,408.101 112.72,408.101 131.306,389.513 								"/>
								<polygon fill="#FAF1BC" points="149.896,408.101 112.72,408.101 131.306,426.688 								"/>
								<polygon fill="#FBE14D" points="149.896,445.28 112.72,445.278 131.306,426.688 								"/>
								<polygon fill="#FBDE34" points="149.896,445.28 112.72,445.278 131.306,463.868 								"/>
								<polygon fill="#FAF1BC" points="149.896,482.454 149.896,445.278 131.306,463.868 								"/>
								<polygon fill="#FAE778" points="112.72,482.454 112.72,445.278 131.306,463.868 								"/>
								<polygon fill="#FBE14D" points="149.896,482.454 112.72,482.454 131.306,463.868 								"/>
								<polygon fill="#FAE778" points="112.72,445.278 112.72,408.101 131.306,426.688 								"/>
								<polygon fill="#FAE778" points="112.72,296.571 75.541,296.571 94.131,315.159 								"/>
								<polygon fill="#FBDF3D" points="112.72,333.749 112.72,296.571 94.131,315.159 								"/>
								<polygon fill="#FBE14D" points="75.541,333.749 75.541,296.572 94.128,315.159 								"/>
								<polygon fill="#FAF1BC" points="112.72,333.749 75.541,333.749 94.131,315.161 								"/>
								<polygon fill="#FAE778" points="112.72,333.749 75.541,333.749 94.131,352.337 								"/>
								<polygon fill="#FAE778" points="112.72,370.925 112.72,333.749 94.131,352.337 								"/>
								<polygon fill="#FAE778" points="112.72,445.278 112.72,408.101 94.131,426.688 								"/>
								<polygon fill="#FAE778" points="75.541,370.925 75.541,333.749 94.131,352.337 								"/>
								<polygon fill="#FBDE34" points="112.72,370.925 75.541,370.925 94.131,352.337 								"/>
								<polygon fill="#FAF1BC" points="112.718,370.925 75.541,370.925 94.128,389.513 								"/>
								<polygon fill="#FAE778" points="112.72,408.101 112.72,370.925 94.131,389.513 								"/>
								<polygon fill="#FAE778" points="75.541,408.101 75.541,370.925 94.128,389.513 								"/>
								<polygon fill="#FAE778" points="112.72,408.101 75.541,408.101 94.131,389.513 								"/>
								<polygon fill="#FBF4D0" points="112.72,408.101 75.541,408.101 94.131,426.688 								"/>
								<polygon fill="#FAE778" points="112.72,445.28 75.541,445.278 94.131,426.688 								"/>
								<polygon fill="#FAF5DD" points="112.72,445.28 75.541,445.278 94.131,463.868 								"/>
								<polygon fill="#FBF4D0" points="112.72,482.454 112.72,445.278 94.131,463.868 								"/>
								<polygon fill="#FAE778" points="75.541,482.454 75.541,445.278 94.131,463.868 								"/>
								<polygon fill="#FBE14D" points="112.72,482.454 75.541,482.454 94.131,463.868 								"/>
								<polygon fill="#FBF4D0" points="75.541,445.278 75.541,408.101 94.131,426.688 								"/>
								<polygon fill="#FAE778" points="75.541,296.571 38.363,296.571 56.951,315.159 								"/>
								<polygon fill="#FBDE34" points="75.541,333.749 75.541,296.571 56.951,315.159 								"/>
								<polygon fill="#FAE778" points="38.363,333.749 38.363,296.572 56.951,315.159 								"/>
								<polygon fill="#FAF1B9" points="75.541,333.749 38.363,333.749 56.951,315.161 								"/>
								<polygon fill="#FADD2F" points="75.541,333.749 38.363,333.749 56.951,352.337 								"/>
								<polygon fill="#FAE778" points="75.541,370.925 75.541,333.749 56.951,352.337 								"/>
								<polygon fill="#FAE778" points="75.541,445.278 75.541,408.101 56.951,426.688 								"/>
								<polygon fill="#FAF1BC" points="38.363,370.925 38.363,333.749 56.951,352.337 								"/>
								<polygon fill="#FAE778" points="75.541,370.925 38.363,370.925 56.951,352.337 								"/>
								<polygon fill="#FAE778" points="75.538,370.925 38.363,370.925 56.951,389.513 								"/>
								<polygon fill="#FADD2F" points="75.541,408.101 75.541,370.925 56.951,389.513 								"/>
								<polygon fill="#FBE045" points="38.363,408.101 38.363,370.925 56.951,389.513 								"/>
								<polygon fill="#FAF1B9" points="75.541,408.101 38.363,408.101 56.951,389.513 								"/>
								<polygon fill="#FBDF3D" points="75.541,408.101 38.363,408.101 56.951,426.688 								"/>
								<polygon fill="#FBF4D0" points="75.541,445.28 38.363,445.278 56.951,426.688 								"/>
								<polygon fill="#FAE778" points="75.541,445.28 38.363,445.278 56.951,463.868 								"/>
								<polygon fill="#FAF1B9" points="75.541,482.454 75.541,445.278 56.951,463.868 								"/>
								<polygon fill="#FAE778" points="38.363,482.454 38.363,445.278 56.951,463.868 								"/>
								<polygon fill="#FBDE34" points="75.541,482.454 38.365,482.454 56.951,463.868 								"/>
								<polygon fill="#FAE778" points="38.363,445.278 38.363,408.101 56.951,426.688 								"/>
								<polygon fill="#FAE778" points="38.363,296.571 1.188,296.571 19.776,315.159 								"/>
								<polygon fill="#FAE778" points="38.363,333.749 38.363,296.571 19.776,315.159 								"/>
								<polygon fill="#FBE14D" points="1.188,333.749 1.188,296.572 19.776,315.159 								"/>
								<polygon fill="#FAE778" points="38.363,333.749 1.188,333.749 19.776,315.161 								"/>
								<polygon fill="#FAF1BC" points="38.363,333.749 1.188,333.749 19.776,352.337 								"/>
								<polygon fill="#FAE778" points="38.363,370.925 38.363,333.749 19.776,352.337 								"/>
								<polygon fill="#FAE778" points="38.363,445.278 38.363,408.101 19.776,426.688 								"/>
								<polygon fill="#FAE778" points="1.188,370.925 1.188,333.749 19.776,352.337 								"/>
								<polygon fill="#FAE778" points="38.363,370.925 1.188,370.925 19.776,352.337 								"/>
								<polygon fill="#FBDF3D" points="38.363,370.925 1.188,370.925 19.775,389.513 								"/>
								<polygon fill="#FAE778" points="38.363,408.101 38.363,370.925 19.776,389.513 								"/>
								<polygon fill="#EDD133" points="1.188,408.101 1.188,370.925 19.776,389.513 								"/>
								<polygon fill="#FBE14D" points="38.363,408.101 1.188,408.101 19.776,389.513 								"/>
								<polygon fill="#FAE778" points="38.363,408.101 1.188,408.101 19.776,426.688 								"/>
								<polygon fill="#FADD2F" points="38.363,445.28 1.188,445.278 19.776,426.688 								"/>
								<polygon fill="#FAF5DD" points="38.363,445.28 1.188,445.278 19.776,463.868 								"/>
								<polygon fill="#FBDE34" points="38.363,482.454 38.363,445.278 19.776,463.868 								"/>
								<polygon fill="#FAE778" points="1.188,482.454 1.188,445.278 19.776,463.868 								"/>
								<polygon fill="#FBDE34" points="38.363,482.454 1.188,482.454 19.776,463.868 								"/>
								<polygon fill="#FBE14D" points="1.188,445.278 1.188,408.101 19.776,426.688 								"/>
							</g>
						</g>
						<g>
							<g opacity="0.6">
								<polygon fill="#FAE778" points="224.245,296.571 187.069,296.571 205.656,315.159 								"/>
								<polygon fill="#FAE778" points="224.245,333.749 224.245,296.571 205.656,315.159 								"/>
								<polygon fill="#FBE14D" points="187.069,333.749 187.069,296.572 205.656,315.159 								"/>
								<polygon fill="#FAE778" points="224.245,333.749 187.069,333.749 205.656,315.161 								"/>
								<polygon fill="#DFC432" points="224.245,333.749 187.069,333.749 205.656,352.337 								"/>
								<polygon fill="#FAE778" points="224.245,370.925 224.245,333.749 205.656,352.337 								"/>
								<polygon fill="#FAE778" points="224.245,445.278 224.245,408.101 205.656,426.688 								"/>
								<polygon fill="#FAE778" points="187.069,370.925 187.069,333.749 205.656,352.337 								"/>
								<polygon fill="#FAE778" points="224.245,370.925 187.069,370.925 205.656,352.337 								"/>
								<polygon fill="#FBDF3D" points="224.245,370.925 187.069,370.925 205.656,389.513 								"/>
								<polygon fill="#FAE778" points="224.245,408.101 224.245,370.925 205.656,389.513 								"/>
								<polygon fill="#EDD133" points="187.069,408.101 187.069,370.925 205.656,389.513 								"/>
								<polygon fill="#FBE14D" points="224.245,408.101 187.069,408.101 205.656,389.513 								"/>
								<polygon fill="#FAE778" points="224.245,408.101 187.069,408.101 205.656,426.688 								"/>
								<polygon fill="#FADD2F" points="224.245,445.28 187.069,445.278 205.656,426.688 								"/>
								<polygon fill="#FAF5DD" points="224.245,445.28 187.069,445.278 205.656,463.868 								"/>
								<polygon fill="#FBDE34" points="224.245,482.454 224.245,445.278 205.656,463.868 								"/>
								<polygon fill="#FAE778" points="187.069,482.454 187.069,445.278 205.656,463.868 								"/>
								<polygon fill="#FBDE34" points="224.245,482.454 187.069,482.454 205.656,463.868 								"/>
								<polygon fill="#FBE14D" points="187.069,445.278 187.069,408.101 205.656,426.688 								"/>
							</g>
						</g>
					</g>
					<g>
						<g>
							<g opacity="0.6">
								<polygon fill="#FAE778" points="298.6,296.572 261.423,296.572 280.009,315.161 								"/>
								<polygon fill="#FBDE34" points="298.6,333.75 298.6,296.572 280.009,315.161 								"/>
								<polygon fill="#FAE778" points="261.423,333.75 261.423,296.574 280.009,315.161 								"/>
								<polygon fill="#FAF1B9" points="298.6,333.75 261.423,333.75 280.009,315.163 								"/>
								<polygon fill="#FADD2F" points="298.6,333.75 261.423,333.75 280.009,352.338 								"/>
								<polygon fill="#FAE778" points="298.6,370.927 298.6,333.75 280.009,352.338 								"/>
								<polygon fill="#FAE778" points="298.6,445.28 298.6,408.103 280.009,426.69 								"/>
								<polygon fill="#FAF1BC" points="261.423,370.927 261.423,333.75 280.009,352.338 								"/>
								<polygon fill="#FAE778" points="298.6,370.927 261.423,370.927 280.009,352.338 								"/>
								<polygon fill="#FAE778" points="298.597,370.927 261.423,370.927 280.009,389.514 								"/>
								<polygon fill="#FADD2F" points="298.6,408.103 298.6,370.927 280.009,389.514 								"/>
								<polygon fill="#FBE045" points="261.423,408.103 261.423,370.927 280.009,389.514 								"/>
								<polygon fill="#FAF1B9" points="298.6,408.103 261.423,408.103 280.009,389.514 								"/>
								<polygon fill="#FBDF3D" points="298.6,408.103 261.423,408.103 280.009,426.688 								"/>
								<polygon fill="#FBF4D0" points="298.6,445.28 261.423,445.28 280.009,426.69 								"/>
								<polygon fill="#FAE778" points="298.6,445.28 261.423,445.28 280.009,463.868 								"/>
								<polygon fill="#FAF1B9" points="298.6,482.456 298.6,445.28 280.009,463.868 								"/>
								<polygon fill="#FAE778" points="261.423,482.456 261.423,445.28 280.009,463.868 								"/>
								<polygon fill="#FBDE34" points="298.6,482.456 261.424,482.456 280.009,463.868 								"/>
								<polygon fill="#FAE778" points="261.423,445.28 261.423,408.103 280.009,426.69 								"/>
								<polygon fill="#FAE778" points="261.423,296.572 224.245,296.572 242.835,315.161 								"/>
								<polygon fill="#FAE778" points="261.423,333.75 261.423,296.572 242.835,315.161 								"/>
								<polygon fill="#FBE14D" points="224.245,333.75 224.245,296.574 242.835,315.161 								"/>
								<polygon fill="#FAE778" points="261.423,333.75 224.245,333.75 242.835,315.163 								"/>
								<polygon fill="#FAF1BC" points="261.423,333.75 224.245,333.75 242.835,352.338 								"/>
								<polygon fill="#FAE778" points="261.423,370.927 261.423,333.75 242.835,352.338 								"/>
								<polygon fill="#FAE778" points="261.423,445.28 261.423,408.103 242.835,426.69 								"/>
								<polygon fill="#FAE778" points="224.245,370.927 224.245,333.75 242.835,352.338 								"/>
								<polygon fill="#FAE778" points="261.423,370.927 224.245,370.927 242.835,352.338 								"/>
								<polygon fill="#FBDF3D" points="261.423,370.927 224.245,370.927 242.834,389.514 								"/>
								<polygon fill="#FAE778" points="261.423,408.103 261.423,370.927 242.835,389.514 								"/>
								<polygon fill="#EDD133" points="224.245,408.103 224.245,370.927 242.835,389.514 								"/>
								<polygon fill="#FBE14D" points="261.423,408.103 224.245,408.103 242.835,389.514 								"/>
								<polygon fill="#FAE778" points="261.423,408.103 224.245,408.103 242.835,426.688 								"/>
								<polygon fill="#FADD2F" points="261.423,445.28 224.245,445.28 242.835,426.69 								"/>
								<polygon fill="#FAF5DD" points="261.423,445.28 224.245,445.28 242.835,463.868 								"/>
								<polygon fill="#FBDE34" points="261.423,482.456 261.423,445.28 242.835,463.868 								"/>
								<polygon fill="#FAE778" points="224.245,482.456 224.245,445.28 242.835,463.868 								"/>
								<polygon fill="#FBDE34" points="261.423,482.456 224.245,482.456 242.835,463.868 								"/>
								<polygon fill="#FBE14D" points="224.245,445.28 224.245,408.103 242.835,426.69 								"/>
							</g>
						</g>
					</g>
				</g>
			</g>
		</g>
		<g>
			<g>
				<g opacity="0.6">
					<polygon fill="#FAE778" points="1.188,482.454 -17.4,482.454 -17.402,501.043 					"/>
					<polygon fill="#FBDE34" points="1.188,519.629 1.188,482.454 -17.402,501.043 					"/>
					<polygon fill="#FAF1B9" points="1.188,519.629 -17.4,519.629 -17.402,501.043 					"/>
				</g>
			</g>
			<g>
				<g opacity="0.6">
					<polygon fill="#FAE778" points="1.188,296.572 -17.4,296.572 -17.402,315.161 					"/>
					<polygon fill="#FBDE34" points="1.188,333.75 1.188,296.572 -17.402,315.161 					"/>
					<polygon fill="#FAF1B9" points="1.188,333.75 -17.4,333.75 -17.402,315.163 					"/>
					<polygon fill="#FADD2F" points="1.188,333.75 -17.4,333.75 -17.402,352.338 					"/>
					<polygon fill="#FAE778" points="1.188,370.927 1.188,333.75 -17.402,352.338 					"/>
					<polygon fill="#FAE778" points="1.188,445.28 1.188,408.103 -17.402,426.69 					"/>
					<polygon fill="#FAE778" points="1.188,370.927 -17.4,370.927 -17.402,352.338 					"/>
					<polygon fill="#FAE778" points="1.186,370.927 -17.4,370.927 -17.402,389.514 					"/>
					<polygon fill="#FADD2F" points="1.188,408.103 1.188,370.927 -17.402,389.514 					"/>
					<polygon fill="#FAF1B9" points="1.188,408.103 -17.4,408.103 -17.402,389.514 					"/>
					<polygon fill="#FBDF3D" points="1.188,408.103 -17.4,408.103 -17.402,426.688 					"/>
					<polygon fill="#FBF4D0" points="1.188,445.28 -17.4,445.28 -17.402,426.69 					"/>
					<polygon fill="#FAE778" points="1.188,445.28 -17.4,445.28 -17.402,463.87 					"/>
					<polygon fill="#FAF1B9" points="1.188,482.456 1.188,445.28 -17.402,463.87 					"/>
					<polygon fill="#FBDE34" points="1.188,482.456 -17.399,482.456 -17.402,463.87 					"/>
				</g>
			</g>
		</g>
	</g>
	<g>
		<path fill="#FFFFFF" stroke="#787878" stroke-width="1.0273" d="M21.954,394.266v-76.829c0-1.027,0.514-1.541,1.541-1.541h250.648
			c1.027,0,1.541,0.513,1.541,1.541v76.829c0,1.027-0.514,1.541-1.541,1.541H23.495C22.468,395.807,21.954,395.293,21.954,394.266z"
			/>
		<rect x="22.468" y="333.873" fill="#787878" width="252.703" height="1.029"/>
		<rect x="27.604" y="346.202" fill="#F6DA07" width="4.109" height="14.382"/>
		<rect x="27.604" y="366.748" fill="#F6DA07" width="4.109" height="14.382"/>
		<path fill="none" stroke="#787878" stroke-width="1.0273" d="M31.714,325.142c0,0.709-0.25,1.314-0.752,1.815
			c-0.502,0.502-1.107,0.752-1.816,0.752s-1.314-0.25-1.816-0.752c-0.502-0.501-0.752-1.106-0.752-1.815
			c0-0.709,0.25-1.315,0.752-1.817c0.502-0.501,1.107-0.751,1.816-0.751s1.314,0.25,1.816,0.751
			C31.464,323.827,31.714,324.433,31.714,325.142z"/>
		<path fill="none" stroke="#787878" stroke-width="1.0273" d="M39.419,325.142c0,0.709-0.25,1.314-0.752,1.815
			c-0.502,0.502-1.107,0.752-1.816,0.752s-1.314-0.25-1.814-0.752c-0.504-0.501-0.754-1.106-0.754-1.815
			c0-0.709,0.25-1.315,0.754-1.817c0.5-0.501,1.105-0.751,1.814-0.751s1.314,0.25,1.816,0.751
			C39.169,323.827,39.419,324.433,39.419,325.142z"/>
		<path fill="none" stroke="#787878" stroke-width="1.0273" d="M47.638,325.142c0,0.709-0.25,1.314-0.752,1.815
			c-0.502,0.502-1.107,0.752-1.816,0.752s-1.314-0.25-1.816-0.752c-0.502-0.501-0.752-1.106-0.752-1.815
			c0-0.709,0.25-1.315,0.752-1.817c0.502-0.501,1.107-0.751,1.816-0.751s1.314,0.25,1.816,0.751
			C47.388,323.827,47.638,324.433,47.638,325.142z"/>
		<text transform="matrix(1 0 0 1 36.8516 355.4482)" fill="#4A4A4A" font-family="'SourceCodePro-Regular'" font-size="6.1639">n</text>
		<text transform="matrix(1 0 0 1 40.5498 355.4482)" fill="#4A4A4A" font-family="'SourceCodePro-Regular'" font-size="6.1639">p</text>
		<text transform="matrix(1 0 0 1 44.248 355.4482)" fill="#4A4A4A" font-family="'SourceCodePro-Regular'" font-size="6.1639">m</text>
		<text transform="matrix(1 0 0 1 47.9463 355.4482)" fill="#4A4A4A" font-family="'SourceCodePro-Regular'" font-size="6.1639"> </text>
		<text transform="matrix(1 0 0 1 51.6455 355.4482)" fill="#4A4A4A" font-family="'SourceCodePro-Regular'" font-size="6.1639">i</text>
		<text transform="matrix(1 0 0 1 55.3428 355.4482)" fill="#4A4A4A" font-family="'SourceCodePro-Regular'" font-size="6.1639">n</text>
		<text transform="matrix(1 0 0 1 59.042 355.4482)" fill="#4A4A4A" font-family="'SourceCodePro-Regular'" font-size="6.1639">s</text>
		<text transform="matrix(1 0 0 1 62.7393 355.4482)" fill="#4A4A4A" font-family="'SourceCodePro-Regular'" font-size="6.1639">t</text>
		<text transform="matrix(1 0 0 1 66.4385 355.4482)" fill="#4A4A4A" font-family="'SourceCodePro-Regular'" font-size="6.1639">a</text>
		<text transform="matrix(1 0 0 1 70.1357 355.4482)" fill="#4A4A4A" font-family="'SourceCodePro-Regular'" font-size="6.1639">l</text>
		<text transform="matrix(1 0 0 1 73.835 355.4482)" fill="#4A4A4A" font-family="'SourceCodePro-Regular'" font-size="6.1639">l</text>
		<text transform="matrix(1 0 0 1 77.5322 355.4482)" fill="#4A4A4A" font-family="'SourceCodePro-Regular'" font-size="6.1639"> </text>
		<text transform="matrix(1 0 0 1 81.2314 355.4482)" fill="#4A4A4A" font-family="'SourceCodePro-Regular'" font-size="6.1639">-</text>
		<text transform="matrix(1 0 0 1 84.9287 355.4482)" fill="#4A4A4A" font-family="'SourceCodePro-Regular'" font-size="6.1639">g</text>
		<text transform="matrix(1 0 0 1 88.6279 355.4482)" fill="#4A4A4A" font-family="'SourceCodePro-Regular'" font-size="6.1639"> </text>
		<text transform="matrix(1 0 0 1 92.3262 355.4482)" fill="#4A4A4A" font-family="'SourceCodePro-Regular'" font-size="6.1639">l</text>
		<text transform="matrix(1 0 0 1 96.0244 355.4482)" fill="#4A4A4A" font-family="'SourceCodePro-Regular'" font-size="6.1639">e</text>
		<text transform="matrix(1 0 0 1 99.7227 355.4482)" fill="#4A4A4A" font-family="'SourceCodePro-Regular'" font-size="6.1639">a</text>
		<text transform="matrix(1 0 0 1 103.4209 355.4482)" fill="#4A4A4A" font-family="'SourceCodePro-Regular'" font-size="6.1639">r</text>
		<text transform="matrix(1 0 0 1 107.1201 355.4482)" fill="#4A4A4A" font-family="'SourceCodePro-Regular'" font-size="6.1639">n</text>
		<text transform="matrix(1 0 0 1 110.8174 355.4482)" fill="#4A4A4A" font-family="'SourceCodePro-Regular'" font-size="6.1639">y</text>
		<text transform="matrix(1 0 0 1 114.5166 355.4482)" fill="#4A4A4A" font-family="'SourceCodePro-Regular'" font-size="6.1639">o</text>
		<text transform="matrix(1 0 0 1 118.2148 355.4482)" fill="#4A4A4A" font-family="'SourceCodePro-Regular'" font-size="6.1639">u</text>
		<text transform="matrix(1 0 0 1 121.9131 355.4482)" fill="#4A4A4A" font-family="'SourceCodePro-Regular'" font-size="6.1639">n</text>
		<text transform="matrix(1 0 0 1 125.6113 355.4482)" fill="#4A4A4A" font-family="'SourceCodePro-Regular'" font-size="6.1639">o</text>
		<text transform="matrix(1 0 0 1 129.3096 355.4482)" fill="#4A4A4A" font-family="'SourceCodePro-Regular'" font-size="6.1639">d</text>
		<text transform="matrix(1 0 0 1 133.0088 355.4482)" fill="#4A4A4A" font-family="'SourceCodePro-Regular'" font-size="6.1639">e</text>
		<text transform="matrix(1 0 0 1 36.8516 375.9941)" fill="#4A4A4A" font-family="'SourceCodePro-Regular'" font-size="6.1639">l</text>
		<text transform="matrix(1 0 0 1 40.5498 375.9941)" fill="#4A4A4A" font-family="'SourceCodePro-Regular'" font-size="6.1639">e</text>
		<text transform="matrix(1 0 0 1 44.248 375.9941)" fill="#4A4A4A" font-family="'SourceCodePro-Regular'" font-size="6.1639">a</text>
		<text transform="matrix(1 0 0 1 47.9463 375.9941)" fill="#4A4A4A" font-family="'SourceCodePro-Regular'" font-size="6.1639">r</text>
		<text transform="matrix(1 0 0 1 51.6455 375.9941)" fill="#4A4A4A" font-family="'SourceCodePro-Regular'" font-size="6.1639">n</text>
		<text transform="matrix(1 0 0 1 55.3428 375.9941)" fill="#4A4A4A" font-family="'SourceCodePro-Regular'" font-size="6.1639">y</text>
		<text transform="matrix(1 0 0 1 59.042 375.9941)" fill="#4A4A4A" font-family="'SourceCodePro-Regular'" font-size="6.1639">o</text>
		<text transform="matrix(1 0 0 1 62.7393 375.9941)" fill="#4A4A4A" font-family="'SourceCodePro-Regular'" font-size="6.1639">u</text>
		<text transform="matrix(1 0 0 1 66.4385 375.9941)" fill="#4A4A4A" font-family="'SourceCodePro-Regular'" font-size="6.1639">n</text>
		<text transform="matrix(1 0 0 1 70.1357 375.9941)" fill="#4A4A4A" font-family="'SourceCodePro-Regular'" font-size="6.1639">o</text>
		<text transform="matrix(1 0 0 1 73.835 375.9941)" fill="#4A4A4A" font-family="'SourceCodePro-Regular'" font-size="6.1639">d</text>
		<text transform="matrix(1 0 0 1 77.5322 375.9941)" fill="#4A4A4A" font-family="'SourceCodePro-Regular'" font-size="6.1639">e</text>
		<path fill="#FFFFFF" stroke="#787878" stroke-width="1.0273" d="M21.954,500.081v-96.569c0-1.026,0.514-1.542,1.541-1.542h250.648
			c1.027,0,1.541,0.515,1.541,1.542v96.569c0,1.026-0.514,1.54-1.541,1.54H23.495C22.468,501.621,21.954,501.107,21.954,500.081z"/>
		<rect x="22.468" y="419.95" fill="#787878" width="252.703" height="1.025"/>
		<rect x="27.604" y="426.112" fill="#F8F0BD" width="242.43" height="69.858"/>
		<path fill="none" stroke="#787878" stroke-width="1.0273" d="M31.714,411.217c0,0.709-0.25,1.315-0.752,1.815
			c-0.502,0.501-1.107,0.753-1.816,0.753s-1.314-0.252-1.816-0.753c-0.502-0.5-0.752-1.106-0.752-1.815
			c0-0.71,0.25-1.314,0.752-1.816s1.107-0.752,1.816-0.752s1.314,0.25,1.816,0.752S31.714,410.507,31.714,411.217z"/>
		<path fill="none" stroke="#787878" stroke-width="1.0273" d="M39.419,411.217c0,0.709-0.25,1.315-0.752,1.815
			c-0.502,0.501-1.107,0.753-1.816,0.753s-1.314-0.252-1.814-0.753c-0.504-0.5-0.754-1.106-0.754-1.815
			c0-0.71,0.25-1.314,0.754-1.816c0.5-0.502,1.105-0.752,1.814-0.752s1.314,0.25,1.816,0.752S39.419,410.507,39.419,411.217z"/>
		<path fill="none" stroke="#787878" stroke-width="1.0273" d="M47.638,411.217c0,0.709-0.25,1.315-0.752,1.815
			c-0.502,0.501-1.107,0.753-1.816,0.753s-1.314-0.252-1.816-0.753c-0.502-0.5-0.752-1.106-0.752-1.815
			c0-0.71,0.25-1.314,0.752-1.816s1.107-0.752,1.816-0.752s1.314,0.25,1.816,0.752S47.638,410.507,47.638,411.217z"/>
		<text transform="matrix(1 0 0 1 33.7686 442.5493)" fill="#4A4A4A" font-family="'SourceCodePro-Regular'" font-size="6.1639">»</text>
		<text transform="matrix(1 0 0 1 37.4678 442.5493)" fill="#4A4A4A" font-family="'SourceCodePro-Regular'" font-size="6.1639"> </text>
		<text transform="matrix(1 0 0 1 41.165 442.5493)" fill="#4A4A4A" font-family="'SourceCodePro-Regular'" font-size="6.1639">H</text>
		<text transform="matrix(1 0 0 1 44.8643 442.5493)" fill="#4A4A4A" font-family="'SourceCodePro-Regular'" font-size="6.1639">E</text>
		<text transform="matrix(1 0 0 1 48.5625 442.5493)" fill="#4A4A4A" font-family="'SourceCodePro-Regular'" font-size="6.1639">L</text>
		<text transform="matrix(1 0 0 1 52.2607 442.5493)" fill="#4A4A4A" font-family="'SourceCodePro-Regular'" font-size="6.1639">L</text>
		<text transform="matrix(1 0 0 1 55.96 442.5493)" fill="#4A4A4A" font-family="'SourceCodePro-Regular'" font-size="6.1639">O</text>
		<text transform="matrix(1 0 0 1 59.6572 442.5493)" fill="#4A4A4A" font-family="'SourceCodePro-Regular'" font-size="6.1639"> </text>
		<text transform="matrix(1 0 0 1 63.3564 442.5493)" fill="#4A4A4A" font-family="'SourceCodePro-Regular'" font-size="6.1639">W</text>
		<text transform="matrix(1 0 0 1 67.0537 442.5493)" fill="#4A4A4A" font-family="'SourceCodePro-Regular'" font-size="6.1639">O</text>
		<text transform="matrix(1 0 0 1 70.7529 442.5493)" fill="#4A4A4A" font-family="'SourceCodePro-Regular'" font-size="6.1639">R</text>
		<text transform="matrix(1 0 0 1 74.4512 442.5493)" fill="#4A4A4A" font-family="'SourceCodePro-Regular'" font-size="6.1639">L</text>
		<text transform="matrix(1 0 0 1 78.1494 442.5493)" fill="#4A4A4A" font-family="'SourceCodePro-Regular'" font-size="6.1639">D</text>
		<text transform="matrix(1 0 0 1 33.7686 463.0962)" fill="#4A4A4A" font-family="'SourceCodePro-Regular'" font-size="6.1639">»</text>
		<text transform="matrix(1 0 0 1 37.4678 463.0962)" fill="#4A4A4A" font-family="'SourceCodePro-Regular'" font-size="6.1639"> </text>
		<text transform="matrix(1 0 0 1 41.165 463.0962)" fill="#4A4A4A" font-family="'SourceCodePro-Regular'" font-size="6.1639">B</text>
		<text transform="matrix(1 0 0 1 44.8643 463.0962)" fill="#4A4A4A" font-family="'SourceCodePro-Regular'" font-size="6.1639">A</text>
		<text transform="matrix(1 0 0 1 48.5625 463.0962)" fill="#4A4A4A" font-family="'SourceCodePro-Regular'" font-size="6.1639">B</text>
		<text transform="matrix(1 0 0 1 52.2607 463.0962)" fill="#4A4A4A" font-family="'SourceCodePro-Regular'" font-size="6.1639">Y</text>
		<text transform="matrix(1 0 0 1 55.96 463.0962)" fill="#4A4A4A" font-family="'SourceCodePro-Regular'" font-size="6.1639"> </text>
		<text transform="matrix(1 0 0 1 59.6572 463.0962)" fill="#4A4A4A" font-family="'SourceCodePro-Regular'" font-size="6.1639">S</text>
		<text transform="matrix(1 0 0 1 63.3564 463.0962)" fill="#4A4A4A" font-family="'SourceCodePro-Regular'" font-size="6.1639">T</text>
		<text transform="matrix(1 0 0 1 67.0537 463.0962)" fill="#4A4A4A" font-family="'SourceCodePro-Regular'" font-size="6.1639">E</text>
		<text transform="matrix(1 0 0 1 70.7529 463.0962)" fill="#4A4A4A" font-family="'SourceCodePro-Regular'" font-size="6.1639">P</text>
		<text transform="matrix(1 0 0 1 74.4512 463.0962)" fill="#4A4A4A" font-family="'SourceCodePro-Regular'" font-size="6.1639">S</text>
		<text transform="matrix(1 0 0 1 33.7686 483.6431)" fill="#4A4A4A" font-family="'SourceCodePro-Regular'" font-size="6.1639">»</text>
		<text transform="matrix(1 0 0 1 37.4678 483.6431)" fill="#4A4A4A" font-family="'SourceCodePro-Regular'" font-size="6.1639"> </text>
		<text transform="matrix(1 0 0 1 41.165 483.6431)" fill="#4A4A4A" font-family="'SourceCodePro-Regular'" font-size="6.1639">M</text>
		<text transform="matrix(1 0 0 1 44.8643 483.6431)" fill="#4A4A4A" font-family="'SourceCodePro-Regular'" font-size="6.1639">Y</text>
		<text transform="matrix(1 0 0 1 48.5625 483.6431)" fill="#4A4A4A" font-family="'SourceCodePro-Regular'" font-size="6.1639"> </text>
		<text transform="matrix(1 0 0 1 52.2607 483.6431)" fill="#4A4A4A" font-family="'SourceCodePro-Regular'" font-size="6.1639">F</text>
		<text transform="matrix(1 0 0 1 55.96 483.6431)" fill="#4A4A4A" font-family="'SourceCodePro-Regular'" font-size="6.1639">I</text>
		<text transform="matrix(1 0 0 1 59.6572 483.6431)" fill="#4A4A4A" font-family="'SourceCodePro-Regular'" font-size="6.1639">R</text>
		<text transform="matrix(1 0 0 1 63.3564 483.6431)" fill="#4A4A4A" font-family="'SourceCodePro-Regular'" font-size="6.1639">S</text>
		<text transform="matrix(1 0 0 1 67.0537 483.6431)" fill="#4A4A4A" font-family="'SourceCodePro-Regular'" font-size="6.1639">T</text>
		<text transform="matrix(1 0 0 1 70.7529 483.6431)" fill="#4A4A4A" font-family="'SourceCodePro-Regular'" font-size="6.1639"> </text>
		<text transform="matrix(1 0 0 1 74.4512 483.6431)" fill="#4A4A4A" font-family="'SourceCodePro-Regular'" font-size="6.1639">I</text>
		<text transform="matrix(1 0 0 1 78.1494 483.6431)" fill="#4A4A4A" font-family="'SourceCodePro-Regular'" font-size="6.1639">/</text>
		<text transform="matrix(1 0 0 1 81.8477 483.6431)" fill="#4A4A4A" font-family="'SourceCodePro-Regular'" font-size="6.1639">O</text>
		<text transform="matrix(1 0 0 1 85.5459 483.6431)" fill="#4A4A4A" font-family="'SourceCodePro-Regular'" font-size="6.1639">!</text>
	</g>
</g>
<g>
	<rect x="28.044" y="796.482" fill="none" width="230.338" height="44.062"/>
	<text transform="matrix(1 0 0 1 82.7129 806.2954)" fill="#333333" font-family="'SourceSansPro-Bold'" font-size="14">Ready? Set? Node!*</text>
</g>
<text transform="matrix(1 0 0 1 204.333 832.2896)" fill="#333333" font-family="'SourceSansPro-Regular'" font-size="9.3791">* Bad jokes included.</text>
</svg>
