<?xml version="1.0" encoding="utf-8"?>
<!-- Generator: Adobe Illustrator 16.0.0, SVG Export Plug-In . SVG Version: 6.00 Build 0)  -->
<!DOCTYPE svg PUBLIC "-//W3C//DTD SVG 1.1//EN" "http://www.w3.org/Graphics/SVG/1.1/DTD/svg11.dtd">
<svg version="1.1" id="Layer_1" xmlns="http://www.w3.org/2000/svg" xmlns:xlink="http://www.w3.org/1999/xlink" x="0px" y="0px"
	 width="379.105px" height="436.525px" viewBox="0 0 379.105 436.525" enable-background="new 0 0 379.105 436.525"
	 xml:space="preserve">
<path fill="#FBDE34" d="M189.553,436.525c-0.695,0-1.383-0.185-1.988-0.533L1.986,328.847c-1.227-0.707-1.987-2.024-1.987-3.439
	v-214.29c0-1.416,0.761-2.734,1.985-3.439L187.564,0.532C188.167,0.184,188.855,0,189.553,0s1.386,0.184,1.989,0.533L377.12,107.677
	c1.225,0.707,1.986,2.025,1.986,3.44v214.29c0,1.415-0.762,2.732-1.986,3.438L191.542,435.991
	C190.937,436.342,190.25,436.525,189.553,436.525z"/>
<path fill="#343433" d="M377.119,107.678L191.541,0.532C190.938,0.184,190.25,0,189.554,0s-1.385,0.184-1.987,0.532L1.986,107.679
	C0.762,108.384,0,109.702,0,111.118v214.29c0,1.414,0.762,2.732,1.988,3.439l185.578,107.145c0.604,0.35,1.292,0.533,1.988,0.533
	c0.695,0,1.381-0.184,1.986-0.533l185.58-107.146c1.225-0.705,1.984-2.023,1.984-3.438v-214.29
	C379.105,109.702,378.346,108.384,377.119,107.678z M5.669,324.426V112.099L189.554,5.932l183.884,106.166v212.33L189.554,430.594
	L5.669,324.426z"/>
<g>
	<path fill="#343433" d="M113.226,74.833c0.512,0.891,1.65,1.193,2.537,0.68l66.35-38.307l-28.219,36
		c-0.633,0.809-0.49,1.977,0.316,2.607c0.809,0.631,1.975,0.492,2.607-0.314l30.82-39.32V74.61c0,1.025,0.833,1.857,1.855,1.857
		c1.025,0,1.856-0.832,1.856-1.857V36.18l30.82,39.318c0.633,0.807,1.799,0.947,2.609,0.314c0.805-0.631,0.947-1.799,0.314-2.607
		l-28.219-36l67.574,39.014c0.887,0.512,2.023,0.209,2.537-0.68c0.512-0.889,0.209-2.023-0.68-2.537l-75.884-43.811
		c-0.018-0.01-0.039-0.014-0.057-0.023c-0.066-0.035-0.133-0.062-0.203-0.09c-0.021-0.01-0.039-0.025-0.062-0.035
		c-0.02-0.006-0.039-0.004-0.059-0.01c-0.035-0.01-0.066-0.023-0.102-0.033c-0.145-0.035-0.291-0.057-0.439-0.057l-0.008-0.002l0,0
		l0,0c0,0-0.002,0.002-0.004,0.002c-0.15,0-0.299,0.021-0.443,0.057c-0.031,0.008-0.061,0.021-0.092,0.031
		c-0.041,0.012-0.08,0.029-0.121,0.045c-0.072,0.027-0.142,0.055-0.21,0.092c-0.02,0.01-0.039,0.014-0.057,0.023l-74.661,43.105
		C113.017,72.809,112.714,73.944,113.226,74.833z"/>
	<g>
		<path fill="#343433" d="M265.773,361.65c-0.512-0.891-1.65-1.193-2.537-0.68l-66.35,38.307l28.219-36
			c0.633-0.809,0.49-1.977-0.316-2.607c-0.809-0.631-1.975-0.492-2.607,0.314l-30.818,39.32v-38.432
			c0-1.025-0.831-1.857-1.856-1.857s-1.857,0.832-1.857,1.857v38.43l-30.82-39.318c-0.633-0.807-1.797-0.947-2.607-0.314
			c-0.807,0.631-0.947,1.799-0.316,2.607l28.219,36l-67.572-39.014c-0.889-0.512-2.025-0.209-2.537,0.68s-0.209,2.023,0.68,2.537
			l75.882,43.811c0.02,0.01,0.039,0.014,0.057,0.023c0.066,0.035,0.133,0.062,0.203,0.09c0.023,0.01,0.041,0.025,0.064,0.035
			c0.018,0.006,0.039,0.004,0.057,0.01c0.035,0.01,0.068,0.023,0.102,0.033c0.145,0.035,0.291,0.057,0.439,0.057l0.008,0.002l0,0
			l0,0c0,0,0.002-0.002,0.004-0.002c0.15,0,0.299-0.021,0.443-0.057c0.031-0.008,0.061-0.021,0.092-0.031
			c0.043-0.012,0.082-0.029,0.123-0.045c0.07-0.027,0.141-0.055,0.211-0.092c0.018-0.01,0.037-0.014,0.055-0.023l74.659-43.105
			C265.982,363.674,266.285,362.539,265.773,361.65z"/>
		<circle fill="#343433" cx="273.301" cy="358.154" r="2.327"/>
		<circle fill="#343433" cx="106.912" cy="357.682" r="2.327"/>
		<path fill="#343433" d="M147.159,359.533l-2.754-9.244c-0.188-0.641-0.049-1.242,0.463-1.678l0.109-0.094
			c0.512-0.438,1.114-0.469,1.717-0.184l8.697,4.176c0.174,0.08,0.314,0.172,0.417,0.293c0.429,0.5,0.381,1.232-0.118,1.66
			c-0.439,0.375-0.949,0.367-1.453,0.123l-1.715-0.852l-3.75,3.199l0.598,1.91c0.154,0.5,0.023,0.99-0.365,1.322
			c-0.487,0.416-1.197,0.35-1.613-0.139C147.278,359.895,147.211,359.717,147.159,359.533z M150.415,352.672l-3.58-1.807
			l1.219,3.822L150.415,352.672z"/>
		<path fill="#343433" d="M183.953,340.561c0-0.688,0.543-1.232,1.232-1.232h0.271c0.529,0,0.896,0.271,1.121,0.641l2.976,4.85
			l2.992-4.865c0.256-0.416,0.607-0.625,1.104-0.625h0.271c0.689,0,1.232,0.545,1.232,1.232v8.9c0,0.688-0.543,1.232-1.232,1.232
			c-0.672,0-1.215-0.561-1.215-1.232v-5.586l-2.161,3.328c-0.256,0.385-0.575,0.625-1.022,0.625c-0.449,0-0.77-0.24-1.025-0.625
			l-2.128-3.281v5.57c0,0.672-0.543,1.201-1.217,1.201c-0.672,0-1.199-0.529-1.199-1.201V340.561z"/>
		<path fill="#343433" d="M227.763,352.766c-0.096-0.318-0.029-0.713,0.209-1.016c0.395-0.504,1.105-0.576,1.607-0.182
			c0.252,0.197,0.359,0.426,0.416,0.613c0.281,1.014,0.773,1.889,1.629,2.562c0.793,0.623,1.518,0.684,1.924,0.168l0.02-0.023
			c0.387-0.49,0.283-0.98-0.893-2.516c-1.418-1.848-2.176-3.238-0.803-4.988l0.021-0.025c1.256-1.598,3.371-1.645,5.17-0.229
			c1.068,0.84,1.783,1.85,2.18,2.977c0.113,0.293,0.121,0.727-0.176,1.104c-0.396,0.504-1.105,0.576-1.609,0.182
			c-0.188-0.148-0.299-0.318-0.383-0.525c-0.344-0.883-0.779-1.57-1.385-2.045c-0.74-0.584-1.398-0.553-1.734-0.125l-0.02,0.025
			c-0.455,0.58-0.225,1.066,0.988,2.652c1.42,1.871,1.924,3.305,0.717,4.84l-0.02,0.025c-1.375,1.748-3.482,1.68-5.381,0.186
			C229.083,355.516,228.19,354.242,227.763,352.766z"/>
	</g>
	<g>
		<path fill="#343433" d="M120.176,102.782c0.805,0,1.459-0.653,1.459-1.459v-7.191l5.909,7.75c0.4,0.515,0.821,0.862,1.534,0.862
			h0.097c0.822,0,1.474-0.651,1.474-1.478V90.58c0-0.805-0.651-1.456-1.456-1.456s-1.459,0.651-1.459,1.456v6.927l-5.698-7.48
			c-0.4-0.52-0.825-0.863-1.534-0.863h-0.308c-0.821,0-1.477,0.65-1.477,1.478v10.683
			C118.717,102.128,119.372,102.782,120.176,102.782z"/>
		<path fill="#343433" d="M140.404,102.897c4.143,0,7.153-3.126,7.153-6.945v-0.036c0-3.82-2.972-6.906-7.117-6.906
			c-4.142,0-7.156,3.125-7.156,6.942v0.039C133.284,99.806,136.26,102.897,140.404,102.897z M136.374,95.916
			c0-2.304,1.649-4.185,4.03-4.185c2.375,0,4.068,1.921,4.068,4.221v0.039c0,2.304-1.653,4.181-4.032,4.181s-4.066-1.917-4.066-4.22
			V95.916z"/>
		<path fill="#343433" d="M151.675,102.667h3.759c4.221,0,7.135-2.936,7.135-6.716v-0.036c0-3.781-2.914-6.678-7.135-6.678h-3.759
			c-0.825,0-1.48,0.654-1.48,1.478v10.476C150.194,102.013,150.85,102.667,151.675,102.667z M153.148,91.906h2.285
			c2.414,0,4.045,1.667,4.045,4.046v0.039c0,2.378-1.631,4.009-4.045,4.009h-2.285V91.906z"/>
		<path fill="#343433" d="M166.682,102.667h7.54c0.729,0,1.323-0.575,1.323-1.305s-0.595-1.324-1.323-1.324h-6.081v-2.822h5.122
			c0.73,0,1.323-0.57,1.323-1.301s-0.593-1.323-1.323-1.323h-5.122v-2.725h5.984c0.73,0,1.327-0.576,1.327-1.307
			c0-0.726-0.597-1.323-1.327-1.323h-7.443c-0.822,0-1.477,0.654-1.477,1.478v10.476
			C165.205,102.013,165.859,102.667,166.682,102.667z"/>
		<path fill="#343433" d="M177.798,101.248c1.495,1.073,3.279,1.61,5.043,1.61c2.897,0,4.93-1.495,4.93-4.163v-0.04
			c0-2.339-1.533-3.315-4.257-4.027c-2.321-0.594-2.897-0.884-2.897-1.763v-0.039c0-0.655,0.597-1.169,1.728-1.169
			c0.923,0,1.841,0.324,2.82,0.9c0.23,0.135,0.459,0.211,0.748,0.211c0.766,0,1.381-0.598,1.381-1.363
			c0-0.575-0.326-0.976-0.65-1.169c-1.209-0.765-2.629-1.191-4.259-1.191c-2.742,0-4.699,1.613-4.699,4.05v0.039
			c0,2.665,1.745,3.415,4.448,4.102c2.247,0.579,2.704,0.963,2.704,1.71v0.039c0,0.787-0.725,1.267-1.933,1.267
			c-1.306,0-2.419-0.462-3.438-1.21c-0.188-0.135-0.458-0.268-0.84-0.268c-0.769,0-1.384,0.594-1.384,1.363
			C177.24,100.593,177.473,101.016,177.798,101.248z"/>
		<path fill="#343433" d="M196.642,102.897c2.148,0,3.566-0.633,4.773-1.688c0.273-0.232,0.502-0.594,0.502-1.055
			c0-0.748-0.633-1.362-1.381-1.362c-0.348,0-0.652,0.135-0.883,0.328c-0.846,0.669-1.672,1.052-2.916,1.052
			c-2.303,0-3.893-1.917-3.893-4.22v-0.036c0-2.304,1.629-4.185,3.893-4.185c1.055,0,1.918,0.347,2.744,0.961
			c0.209,0.134,0.479,0.287,0.883,0.287c0.805,0,1.455-0.633,1.455-1.438c0-0.519-0.266-0.941-0.574-1.17
			c-1.111-0.826-2.477-1.362-4.49-1.362c-4.123,0-7.002,3.125-7.002,6.942v0.039C189.753,99.846,192.688,102.897,196.642,102.897z"
			/>
		<path fill="#343433" d="M205.991,102.782c0.826,0,1.477-0.653,1.477-1.477v-4.027h5.451v4.027c0,0.823,0.648,1.477,1.473,1.477
			c0.826,0,1.479-0.653,1.479-1.477V90.6c0-0.825-0.652-1.477-1.479-1.477c-0.824,0-1.473,0.651-1.473,1.477v3.953h-5.451V90.6
			c0-0.825-0.65-1.477-1.477-1.477c-0.828,0-1.479,0.651-1.479,1.477v10.705C204.513,102.128,205.163,102.782,205.991,102.782z"/>
		<path fill="#343433" d="M225.626,102.897c4.141,0,7.152-3.126,7.152-6.945v-0.036c0-3.82-2.971-6.906-7.117-6.906
			c-4.141,0-7.152,3.125-7.152,6.942v0.039C218.509,99.806,221.479,102.897,225.626,102.897z M221.595,95.916
			c0-2.304,1.652-4.185,4.031-4.185s4.066,1.921,4.066,4.221v0.039c0,2.304-1.652,4.181-4.031,4.181s-4.066-1.917-4.066-4.22V95.916
			z"/>
		<path fill="#343433" d="M241.938,102.897c4.145,0,7.156-3.126,7.156-6.945v-0.036c0-3.82-2.975-6.906-7.117-6.906
			c-4.145,0-7.156,3.125-7.156,6.942v0.039C234.821,99.806,237.792,102.897,241.938,102.897z M237.911,95.916
			c0-2.304,1.648-4.185,4.027-4.185c2.377,0,4.066,1.921,4.066,4.221v0.039c0,2.304-1.648,4.181-4.027,4.181
			c-2.377,0-4.066-1.917-4.066-4.22V95.916z"/>
		<path fill="#343433" d="M253.208,102.667h6.947c0.746,0,1.34-0.597,1.34-1.345s-0.594-1.341-1.34-1.341h-5.471V90.6
			c0-0.825-0.648-1.477-1.477-1.477c-0.826,0-1.477,0.651-1.477,1.477v10.591C251.731,102.013,252.382,102.667,253.208,102.667z"/>
	</g>
</g>
<g>
	<path fill="#343433" d="M113.413,153.24H102.06c-1.148,0-2.079,0.931-2.079,2.079v26.423c0,1.148,0.931,2.079,2.079,2.079h11.353
		c1.148,0,2.079-0.931,2.079-2.079v-26.423C115.491,154.17,114.561,153.24,113.413,153.24z M104.139,165.539h7.195v14.124h-7.195
		V165.539z M111.334,157.397v3.985h-7.195v-3.985H111.334z"/>
	<path fill="#343433" d="M148.755,153.24h-11.353c-1.148,0-2.079,0.931-2.079,2.079v26.423c0,1.148,0.931,2.079,2.079,2.079h11.353
		c1.148,0,2.079-0.931,2.079-2.079v-26.423C150.834,154.17,149.903,153.24,148.755,153.24z M139.481,165.539h7.195v14.124h-7.195
		V165.539z M146.677,157.397v3.985h-7.195v-3.985H146.677z"/>
	<path fill="#343433" d="M131.084,153.24h-11.353c-1.148,0-2.079,0.931-2.079,2.079v26.423c0,1.148,0.931,2.079,2.079,2.079h11.353
		c1.148,0,2.079-0.931,2.079-2.079v-26.423C133.163,154.17,132.232,153.24,131.084,153.24z M121.81,165.539h7.195v14.124h-7.195
		V165.539z M129.005,157.397v3.985h-7.195v-3.985H129.005z"/>
	<path fill="#343433" d="M113.413,186.583H102.06c-1.148,0-2.079,0.931-2.079,2.079v26.423c0,1.148,0.931,2.079,2.079,2.079h11.353
		c1.148,0,2.079-0.931,2.079-2.079v-26.423C115.491,187.513,114.561,186.583,113.413,186.583z M104.139,198.882h7.195v14.124h-7.195
		V198.882z M111.334,190.74v3.985h-7.195v-3.985H111.334z"/>
	<path fill="#343433" d="M148.755,186.583h-11.353c-1.148,0-2.079,0.931-2.079,2.079v26.423c0,1.148,0.931,2.079,2.079,2.079h11.353
		c1.148,0,2.079-0.931,2.079-2.079v-26.423C150.834,187.513,149.903,186.583,148.755,186.583z M139.481,198.882h7.195v14.124h-7.195
		V198.882z M146.677,190.74v3.985h-7.195v-3.985H146.677z"/>
	<path fill="#343433" d="M131.084,186.583h-11.353c-1.148,0-2.079,0.931-2.079,2.079v26.423c0,1.148,0.931,2.079,2.079,2.079h11.353
		c1.148,0,2.079-0.931,2.079-2.079v-26.423C133.163,187.513,132.232,186.583,131.084,186.583z M121.81,198.882h7.195v14.124h-7.195
		V198.882z M129.005,190.74v3.985h-7.195v-3.985H129.005z"/>
	<path fill="#343433" d="M113.413,219.926H102.06c-1.148,0-2.079,0.93-2.079,2.078v26.424c0,1.148,0.931,2.078,2.079,2.078h11.353
		c1.148,0,2.079-0.93,2.079-2.078v-26.424C115.491,220.855,114.561,219.926,113.413,219.926z M104.139,232.225h7.195v14.125h-7.195
		V232.225z M111.334,224.082v3.986h-7.195v-3.986H111.334z"/>
	<path fill="#343433" d="M148.755,219.926h-11.353c-1.148,0-2.079,0.93-2.079,2.078v26.424c0,1.148,0.931,2.078,2.079,2.078h11.353
		c1.148,0,2.079-0.93,2.079-2.078v-26.424C150.834,220.855,149.903,219.926,148.755,219.926z M139.481,232.225h7.195v14.125h-7.195
		V232.225z M146.677,224.082v3.986h-7.195v-3.986H146.677z"/>
	<path fill="#343433" d="M131.084,219.926h-11.353c-1.148,0-2.079,0.93-2.079,2.078v26.424c0,1.148,0.931,2.078,2.079,2.078h11.353
		c1.148,0,2.079-0.93,2.079-2.078v-26.424C133.163,220.855,132.232,219.926,131.084,219.926z M121.81,232.225h7.195v14.125h-7.195
		V232.225z M129.005,224.082v3.986h-7.195v-3.986H129.005z"/>
	<path fill="#343433" d="M163.947,170.937v1.434c0,0.695,0.361,1.34,0.953,1.704l0.417,0.256v20.008c0,1.104,0.896,2,2,2h32.24
		c1.104,0,2-0.896,2-2V174.33l0.417-0.256c0.592-0.364,0.952-1.009,0.952-1.704v-1.434c0-1.104-0.896-2-2-2h-34.978
		C164.842,168.937,163.947,169.832,163.947,170.937z M169.316,181.713h6.668v10.625h-6.668V181.713z M187.366,181.713v10.625h-7.382
		v-10.625H187.366z M179.984,177.713v-4.776h7.382v4.776H179.984z M191.365,192.338v-10.625h6.19v10.625H191.365z M197.556,173.212
		v4.501h-6.19v-4.776h6.209C197.562,173.027,197.556,173.119,197.556,173.212z M175.984,172.937v4.776h-6.668v-4.501
		c0-0.093-0.006-0.185-0.019-0.275H175.984z"/>
	<path fill="#343433" d="M195.257,290.211c-7.095,0-12.653,3.608-12.653,8.216v23.512c0,1.104,0.896,2,2,2h21.307
		c1.104,0,2-0.896,2-2v-23.512C207.911,293.819,202.353,290.211,195.257,290.211z M195.257,294.211c4.953,0,8.654,2.226,8.654,4.216
		v1.261h-17.307v-1.261C186.604,296.437,190.305,294.211,195.257,294.211z M186.604,303.688h6.653v16.251h-6.653V303.688z
		 M197.257,319.938v-16.251h6.654v16.251H197.257z"/>
	<path fill="#343433" d="M335.09,319.938h-49.667V157.55c0.951-0.154,1.68-0.973,1.68-1.968v-6.095c0-0.995-0.729-1.813-1.68-1.968
		v-0.54c0-1.065-0.833-1.936-1.883-1.997v-5.399c0.611-0.342,1.025-0.997,1.025-1.747v-2.019c0-1.104-0.896-2-2-2h-19.975
		c-1.268-5.693-7.772-9.835-13.68-9.933l-3.027,0c-5.876,0.097-12.378,4.239-13.645,9.932h-19.973c-1.104,0-2,0.896-2,2v2.019
		c0,0.75,0.414,1.405,1.025,1.747v5.399c-1.05,0.061-1.883,0.931-1.883,1.997v0.54c-0.951,0.154-1.68,0.973-1.68,1.968v6.095
		c0,0.995,0.729,1.813,1.68,1.968v13.523h-0.737l-12.899-27.396v-5.498c0.677-0.32,1.145-1.01,1.145-1.808v-1.701
		c0.081-0.107,0.152-0.224,0.212-0.348c0.332-0.696,0.233-1.521-0.253-2.121c-5.595-6.896-11.91-6.792-12.938-6.723h-0.773
		c-1.033-0.069-7.343-0.172-12.938,6.723c-0.486,0.599-0.584,1.424-0.252,2.12c0.059,0.125,0.13,0.24,0.211,0.347v1.702
		c0,0.799,0.468,1.488,1.146,1.809v5.5l-12.824,27.393h-0.764v-17.778c1.091-0.016,1.971-0.905,1.971-2v-2.717c0-1.104-0.896-2-2-2
		h-3.258l-7.94-22.653c-0.281-0.802-1.038-1.338-1.887-1.338h-5.299c-0.18-0.502-0.554-0.934-1.083-1.163l-11.299-4.9
		c-0.251-0.109-0.522-0.165-0.796-0.165h-0.135c-0.274,0-0.544,0.056-0.796,0.165l-11.299,4.9c-0.528,0.229-0.903,0.661-1.083,1.163
		h-5.538c-0.85,0-1.606,0.537-1.887,1.338l-7.94,22.653h-2.317c-1.104,0-2,0.896-2,2v171.36h-48.82c-1.104,0-2,0.896-2,2
		s0.896,2,2,2h50.82c1.104,0,2-0.896,2-2v-29.711c0.361,1.65,1.513,3.007,3.042,3.646v4.45v1.296v20.319c0,1.104,0.896,2,2,2h43.824
		c1.104,0,2-0.896,2-2v-3.106c0-1.104-0.896-2-2-2h-1.934v-0.869c0-1.104-0.896-2-2-2h-1.933v-0.867c0-1.104-0.896-2-2-2h-1.933
		v-0.87c0-1.104-0.896-2-2-2h-1.933v-0.869c0-1.104-0.896-2-2-2h-1.934v-0.867c0-1.104-0.896-2-2-2h-1.933v-0.87
		c0-1.104-0.896-2-2-2h-18.227v-3.396h6.962c1.104,0,2-0.896,2-2s-0.896-2-2-2h-8.987c-0.088,0-0.176,0.006-0.261,0.018
		c-0.503-0.118-0.879-0.57-0.879-1.109c0-0.63,0.512-1.142,1.141-1.142h19.146l8.47,5.968c0.083,0.068,0.169,0.131,0.263,0.186
		l6.189,4.36c0.003,0.002,0.005,0.006,0.009,0.008l3.894,2.743c0.002,0.001,0.004,0.002,0.006,0.003l6.355,4.478
		c0.241,0.186,0.396,0.453,0.435,0.756c0.039,0.303-0.042,0.603-0.228,0.844c-0.327,0.426-0.896,0.557-1.366,0.348
		c-0.063-0.064-0.131-0.124-0.204-0.181l-1.487-1.144c-0.877-0.673-2.131-0.51-2.805,0.367c-0.673,0.875-0.509,2.131,0.366,2.805
		l1.134,0.871c0.094,0.114,0.202,0.219,0.324,0.312c0.932,0.718,2.035,1.064,3.128,1.064c1.543,0,3.069-0.689,4.081-2.004
		c0.837-1.089,1.2-2.438,1.023-3.8c-0.178-1.363-0.875-2.574-2.031-3.46l-1.27-0.895h1.124c1.104,0,2-0.896,2-2v-34.217
		c0-1.104-0.896-2-2-2h-11.328c-1.104,0-2,0.896-2,2v27.617l-2.344-1.651v-25.966c0-1.104-0.896-2-2-2H119.73c-1.104,0-2,0.896-2,2
		v18.587h-2.81v-15.024c0-0.084-0.007-0.167-0.019-0.25c-0.316-2.062-2.235-5.964-7.234-5.964c-5.033,0-6.85,3.932-7.107,6.011
		c-0.008,0.067-0.013,0.136-0.013,0.203v15.313c-1.696,0.57-3.003,1.983-3.391,3.755v-27.707h56.586v59.612c0,1.104,0.896,2,2,2
		s2-0.896,2-2V175.073h2.036c0.776,0,1.482-0.449,1.812-1.152l13.552-28.948c0.124-0.266,0.188-0.555,0.188-0.848v-7.753
		c0-0.799-0.468-1.488-1.146-1.809v-0.821c4.279-4.585,8.523-4.287,8.694-4.274c0.07,0.007,0.141,0.011,0.211,0.011h0.923
		c0.071,0,0.141-0.004,0.211-0.011c0.05-0.003,4.396-0.316,8.692,4.275v0.821c-0.677,0.32-1.145,1.01-1.145,1.808v7.753
		c0,0.294,0.065,0.585,0.19,0.852l13.631,28.948c0.33,0.701,1.035,1.148,1.81,1.148h2.006v146.865c0,1.104,0.896,2,2,2s2-0.896,2-2
		v-32.909h68.014v32.909c0,1.104,0.896,2,2,2h51.667c1.104,0,2-0.896,2-2S336.194,319.938,335.09,319.938z M122.425,306.489h1.933
		v0.867c0,1.104,0.896,2,2,2h1.934v0.869c0,1.104,0.896,2,2,2h1.933v0.87c0,1.104,0.896,2,2,2h1.933v0.867c0,1.104,0.896,2,2,2
		h1.933v0.869c0,0.409,0.123,0.79,0.333,1.106h-36.224v-16.319h16.227v0.87C120.425,305.594,121.321,306.489,122.425,306.489z
		 M146.73,269.402v7.438h-7.328v-7.438H146.73z M139.402,280.841h7.328v18.778h-4.8l-0.459-0.324l-2.068-1.457V280.841z
		 M129.059,269.402v7.438h-7.328v-7.438H129.059z M121.73,280.841h7.328v9.709l-5.953-4.195c-0.337-0.237-0.739-0.365-1.152-0.365
		h-0.223V280.841z M103.85,285.989v-5.148h7.768v5.148H103.85z M107.667,268.054c3.086,0,3.807,2.372,3.95,3.062v5.726h-7.768
		v-5.749C103.969,270.413,104.604,268.054,107.667,268.054z M150.216,146.578h-11.021v-19.991h4.014L150.216,146.578z
		 M116.734,130.657h18.461v17.282h-18.461V130.657z M126.083,120.509l9.111,3.952v2.196h-18.461v-2.093L126.083,120.509z
		 M108.72,126.587h4.014v19.991h-11.021L108.72,126.587z M97.157,258.326V150.578h15.691c0.268,0.79,1.006,1.361,1.886,1.361h22.461
		c0.88,0,1.619-0.572,1.886-1.361h14.794c-0.085,0.223-0.132,0.464-0.132,0.717v107.031H97.157z M213.409,151.487h68.014v2.095
		h-68.014V151.487z M215.292,137.837c0-0.006,0-0.012,0-0.019h18.727c1.104,0,2-0.896,2-2c0-4.184,5.461-7.859,9.898-7.933l2.961,0
		c4.472,0.074,9.934,3.749,9.934,7.933c0,1.104,0.896,2,2,2h18.729c0,0.006,0,0.012,0,0.019v9.143c0,0.177,0.03,0.345,0.073,0.508
		h-64.395c0.043-0.163,0.073-0.331,0.073-0.508V137.837z M213.409,285.029V157.582h68.014v127.447H213.409z"/>
	<path fill="#343433" d="M167.316,288.729h32.24c1.104,0,2-0.896,2-2v-20.008l0.417-0.256c0.592-0.364,0.952-1.01,0.952-1.704
		v-1.434c0-1.104-0.896-2-2-2h-34.978c-1.104,0-2,0.896-2,2v1.434c0,0.694,0.361,1.34,0.953,1.704l0.417,0.256v20.008
		C165.316,287.834,166.211,288.729,167.316,288.729z M169.316,274.104h6.668v10.625h-6.668V274.104z M187.366,274.104v10.625h-7.382
		v-10.625H187.366z M179.984,270.104v-4.776h7.382v4.776H179.984z M191.365,284.729v-10.625h6.19v10.625H191.365z M197.556,265.604
		v4.501h-6.19v-4.776h6.209C197.562,265.419,197.556,265.511,197.556,265.604z M175.984,265.328v4.776h-6.668v-4.501
		c0-0.093-0.006-0.185-0.019-0.275H175.984z"/>
	<path fill="#343433" d="M159.848,201.561v1.435c0,0.695,0.361,1.34,0.954,1.704l0.416,0.255v20.007c0,1.104,0.896,2,2,2h14.881
		c1.104,0,2-0.896,2-2v-20.007l0.416-0.255c0.593-0.364,0.954-1.009,0.954-1.704v-1.435c0-1.104-0.896-2-2-2h-17.619
		C160.744,199.561,159.848,200.456,159.848,201.561z M165.217,222.962v-10.624h10.881v10.624H165.217z M176.117,203.561
		c-0.013,0.09-0.019,0.183-0.019,0.275v4.502h-10.881v-4.502c0-0.093-0.006-0.185-0.019-0.275H176.117z"/>
	<path fill="#343433" d="M207.763,201.561c0-1.104-0.896-2-2-2h-17.081c-1.105,0-2,0.896-2,2v1.435c0,0.695,0.361,1.341,0.954,1.705
		l0.416,0.255v20.007c0,1.104,0.896,2,2,2h14.345c1.104,0,2-0.896,2-2v-20.008l0.415-0.255c0.592-0.364,0.952-1.009,0.952-1.704
		V201.561z M202.414,203.561c-0.012,0.09-0.019,0.183-0.019,0.275v4.502h-10.344v-4.502c0-0.093-0.007-0.185-0.02-0.275H202.414z
		 M192.052,222.962v-10.624h10.344v10.624H192.052z"/>
	<path fill="#343433" d="M159.848,233.626c0,0.694,0.361,1.34,0.953,1.704l0.417,0.256v20.008c0,1.104,0.896,2,2,2h14.881
		c1.104,0,2-0.896,2-2v-20.008l0.417-0.256c0.592-0.364,0.953-1.01,0.953-1.704v-1.434c0-1.104-0.896-2-2-2h-17.619
		c-1.104,0-2,0.896-2,2V233.626z M165.217,253.594v-10.625h10.881v10.625H165.217z M176.117,234.192
		c-0.013,0.091-0.019,0.183-0.019,0.275v4.501h-10.881v-4.501c0-0.093-0.006-0.185-0.019-0.275H176.117z"/>
	<path fill="#343433" d="M206.396,255.594v-20.009l0.416-0.256c0.591-0.364,0.951-1.009,0.951-1.703v-1.434c0-1.104-0.896-2-2-2
		h-17.081c-1.105,0-2,0.896-2,2v1.434c0,0.695,0.361,1.34,0.953,1.704l0.417,0.256v20.008c0,1.104,0.896,2,2,2h14.345
		C205.5,257.594,206.396,256.698,206.396,255.594z M202.414,234.192c-0.012,0.091-0.019,0.183-0.019,0.275v4.501h-10.344v-4.501
		c0-0.093-0.007-0.185-0.02-0.275H202.414z M192.052,253.594v-10.625h10.344v10.625H192.052z"/>
	<path fill="#343433" d="M178.717,291.744h-17.619c-1.104,0-2,0.896-2,2v1.434c0,0.695,0.361,1.34,0.953,1.704l0.417,0.256v24.801
		c0,1.104,0.896,2,2,2h14.88c1.104,0,2-0.896,2-2v-24.801l0.417-0.256c0.592-0.364,0.953-1.01,0.953-1.704v-1.434
		C180.717,292.64,179.822,291.744,178.717,291.744z M175.367,295.744c-0.013,0.091-0.019,0.183-0.019,0.275v3.668h-10.88v-3.668
		c0-0.093-0.006-0.185-0.019-0.275H175.367z M164.468,319.938v-16.251h10.88v16.251H164.468z"/>
	<path fill="#343433" d="M180.434,165.702h6.482c1.104,0,2-0.896,2-2v-11.031l0.416-0.255c0.593-0.364,0.953-1.009,0.953-1.704
		v-1.434c0-1.104-0.895-2-2-2h-9.221c-1.104,0-2,0.896-2,2v1.434c0,0.695,0.361,1.341,0.954,1.705l0.416,0.255v11.03
		C178.434,164.807,179.33,165.702,180.434,165.702z M184.936,151.278c-0.013,0.09-0.019,0.182-0.019,0.274v10.149h-2.482v-10.149
		c0-0.092-0.006-0.184-0.019-0.274H184.936z"/>
	<path fill="#343433" d="M231.343,293.521c-1.173-1.522-6.854-1.617-6.91-1.617s-5.729,0.095-6.906,1.613
		c-0.276,0.356-0.428,0.815-0.43,1.27l-0.002,27.151c0,1.104,0.896,2,2,2h10.676c1.104,0,2-0.896,2-2v-27.151h-0.002
		C231.767,294.334,231.616,293.878,231.343,293.521z M227.771,319.938h-6.676v-23.676c1.035-0.177,2.511-0.358,3.338-0.358
		s2.304,0.182,3.338,0.358V319.938z"/>
	<path fill="#343433" d="M278.495,293.518c-1.177-1.519-6.85-1.613-6.906-1.613s-5.729,0.095-6.906,1.613
		c-0.276,0.356-0.428,0.815-0.43,1.27l-0.002,27.151c0,1.104,0.896,2,2,2h10.676c1.104,0,2-0.896,2-2v-27.151h-0.002
		C278.923,294.333,278.771,293.874,278.495,293.518z M274.927,319.938h-6.676v-23.676c1.035-0.177,2.511-0.358,3.338-0.358
		s2.304,0.182,3.338,0.358V319.938z"/>
	<path fill="#343433" d="M255.068,292.22c-2.601-0.188-5.404-0.315-6.981-0.315l0,0l0,0c-0.001,0-0.001,0-0.002,0
		c-1.571,0-4.375,0.127-6.976,0.315c-4.894,0.354-5.522,0.512-6.123,1.529c-0.187,0.316-0.279,0.678-0.278,1.038v27.151
		c0,1.104,0.896,2,2,2h22.76c1.104,0,2-0.896,2-2v-27.151c0.001-0.36-0.092-0.722-0.278-1.038
		C260.589,292.731,259.96,292.574,255.068,292.22z M238.708,296.439c1.789-0.186,4.919-0.4,7.379-0.491v23.99h-7.379V296.439z
		 M257.468,319.938h-7.381v-23.989c2.461,0.09,5.592,0.305,7.381,0.49V319.938z"/>
	<path fill="#343433" d="M278.479,209.641l-1.04-0.438v-39.198h-0.003c-0.001-0.438-0.136-0.881-0.389-1.23
		c-1.435-1.986-12.938-2.261-13.052-2.261s-11.621,0.276-13.052,2.264c-0.252,0.349-0.386,0.791-0.387,1.228l-0.001,8.713
		c0,0.008-0.002,0.015-0.002,0.022s0.002,0.015,0.002,0.022l-0.002,30.44l-1.041,0.438c-0.742,0.312-1.225,1.039-1.225,1.844v2.384
		c0,1.104,0.896,2,2,2h27.414c1.104,0,2-0.896,2-2v-2.384C279.702,210.68,279.22,209.953,278.479,209.641z M263.995,170.514
		c2.459,0,7.236,0.512,9.443,0.915v5.312h-18.885v-5.312C256.76,171.025,261.537,170.514,263.995,170.514z M254.041,211.868
		c0.323-0.36,0.513-0.833,0.513-1.337V180.74h18.885v29.791c0,0.504,0.189,0.977,0.513,1.337H254.041z"/>
	<path fill="#343433" d="M245.318,209.641l-1.04-0.438v-39.198h-0.003c-0.001-0.438-0.136-0.881-0.389-1.23
		c-1.435-1.986-12.938-2.261-13.052-2.261s-11.615,0.275-13.05,2.261c-0.253,0.349-0.388,0.792-0.389,1.23l-0.001,8.693
		c0,0.014-0.004,0.027-0.004,0.042c0,0.014,0.004,0.028,0.004,0.042l-0.002,30.42l-1.041,0.438
		c-0.742,0.312-1.225,1.039-1.225,1.844v2.384c0,1.104,0.896,2,2,2h27.414c1.104,0,2-0.896,2-2v-2.384
		C246.542,210.68,246.06,209.953,245.318,209.641z M230.835,170.514c2.459,0,7.237,0.512,9.443,0.915v5.312h-18.885v-5.312
		C223.6,171.025,228.377,170.514,230.835,170.514z M220.881,211.868c0.323-0.36,0.513-0.833,0.513-1.337V180.74h18.885v29.791
		c0,0.504,0.189,0.977,0.513,1.337H220.881z"/>
	<path fill="#343433" d="M278.479,267.877l-1.04-0.438v-39.198h-0.003c-0.001-0.438-0.136-0.881-0.389-1.23
		c-1.435-1.985-12.938-2.261-13.052-2.261s-11.621,0.275-13.052,2.264c-0.252,0.349-0.386,0.791-0.387,1.228l-0.001,8.713
		c0,0.008-0.002,0.015-0.002,0.022s0.002,0.015,0.002,0.022l-0.002,30.44l-1.041,0.438c-0.742,0.312-1.225,1.039-1.225,1.844v2.384
		c0,1.104,0.896,2,2,2h27.414c1.104,0,2-0.896,2-2v-2.384C279.702,268.916,279.22,268.189,278.479,267.877z M263.995,228.75
		c2.459,0,7.236,0.512,9.443,0.915v5.312h-18.885v-5.312C256.76,229.262,261.537,228.75,263.995,228.75z M254.041,270.104
		c0.323-0.36,0.513-0.833,0.513-1.337v-29.791h18.885v29.791c0,0.504,0.189,0.977,0.513,1.337H254.041z"/>
	<path fill="#343433" d="M245.318,267.877l-1.04-0.438v-39.198h-0.003c-0.001-0.438-0.136-0.881-0.389-1.23
		c-1.435-1.985-12.938-2.261-13.052-2.261s-11.615,0.275-13.05,2.261c-0.253,0.35-0.388,0.793-0.389,1.23l-0.001,8.693
		c0,0.015-0.004,0.027-0.004,0.042s0.004,0.027,0.004,0.042l-0.002,30.421l-1.041,0.438c-0.742,0.312-1.225,1.039-1.225,1.844v2.384
		c0,1.104,0.896,2,2,2h27.414c1.104,0,2-0.896,2-2v-2.384C246.542,268.916,246.06,268.189,245.318,267.877z M230.835,228.75
		c2.459,0,7.237,0.512,9.443,0.915v5.312h-18.885v-5.312C223.6,229.262,228.377,228.75,230.835,228.75z M220.881,270.104
		c0.323-0.36,0.513-0.833,0.513-1.337v-29.791h18.885v29.791c0,0.504,0.189,0.977,0.513,1.337H220.881z"/>
</g>
</svg>
